<svg xmlns="http://www.w3.org/2000/svg" width="26" height="26" viewBox="0 0 26 26" style="fill: ;">
    <path d="M 8 6 C 5.790861 6 4 7.790861 4 10 C 4 11.863188 5.2756909 13.399078 7 13.84375 L 7 19.5625 L 5.71875 18.28125 A 1.0001 1.0001 0 0 0 4.78125 18 A 1.0001 1.0001 0 0 0 4.28125 19.71875 L 7.28125 22.71875 A 1.0001 1.0001 0 0 0 8.71875 22.71875 L 11.71875 19.71875 A 1.016466 1.016466 0 1 0 10.28125 18.28125 L 9 19.5625 L 9 13.84375 C 10.724309 13.399078 12 11.863188 12 10 C 12 7.790861 10.209139 6 8 6 z M 18 6 C 15.790861 6 14 7.790861 14 10 C 14 11.863188 15.275691 13.399078 17 13.84375 L 17 19.5625 L 15.71875 18.28125 A 1.0001 1.0001 0 0 0 14.78125 18 A 1.0001 1.0001 0 0 0 14.28125 19.71875 L 17.28125 22.71875 A 1.0001 1.0001 0 0 0 18.71875 22.71875 L 21.71875 19.71875 A 1.016466 1.016466 0 1 0 20.28125 18.28125 L 19 19.5625 L 19 13.84375 C 20.724309 13.399078 22 11.863188 22 10 C 22 7.790861 20.209139 6 18 6 z"/>
</svg>