<svg xmlns="http://www.w3.org/2000/svg" width="26" height="26" viewBox="0 0 26 26" style="fill: ;">
    <path d="M 2 2 C 0.896 2 0 2.896 0 4 C 0 4.738 1.15625 6.057 1.15625 7 C 1.15625 7.943 0 10.921 0 13 C 0 15.079 1.15625 17.991 1.15625 19 C 1.15625 20.009 0 21.262 0 22 C 0 23.104 0.896 24 2 24 C 2.738 24 5.124 22.875 6.5 22.875 C 7.876 22.875 8.396 24 9.5 24 C 10.604 24 11.631 22.875 13 22.875 C 14.369 22.875 14.896 24 16 24 C 17.104 24 18.563 22.875 19.5 22.875 C 20.437 22.875 23.262 24 24 24 C 25.104 24 26 23.104 26 22 C 26 21.262 24.84375 19.943 24.84375 19 C 24.84375 18.057 26 14.95 26 13 C 26 11.05 24.84375 8.009 24.84375 7 C 24.84375 5.991 26 4.738 26 4 C 26 2.896 25.104 2 24 2 C 23.262 2 20.876 3.15625 19.5 3.15625 C 18.124 3.15625 17.604 2 16.5 2 C 15.396 2 14.369 3.15625 13 3.15625 C 11.631 3.15625 11.104 2 10 2 C 8.896 2 7.438 3.15625 6.5 3.15625 C 5.562 3.15625 2.738 2 2 2 z M 4 5 L 22 5 C 22.551 5 23 5.449 23 6 L 23 20 C 23 20.551 22.551 21 22 21 L 4 21 C 3.449 21 3 20.551 3 20 L 3 6 C 3 5.449 3.449 5 4 5 z M 12 7 C 11.447 7 11 7.448 11 8 L 11 11 L 8 11 C 7.447 11 7 11.448 7 12 L 7 14 C 7 14.553 7.447 15 8 15 L 11 15 L 11 18 C 11 18.553 11.447 19 12 19 L 14 19 C 14.553 19 15 18.553 15 18 L 15 15 L 18 15 C 18.553 15 19 14.553 19 14 L 19 12 C 19 11.448 18.553 11 18 11 L 15 11 L 15 8 C 15 7.448 14.553 7 14 7 L 12 7 z"/>
</svg>