<svg xmlns="http://www.w3.org/2000/svg" width="26" height="26" viewBox="0 0 26 26" style="fill: ;">
    <path d="M 13 0.1875 C 11.896 0.1875 11 1.032 11 2 L 15 2 C 15 1.092 14.104 0.1875 13 0.1875 z M 4.96875 0.5 C 3.91575 0.582375 2.867 1.0705 2 1.9375 C 0.268 3.6705 -0.07675 6.17425 1.65625 7.90625 L 7.9375 1.625 C 7.0715 0.7585 6.02175 0.417625 4.96875 0.5 z M 20.25 0.5 C 19.468963 0.60458398 18.712 0.975125 18.0625 1.625 L 24.34375 7.90625 C 26.07675 6.17425 25.732 3.6705 24 1.9375 C 22.916875 0.85375 21.551729 0.32569336 20.25 0.5 z M 13 3.1875 C 7.028 3.1875 2.1875 8.028 2.1875 14 C 2.1875 17.581415 3.943403 20.751007 6.625 22.71875 L 5.84375 25.03125 C 5.76975 25.23925 5.795 25.676 6.25 25.875 C 6.706 26.074 7.05625 25.79275 7.15625 25.59375 L 8.1875 23.6875 C 9.6354366 24.407378 11.273097 24.8125 13 24.8125 C 14.726903 24.8125 16.364445 24.407378 17.8125 23.6875 L 18.84375 25.59375 C 18.94375 25.79275 19.294 26.074 19.75 25.875 C 20.205 25.676 20.23025 25.23925 20.15625 25.03125 L 19.375 22.71875 C 22.056885 20.751007 23.8125 17.581415 23.8125 14 C 23.8125 8.028 18.972 3.1875 13 3.1875 z M 12 5.8125 L 12 6.5 A 1.0001 1.0001 0 0 0 12.46875 7.34375 C 12.391795 7.4631734 12.349781 7.5888538 12.34375 7.6875 L 12.09375 12.71875 C 11.695412 13.003651 11.4375 13.47269 11.4375 14 C 11.4375 14.867 12.133 15.5625 13 15.5625 C 13.054724 15.5625 13.102961 15.536723 13.15625 15.53125 L 16.21875 18.25 C 16.39075 18.404 16.8225 18.52025 17.1875 18.15625 C 17.5525 17.79125 17.43125 17.3615 17.28125 17.1875 L 14.5625 14.0625 C 14.563354 14.041248 14.5625 14.02146 14.5625 14 C 14.5625 13.44665 14.275806 12.967349 13.84375 12.6875 L 13.65625 7.6875 C 13.651556 7.5893534 13.607088 7.4622314 13.53125 7.34375 A 1.0001 1.0001 0 0 0 14 6.5 L 14 5.8125 C 17.706044 6.2635272 20.681577 9.185934 21.1875 12.875 L 20.5 12.875 A 1.1226122 1.1226122 0 0 0 20.375 12.875 A 1.1267348 1.1267348 0 1 0 20.5 15.125 L 21.1875 15.125 C 20.687225 18.772883 17.772883 21.687225 14.125 22.1875 L 14.125 21.5 A 1.1226122 1.1226122 0 0 0 12.75 20.375 A 1.1226122 1.1226122 0 0 0 11.875 21.5 L 11.875 22.1875 C 8.2271172 21.687225 5.3127746 18.772883 4.8125 15.125 L 5.5 15.125 A 1.125 1.125 0 0 0 5.5 12.875 L 4.8125 12.875 C 5.3184225 9.185934 8.2939564 6.2635272 12 5.8125 z"/>
</svg>