<svg xmlns="http://www.w3.org/2000/svg" width="26" height="26" viewBox="0 0 26 26" style="fill: ;">
    <path d="M 0 2 L 0 4 L 26 4 L 26 2 L 0 2 z M 4 7 L 4 9 L 22 9 L 22 7 L 4 7 z M 0 12 L 0 14 L 26 14 L 26 12 L 0 12 z M 4 17 L 4 19 L 22 19 L 22 17 L 4 17 z M 0 22 L 0 24 L 26 24 L 26 22 L 0 22 z M 902 1469 L 902 1471 L 928 1471 L 928 1469 L 902 1469 z M 906 1474 L 906 1476 L 924 1476 L 924 1474 L 906 1474 z M 902 1479 L 902 1481 L 928 1481 L 928 1479 L 902 1479 z M 906 1484 L 906 1486 L 924 1486 L 924 1484 L 906 1484 z M 902 1489 L 902 1491 L 928 1491 L 928 1489 L 902 1489 z"/>
</svg>