<svg xmlns="http://www.w3.org/2000/svg" width="26" height="26" viewBox="0 0 26 26" style="fill: ;">
    <path fill-rule="evenodd" clip-rule="evenodd" d="M24.123,9.753v6.281c0,0.886-0.71,1.608-1.583,1.608 s-1.579-0.722-1.579-1.608V9.753c0-0.886,0.705-1.605,1.579-1.605S24.123,8.867,24.123,9.753z M3.456,8.147 c-0.872,0-1.579,0.72-1.579,1.605v6.281c0,0.886,0.707,1.608,1.579,1.608c0.878,0,1.583-0.722,1.583-1.608V9.753 C5.039,8.867,4.334,8.147,3.456,8.147z M5.993,19.666c0,0.683,0.553,1.233,1.234,1.233h1.41v3.495c0,0.886,0.71,1.605,1.583,1.605 s1.581-0.719,1.581-1.605V20.9h2.46v3.495c0,0.886,0.712,1.605,1.583,1.605c0.874,0,1.583-0.719,1.583-1.605V20.9h1.407 c0.683,0,1.236-0.55,1.236-1.233V8.196H5.993V19.666z M20.036,7.175H5.961c0.184-2.134,1.634-3.961,3.703-4.922l-1.301-1.89 c-0.077-0.111-0.06-0.258,0.041-0.328C8.505-0.033,8.65,0.001,8.73,0.112l1.349,1.962C10.97,1.724,11.957,1.526,13,1.526 s2.028,0.198,2.921,0.548l1.349-1.962c0.08-0.111,0.225-0.145,0.326-0.077c0.101,0.07,0.118,0.217,0.041,0.328l-1.301,1.89 C18.404,3.214,19.855,5.041,20.036,7.175z M10.811,4.447c0-0.43-0.35-0.777-0.78-0.777c-0.43,0-0.78,0.348-0.78,0.777 c0,0.432,0.35,0.78,0.78,0.78C10.461,5.227,10.811,4.879,10.811,4.447z M16.845,4.447c0-0.43-0.348-0.777-0.78-0.777 c-0.43,0-0.777,0.348-0.777,0.777c0,0.432,0.348,0.78,0.777,0.78C16.497,5.227,16.845,4.879,16.845,4.447z"/>
</svg>