<svg xmlns="http://www.w3.org/2000/svg" width="26" height="26" viewBox="0 0 26 26" style="fill: ;">
    <path d="M25.76,13.861l-1.519-2.396l0.901-2.689c0.122-0.367-0.03-0.77-0.365-0.962l-2.458-1.417l-0.452-2.8 c-0.063-0.382-0.385-0.667-0.771-0.683l-2.835-0.111l-1.701-2.27c-0.232-0.31-0.652-0.413-0.999-0.246L13,1.505l-2.562-1.219 C10.09,0.121,9.672,0.224,9.439,0.533l-1.701,2.27L4.903,2.914C4.518,2.929,4.195,3.214,4.133,3.596l-0.452,2.8L1.223,7.813 C0.888,8.005,0.735,8.408,0.857,8.775l0.901,2.689L0.24,13.861c-0.207,0.327-0.154,0.754,0.125,1.022l2.047,1.963l-0.23,2.826 c-0.031,0.387,0.213,0.74,0.584,0.848l2.725,0.785L6.6,23.916c0.152,0.355,0.533,0.561,0.911,0.479l2.78-0.57l2.194,1.797 c0.149,0.121,0.332,0.184,0.515,0.184s0.365-0.063,0.515-0.184l2.194-1.797l2.78,0.57c0.377,0.08,0.76-0.123,0.911-0.479 l1.109-2.611l2.725-0.785c0.371-0.107,0.615-0.461,0.584-0.848l-0.23-2.826l2.047-1.963C25.914,14.615,25.967,14.188,25.76,13.861z M18.877,9.95l-5.691,8.526c-0.215,0.318-0.548,0.531-0.879,0.531c-0.33,0-0.699-0.185-0.934-0.421l-4.178-4.245 c-0.285-0.29-0.285-0.76,0-1.05l1.031-1.05c0.285-0.286,0.748-0.286,1.031,0l2.719,2.762l4.484-6.718 c0.225-0.339,0.682-0.425,1.014-0.196l1.209,0.831C19.016,9.15,19.102,9.613,18.877,9.95z"/>
</svg>