<svg xmlns="http://www.w3.org/2000/svg" viewBox="0 0 26 26" enable-background="new 0 0 26 26" style="fill: ;">
    <path style="text-indent:0;text-align:start;line-height:normal;text-transform:none;block-progression:tb;-inkscape-font-specification:Bitstream Vera Sans" d="M 13 0 C 5.9252525 0 0 5.0793103 0 11.5 C 0 14.530076 1.3587299 17.248397 3.5 19.28125 C 3.3125163 19.777619 2.9801146 20.455941 2.40625 21.15625 C 1.7176125 21.996621 0.91622897 22.767726 0.375 23.21875 A 1.0001 1.0001 0 0 0 1 25 C 3.2151515 25 4.8079344 24.97547 6.25 24.59375 C 7.5397212 24.252353 8.6489125 23.536365 9.78125 22.53125 C 10.811485 22.778298 11.87401 23 13 23 C 20.074747 23 26 17.92069 26 11.5 C 26 5.0793103 20.074747 0 13 0 z M 13 2 C 19.125253 2 24 6.3206897 24 11.5 C 24 16.67931 19.125253 21 13 21 C 11.911111 21 10.780735 20.81236 9.75 20.53125 A 1.0001 1.0001 0 0 0 8.8125 20.78125 C 7.6872035 21.859659 6.8579344 22.362973 5.75 22.65625 C 5.2398016 22.791303 4.256431 22.75925 3.5625 22.8125 C 3.7016259 22.654711 3.8333558 22.571477 3.96875 22.40625 C 4.7551125 21.446621 5.4718979 20.431128 5.6875 19.28125 A 1.0001 1.0001 0 0 0 5.34375 18.34375 C 3.2487623 16.613108 2 14.188889 2 11.5 C 2 6.3206897 6.8747475 2 13 2 z M 11.09375 5.90625 A 1.0001 1.0001 0 0 0 10.625 6.15625 L 9.125 7.5625 L 10.46875 9.03125 L 11.65625 7.90625 L 14.0625 7.90625 L 15 8.96875 L 15 10.4375 L 12.4375 12.15625 A 1.0001 1.0001 0 0 0 12 13 L 12 15 L 14 15 L 14 13.5625 L 16.5625 11.84375 A 1.0001 1.0001 0 0 0 17 11 L 17 8.59375 A 1.0001 1.0001 0 0 0 16.75 7.9375 L 15.25 6.25 A 1.0001 1.0001 0 0 0 14.5 5.90625 L 11.3125 5.90625 A 1.0001 1.0001 0 0 0 11.09375 5.90625 z M 12 16 L 12 18 L 14 18 L 14 16 L 12 16 z" color="#000" overflow="visible" enable-background="accumulate" font-family="Bitstream Vera Sans"/>
</svg>