<svg xmlns="http://www.w3.org/2000/svg" width="26" height="26" viewBox="0 0 26 26" style="fill: ;">
    <path style="text-indent:0;text-align:start;line-height:normal;text-transform:none;block-progression:tb;-inkscape-font-specification:Bitstream Vera Sans" d="M 19.71875 2.0625 C 19.327047 2.07251 18.93727 2.1551362 18.5625 2.28125 C 17.06342 2.7857049 15.777037 3.9417125 14.5 5.21875 L 6.25 13.46875 C 5.5168422 14.201908 4.9524406 15.096054 4.78125 16.15625 C 4.6100594 17.216446 4.9283192 18.427683 5.84375 19.34375 C 6.7816083 20.280958 8.035564 20.564264 9.09375 20.375 C 10.151936 20.185736 11.03808 19.61817 11.71875 18.9375 L 20.78125 9.875 A 1.0001 1.0001 0 1 0 19.375 8.46875 L 10.3125 17.53125 C 9.8821704 17.96158 9.288064 18.310014 8.75 18.40625 C 8.211936 18.502486 7.7541417 18.441292 7.25 17.9375 C 6.7254308 17.412567 6.6686906 16.972304 6.75 16.46875 C 6.8313094 15.965196 7.1474078 15.383842 7.65625 14.875 L 15.90625 6.625 C 17.115213 5.4160375 18.27283 4.4952951 19.1875 4.1875 C 20.10217 3.8797049 20.758088 3.9455876 21.8125 5 C 22.600028 5.7869702 23.43848 6.4973311 23.65625 7.21875 C 23.765135 7.5794595 23.765549 7.9391641 23.53125 8.53125 C 23.296951 9.1233359 22.785716 9.9327998 21.8125 10.90625 C 17.6646 15.05515 14.481136 18.237614 12.75 19.96875 C 11.21304 21.50571 9.7613546 22.53192 8.46875 22.8125 C 7.1761454 23.09308 5.9499309 22.79414 4.34375 21.1875 C 2.7367277 19.580478 2.175016 18.023686 2.34375 16.40625 C 2.512484 14.788814 3.4969599 13.033817 5.3125 11.21875 C 7.5091241 9.0231065 12.09375 4.8125 12.09375 4.8125 A 1.0001 1.0001 0 1 0 10.75 3.34375 C 10.75 3.34375 6.1583759 7.4988935 3.875 9.78125 C 1.8515401 11.804183 0.577516 13.977936 0.34375 16.21875 C 0.109984 18.459564 1.0175223 20.673772 2.9375 22.59375 C 4.8573191 24.514114 6.9301046 25.20342 8.875 24.78125 C 10.819895 24.35908 12.50521 23.02604 14.15625 21.375 C 15.887114 19.644136 19.07065 16.4616 23.21875 12.3125 C 24.319534 11.21145 25.031205 10.229008 25.40625 9.28125 C 25.781295 8.3334921 25.79574 7.3976655 25.5625 6.625 C 25.09602 5.0796689 23.842222 4.2167798 23.21875 3.59375 C 22.503456 2.8784562 21.710583 2.4260571 20.90625 2.21875 C 20.504084 2.1150965 20.110453 2.05249 19.71875 2.0625 z" color="#000" overflow="visible" enable-background="accumulate" font-family="Bitstream Vera Sans"/>
</svg>