<svg xmlns="http://www.w3.org/2000/svg" width="26" height="26" viewBox="0 0 26 26" style="fill: ;">
    <path style="text-indent:0;text-align:start;line-height:normal;text-transform:none;block-progression:tb;-inkscape-font-specification:Bitstream Vera Sans" d="M 18.8125 2.03125 A 0.95009499 0.95009499 0 0 0 18.0625 3 L 18.0625 22 A 0.95009499 0.95009499 0 1 0 19.9375 22 L 19.9375 3 A 0.95009499 0.95009499 0 0 0 18.90625 2.03125 A 0.95009499 0.95009499 0 0 0 18.8125 2.03125 z M 6.8125 3.03125 A 0.95009499 0.95009499 0 0 0 6.0625 4 L 6.0625 21 A 0.95009499 0.95009499 0 1 0 7.9375 21 L 7.9375 4 A 0.95009499 0.95009499 0 0 0 6.90625 3.03125 A 0.95009499 0.95009499 0 0 0 6.8125 3.03125 z M 15.8125 6.03125 A 0.95009499 0.95009499 0 0 0 15.0625 7 L 15.0625 18 A 0.95009499 0.95009499 0 1 0 16.9375 18 L 16.9375 7 A 0.95009499 0.95009499 0 0 0 15.90625 6.03125 A 0.95009499 0.95009499 0 0 0 15.8125 6.03125 z M 3.8125 7.03125 A 0.95009499 0.95009499 0 0 0 3.0625 8 L 3.0625 17 A 0.95009499 0.95009499 0 1 0 4.9375 17 L 4.9375 8 A 0.95009499 0.95009499 0 0 0 3.90625 7.03125 A 0.95009499 0.95009499 0 0 0 3.8125 7.03125 z M 9.8125 8.03125 A 0.95009499 0.95009499 0 0 0 9.0625 9 L 9.0625 16 A 0.95009499 0.95009499 0 1 0 10.9375 16 L 10.9375 9 A 0.95009499 0.95009499 0 0 0 9.90625 8.03125 A 0.95009499 0.95009499 0 0 0 9.8125 8.03125 z M 21.8125 8.03125 A 0.95009499 0.95009499 0 0 0 21.0625 9 L 21.0625 16 A 0.95009499 0.95009499 0 1 0 22.9375 16 L 22.9375 9 A 0.95009499 0.95009499 0 0 0 21.90625 8.03125 A 0.95009499 0.95009499 0 0 0 21.8125 8.03125 z M 0.8125 10.03125 A 0.95009499 0.95009499 0 0 0 0.0625 11 L 0.0625 14 A 0.95009499 0.95009499 0 1 0 1.9375 14 L 1.9375 11 A 0.95009499 0.95009499 0 0 0 0.90625 10.03125 A 0.95009499 0.95009499 0 0 0 0.8125 10.03125 z M 12.8125 10.03125 A 0.95009499 0.95009499 0 0 0 12.0625 11 L 12.0625 14 A 0.95009499 0.95009499 0 1 0 13.9375 14 L 13.9375 11 A 0.95009499 0.95009499 0 0 0 12.90625 10.03125 A 0.95009499 0.95009499 0 0 0 12.8125 10.03125 z M 24.8125 10.03125 A 0.95009499 0.95009499 0 0 0 24.0625 11 L 24.0625 14 A 0.95009499 0.95009499 0 1 0 25.9375 14 L 25.9375 11 A 0.95009499 0.95009499 0 0 0 24.90625 10.03125 A 0.95009499 0.95009499 0 0 0 24.8125 10.03125 z"/>
</svg>