<svg xmlns="http://www.w3.org/2000/svg" width="26" height="26" viewBox="0 0 26 26" style="fill: ;">
    <path d="M 19.5 6.71875 A 0.750075 0.750075 0 0 0 19.34375 6.75 A 0.750075 0.750075 0 0 0 18.875 7.0625 C 18.16757 8.0809559 16.09375 7.96875 16.09375 7.96875 A 0.750075 0.750075 0 0 0 15.28125 8.875 C 15.28125 8.875 15.524528 10.047477 16 11.75 L 9.90625 11.75 L 9.625 11.0625 C 10.595532 10.811808 10.9375 10.691402 10.9375 10.34375 C 10.9375 10.00975 10.49325 9.999 10.03125 10 L 6.6875 10 C 6.2185 10 6.0625 10.191 6.0625 10.75 C 6.0625 12.540749 6.8994377 11.933885 8.15625 11.46875 L 8.5625 12.5 L 4.8125 20.1875 A 0.750075 0.750075 0 0 0 5.5 21.25 L 12.15625 21.25 A 0.750075 0.750075 0 0 0 13.28125 20.71875 L 17.09375 15.15625 C 17.793046 17.045999 18.697025 19.087531 19.875 20.90625 A 0.750075 0.750075 0 1 0 21.125 20.09375 C 19.579946 17.708284 18.569491 15.000386 17.90625 12.875 L 17.6875 12.28125 C 17.290385 10.935518 17.065505 9.8933271 16.96875 9.4375 C 17.899215 9.4243532 19.200112 9.2690195 20.125 7.9375 A 0.750075 0.750075 0 0 0 19.5 6.71875 z M 10.46875 13.25 L 16.4375 13.25 C 16.440338 13.258944 16.434651 13.27229 16.4375 13.28125 L 16.46875 13.375 L 12.6875 18.90625 L 10.46875 13.25 z M 9.3125 14.375 L 11.40625 19.75 L 6.6875 19.75 L 9.3125 14.375 z M 5.5 15.1875 C 2.565 15.1875 0.1875 17.565 0.1875 20.5 C 0.1875 23.435 2.565 25.8125 5.5 25.8125 C 7.836 25.8125 9.788 24.2815 10.5 22.1875 L 8.59375 22.1875 C 7.98875 23.2895 6.842 24.0625 5.5 24.0625 C 3.538 24.0625 1.9375 22.462 1.9375 20.5 C 1.9375 18.597 3.46175 17.05975 5.34375 16.96875 L 6.15625 15.25 C 5.93825 15.223 5.725 15.1875 5.5 15.1875 z M 20.5 15.1875 C 20.246 15.1875 19.995 15.215 19.75 15.25 C 19.974 15.809 20.236 16.3765 20.5 16.9375 C 22.462 16.9375 24.0625 18.538 24.0625 20.5 C 24.0625 22.462 22.462 24.0625 20.5 24.0625 C 18.538 24.0625 16.9375 22.462 16.9375 20.5 C 16.9375 19.798 17.148 19.14475 17.5 18.59375 C 17.21 17.99175 16.96475 17.38125 16.71875 16.78125 C 15.78275 17.73925 15.1875 19.055 15.1875 20.5 C 15.1875 23.435 17.565 25.8125 20.5 25.8125 C 23.435 25.8125 25.8125 23.435 25.8125 20.5 C 25.8125 17.565 23.435 15.1875 20.5 15.1875 z M 9.21875 16.71875 L 8.375 18.4375 C 8.457 18.5505 8.52475 18.6885 8.59375 18.8125 L 10.5 18.8125 C 10.23 18.0215 9.80175 17.29275 9.21875 16.71875 z M 902 1469 L 902 1471 L 928 1471 L 928 1469 L 902 1469 z M 906 1474 L 906 1476 L 924 1476 L 924 1474 L 906 1474 z M 902 1479 L 902 1481 L 928 1481 L 928 1479 L 902 1479 z M 906 1484 L 906 1486 L 924 1486 L 924 1484 L 906 1484 z M 902 1489 L 902 1491 L 928 1491 L 928 1489 L 902 1489 z"/>
</svg>