<svg xmlns="http://www.w3.org/2000/svg" width="26" height="26" viewBox="0 0 26 26" style="fill: ;">
    <path d="M 5 0 C 5 0 3.03125 2.169 3.03125 3.25 C 3.03125 4.261 3.79825 5.0835 4.78125 5.1875 C 4.31625 5.0915 3.96875 4.6805 3.96875 4.1875 C 3.96875 3.6245 5 2.5 5 2.5 C 5 2.5 6.03125 3.6245 6.03125 4.1875 C 6.03125 4.6805 5.68275 5.0925 5.21875 5.1875 C 6.20175 5.0835 6.96875 4.261 6.96875 3.25 C 6.96875 2.17 5 -4.4408921e-16 5 0 z M 13 0 C 13 0 11.03125 2.169 11.03125 3.25 C 11.03125 4.261 11.79825 5.0835 12.78125 5.1875 C 12.31625 5.0915 11.96875 4.6805 11.96875 4.1875 C 11.96875 3.6245 13 2.5 13 2.5 C 13 2.5 14.03125 3.6245 14.03125 4.1875 C 14.03125 4.6805 13.68275 5.0925 13.21875 5.1875 C 14.20175 5.0835 14.96875 4.261 14.96875 3.25 C 14.96875 2.17 13 -4.4408921e-16 13 0 z M 21 0 C 21 0 19.03125 2.169 19.03125 3.25 C 19.03125 4.261 19.79825 5.0835 20.78125 5.1875 C 20.31625 5.0915 19.96875 4.6805 19.96875 4.1875 C 19.96875 3.6245 21 2.5 21 2.5 C 21 2.5 22.03125 3.6245 22.03125 4.1875 C 22.03125 4.6805 21.68275 5.0925 21.21875 5.1875 C 22.20175 5.0835 22.96875 4.261 22.96875 3.25 C 22.96875 2.17 21 -4.4408921e-16 21 0 z M 3.03125 5.6875 C 2.67125 5.6365 2.375 5.89 2.375 6.25 C 2.375 6.61 3.03125 7.26125 3.03125 8.40625 L 3.03125 13.96875 L 6.96875 13.96875 L 6.96875 8.3125 C 6.96975 7.6145 7.625 7.361 7.625 7 C 7.625 6.64 7.61 6.25 6.5 6.25 C 4.849 6.25 3.03125 5.6875 3.03125 5.6875 z M 11.03125 5.6875 C 10.67125 5.6365 10.375 5.89 10.375 6.25 C 10.375 6.61 11.03125 7.26125 11.03125 8.40625 L 11.03125 13.96875 L 14.96875 13.96875 L 14.96875 8.3125 C 14.96975 7.6145 15.625 7.361 15.625 7 C 15.625 6.64 15.61 6.25 14.5 6.25 C 12.849 6.25 11.03125 5.6875 11.03125 5.6875 z M 19.03125 5.6875 C 18.67125 5.6365 18.375 5.89 18.375 6.25 C 18.375 6.61 19.03125 7.26125 19.03125 8.40625 L 19.03125 13.96875 L 22.96875 13.96875 L 22.96875 8.3125 C 22.96975 7.6145 23.625 7.361 23.625 7 C 23.625 6.64 23.61 6.25 22.5 6.25 C 20.849 6.25 19.03125 5.6875 19.03125 5.6875 z M 4 15 C 2.344 15 1 16.344 1 18 L 1 19 L 1 24 A 1.0001 1.0001 0 0 0 0.90625 24 A 1.001098 1.001098 0 0 0 1 26 L 2.5 26 L 23.5 26 L 25 26 A 1.0001 1.0001 0 1 0 25 24 L 25 18 C 25 16.344 23.656 15 22 15 L 4 15 z M 5 19 C 5 20.104569 5.8954305 21 7 21 C 8.1045695 21 9 20.104569 9 19 C 9 20.104569 9.8954305 21 11 21 C 12.104569 21 13 20.104569 13 19 C 13 20.104569 13.895431 21 15 21 C 16.104569 21 17 20.104569 17 19 C 17 20.104569 17.895431 21 19 21 C 20.104569 21 21 20.104569 21 19 C 21 20.104569 21.895431 21 23 21 L 23 24 L 3 24 L 3 21 C 4.1045695 21 5 20.104569 5 19 z"/>
</svg>