<svg xmlns="http://www.w3.org/2000/svg" width="26" height="26" viewBox="0 0 26 26" style="fill: ;">
    <path d="M13.5,0C6.733,0,5,1.996,5,3.652V22c0,1.656,2.422,3.813,8.5,3.813S22,23.656,22,22V3.652 C22,1.996,20.267,0,13.5,0z M20,10.5c0,0.276-0.224,0.5-0.5,0.5h-12C7.224,11,7,10.776,7,10.5v-7C7,3.224,7.224,3,7.5,3h12 C19.776,3,20,3.224,20,3.5V10.5z M15,15.5c0,0.276-0.224,0.5-0.5,0.5h-2c-0.276,0-0.5-0.224-0.5-0.5v-2c0-0.276,0.224-0.5,0.5-0.5h2 c0.276,0,0.5,0.224,0.5,0.5V15.5z M10,14.173c0,0.276-0.254,0.5-0.5,0.5c-1.537,0-2.5-0.896-2.5-1.173l0,0C7,13.224,7.224,13,7.5,13 h2c0.276,0,0.5,0.224,0.5,0.5V14.173z M17,13.5c0-0.276,0.224-0.5,0.5-0.5h2c0.276,0,0.5,0.224,0.5,0.5l0,0 c0,0.276-0.963,1.173-2.5,1.173c-0.246,0-0.5-0.224-0.5-0.5V13.5z M7.5,18C7.224,18,7,17.776,7,17.5v-1C7,16.224,7.224,16,7.5,16 l0,0C7.776,16,8,16.224,8,16.5v1C8,17.776,7.776,18,7.5,18L7.5,18z M9.5,18.5C9.224,18.5,9,18.276,9,18v-1 c0-0.276,0.224-0.5,0.5-0.5l0,0c0.276,0,0.5,0.224,0.5,0.5v1C10,18.276,9.776,18.5,9.5,18.5L9.5,18.5z M11.5,19 c-0.276,0-0.5-0.224-0.5-0.5v-1c0-0.276,0.224-0.5,0.5-0.5l0,0c0.276,0,0.5,0.224,0.5,0.5v1C12,18.776,11.776,19,11.5,19L11.5,19z M13.5,19c-0.276,0-0.5-0.224-0.5-0.5v-1c0-0.276,0.224-0.5,0.5-0.5l0,0c0.276,0,0.5,0.224,0.5,0.5v1C14,18.776,13.776,19,13.5,19 L13.5,19z M15.5,19c-0.276,0-0.5-0.224-0.5-0.5v-1c0-0.276,0.224-0.5,0.5-0.5l0,0c0.276,0,0.5,0.224,0.5,0.5v1 C16,18.776,15.776,19,15.5,19L15.5,19z M17.5,18.5c-0.276,0-0.5-0.224-0.5-0.5v-1c0-0.276,0.224-0.5,0.5-0.5l0,0 c0.276,0,0.5,0.224,0.5,0.5v1C18,18.276,17.776,18.5,17.5,18.5L17.5,18.5z M19.5,18c-0.276,0-0.5-0.224-0.5-0.5v-1 c0-0.276,0.224-0.5,0.5-0.5l0,0c0.276,0,0.5,0.224,0.5,0.5v1C20,17.776,19.776,18,19.5,18L19.5,18z M7.5,21 C7.224,21,7,20.776,7,20.5v-1C7,19.224,7.224,19,7.5,19l0,0C7.776,19,8,19.224,8,19.5v1C8,20.776,7.776,21,7.5,21L7.5,21z M9.5,21.5 C9.224,21.5,9,21.276,9,21v-1c0-0.276,0.224-0.5,0.5-0.5l0,0c0.276,0,0.5,0.224,0.5,0.5v1C10,21.276,9.776,21.5,9.5,21.5L9.5,21.5z M11.5,22c-0.276,0-0.5-0.224-0.5-0.5v-1c0-0.276,0.224-0.5,0.5-0.5l0,0c0.276,0,0.5,0.224,0.5,0.5v1C12,21.776,11.776,22,11.5,22 L11.5,22z M13.5,22c-0.276,0-0.5-0.224-0.5-0.5v-1c0-0.276,0.224-0.5,0.5-0.5l0,0c0.276,0,0.5,0.224,0.5,0.5v1 C14,21.776,13.776,22,13.5,22L13.5,22z M15.5,22c-0.276,0-0.5-0.224-0.5-0.5v-1c0-0.276,0.224-0.5,0.5-0.5l0,0 c0.276,0,0.5,0.224,0.5,0.5v1C16,21.776,15.776,22,15.5,22L15.5,22z M17.5,21.5c-0.276,0-0.5-0.224-0.5-0.5v-1 c0-0.276,0.224-0.5,0.5-0.5l0,0c0.276,0,0.5,0.224,0.5,0.5v1C18,21.276,17.776,21.5,17.5,21.5L17.5,21.5z M19.5,21 c-0.276,0-0.5-0.224-0.5-0.5v-1c0-0.276,0.224-0.5,0.5-0.5l0,0c0.276,0,0.5,0.224,0.5,0.5v1C20,20.776,19.776,21,19.5,21L19.5,21z"/>
</svg>