<svg xmlns="http://www.w3.org/2000/svg" width="26" height="26" viewBox="0 0 26 26" style="fill: ;">
    <path style="text-indent:0;text-align:start;line-height:normal;text-transform:none;block-progression:tb;-inkscape-font-specification:Bitstream Vera Sans" d="M 11 1 C 8.8022637 1 7 2.8033398 7 5 L 7 6 L 9 6 L 9 5 C 9 3.8846602 9.8837363 3 11 3 L 15 3 C 16.116264 3 17 3.8846602 17 5 L 17 6 L 19 6 L 19 5 C 19 2.8033398 17.197736 1 15 1 L 11 1 z M 4.875 7 C 2.182 7 0 9.182 0 11.875 L 0 21.125 C 0 23.818 2.182 26 4.875 26 L 21.125 26 C 23.818 26 26 23.818 26 21.125 L 26 11.875 C 26 9.182 23.818 7 21.125 7 L 4.875 7 z M 13 13.90625 C 14.161 13.90625 15.09375 14.839 15.09375 16 C 15.09375 17.161 14.16 18.09375 13 18.09375 C 11.84 18.09375 10.90625 17.161 10.90625 16 C 10.90625 14.839 11.839 13.90625 13 13.90625 z" color="#000" overflow="visible" enable-background="accumulate" font-family="Bitstream Vera Sans"/>
</svg>