<svg xmlns="http://www.w3.org/2000/svg" width="26" height="26" viewBox="0 0 26 26" style="fill: ;">
    <path d="M 9.5 0.0625 L 8.875 2.34375 L 6.625 1.75 L 8.25 3.46875 L 6.625 5.15625 L 8.875 4.5625 L 9.5 6.875 L 10.125 4.5625 L 12.375 5.15625 L 10.75 3.46875 L 12.375 1.75 L 10.125 2.34375 L 9.5 0.0625 z M 2.46875 6.5 L 1.96875 8.3125 L 0.15625 7.84375 L 1.46875 9.1875 L 0.15625 10.53125 L 1.96875 10.0625 L 2.46875 11.875 L 3 10.0625 L 4.8125 10.53125 L 3.5 9.1875 L 4.8125 7.84375 L 3 8.3125 L 2.46875 6.5 z M 18.09375 7.1875 C 21.00975 8.4655 23.03125 11.38625 23.03125 14.78125 C 23.03125 19.36225 19.34625 23.0625 14.78125 23.0625 C 11.38525 23.0625 8.4645 21.01475 7.1875 18.09375 C 7.9745 22.48775 11.8145 25.8125 16.4375 25.8125 C 21.6175 25.8125 25.8125 21.6345 25.8125 16.4375 C 25.8135 11.8135 22.47675 7.9715 18.09375 7.1875 z"/>
</svg>