<svg xmlns="http://www.w3.org/2000/svg" width="26" height="26" viewBox="0 0 26 26" style="fill: ;">
    <path d="M 7 0 C 6.449 0 6 0.449 6 1 L 6 4 C 6 4.551 6.449 5 7 5 C 7.551 5 8 4.551 8 4 L 8 1 C 8 0.449 7.551 0 7 0 z M 19 0 C 18.449 0 18 0.449 18 1 L 18 4 C 18 4.551 18.449 5 19 5 C 19.551 5 20 4.551 20 4 L 20 1 C 20 0.449 19.551 0 19 0 z M 3 2 C 1.344 2 0 3.344 0 5 L 0 23 C 0 24.656 1.344 26 3 26 L 23 26 C 24.656 26 26 24.656 26 23 L 26 5 C 26 3.344 24.656 2 23 2 L 21 2 L 21 4 C 21 5.104 20.104 6 19 6 C 17.896 6 17 5.104 17 4 L 17 2 L 9 2 L 9 4 C 9 5.104 8.104 6 7 6 C 5.896 6 5 5.104 5 4 L 5 2 L 3 2 z M 2 9 L 24 9 L 24 23 C 24 23.551 23.551 24 23 24 L 3 24 C 2.449 24 2 23.551 2 23 L 2 9 z M 9 12 L 9 14.3125 L 13.8125 14.3125 L 10.03125 21.96875 L 13.5 21.96875 L 16.96875 13.53125 L 16.96875 12 L 9 12 z"/>
</svg>