<svg xmlns="http://www.w3.org/2000/svg" width="26" height="26" viewBox="0 0 26 26" style="fill: ;">
    <path d="M 5.53125 4 C 4.8201563 4.0321094 3.7065 4.23975 2.625 5.15625 C 0.897 6.61825 0.006 9.265 0 13 C -0.011 16.733 0.86875 19.37175 2.59375 20.84375 C 4.02775 22.07175 5.5525 22.043 6.0625 22 L 6.71875 22 C 7.96075 22 8.08625 20.999 7.90625 19.75 L 7.78125 19 C 7.59925 17.759 7.21675 16.76 5.96875 16.75 L 5.21875 16.75 C 4.67475 16.747 2.99 17.513 3 13 C 3.007 8.496 4.67475 9.245 5.21875 9.25 L 5.96875 9.25 C 7.21175 9.252 7.6275 8.242 7.8125 7 L 7.9375 6.25 C 8.1195 5.012 8.02325 4.006 6.78125 4 L 6.09375 4 C 5.96575 3.98875 5.7682813 3.9892969 5.53125 4 z M 23.53125 4 C 22.820156 4.0321094 21.7065 4.23975 20.625 5.15625 C 18.897 6.61825 18.006 9.265 18 13 C 17.988 16.733 18.86875 19.37175 20.59375 20.84375 C 22.02775 22.07175 23.5505 22.043 24.0625 22 L 24.71875 22 C 25.96075 22 26.08625 20.999 25.90625 19.75 L 25.78125 19 C 25.59925 17.759 25.21575 16.76 23.96875 16.75 L 23.21875 16.75 C 22.67475 16.747 20.99 17.513 21 13 C 21.007 8.496 22.67475 9.245 23.21875 9.25 L 23.96875 9.25 C 25.21075 9.252 25.6265 8.242 25.8125 7 L 25.9375 6.25 C 26.1195 5.012 26.02325 4.006 24.78125 4 L 24.09375 4 C 23.96575 3.98875 23.768281 3.9892969 23.53125 4 z M 12.46875 9.75 C 12.3945 9.746375 12.318 9.74525 12.25 9.78125 C 12.114 9.85325 12 10.00325 12 10.15625 L 12 11.625 C 11.091 11.777 9.55525 11.86375 9.40625 11.96875 C 9.18625 12.12375 9.03125 12.582 9.03125 13 C 9.03125 13.419 9.18625 13.9075 9.40625 14.0625 C 9.55525 14.1685 11.09 14.223 12 14.375 L 12 15.8125 C 12 15.9665 12.114 16.1145 12.25 16.1875 C 12.386 16.2605 12.52825 16.2735 12.65625 16.1875 C 14.31225 15.0745 15.78475 13.323 15.84375 13.25 C 15.90475 13.175 15.9375 13.092 15.9375 13 C 15.9375 12.908 15.90475 12.79475 15.84375 12.71875 C 15.78575 12.64475 14.31225 10.9265 12.65625 9.8125 C 12.59225 9.77 12.543 9.753625 12.46875 9.75 z"/>
</svg>