<svg xmlns="http://www.w3.org/2000/svg" width="26" height="26" viewBox="0 0 26 26" style="fill: ;">
    <path d="M 10.5 3 C 9.791 3 9.32075 3.2885 9.09375 3.6875 L 7.8125 6 L 6 6 C 6 5.449 5.551 5 5 5 L 3 5 C 2.449 5 2 5.449 2 6 L 2 6.1875 C 0.837 6.6005 0 7.695 0 9 L 0 19.125 C 0 21.818 2.182 24 4.875 24 L 21.125 24 C 23.818 24 26 21.818 26 19.125 L 26 10.875 C 26 8.182 23.818 6 21.125 6 L 20.1875 6 L 18.90625 3.6875 C 18.68025 3.2885 18.18 3 17.5 3 L 10.5 3 z M 4 6.5 C 4.828 6.5 5.5 7.172 5.5 8 C 5.5 8.828 4.828 9.5 4 9.5 C 3.172 9.5 2.5 8.828 2.5 8 C 2.5 7.172 3.172 6.5 4 6.5 z M 14 6.9375 C 17.9 6.9375 21.0625 10.1 21.0625 14 C 21.0625 17.9 17.9 21.0625 14 21.0625 C 10.1 21.0625 6.9375 17.901 6.9375 14 C 6.9375 10.099 10.1 6.9375 14 6.9375 z M 14 9.1875 C 11.341853 9.1875 9.1875 11.341853 9.1875 14 C 9.1875 16.658147 11.341853 18.8125 14 18.8125 C 16.658147 18.8125 18.8125 16.658147 18.8125 14 C 18.8125 11.341853 16.658147 9.1875 14 9.1875 z"/>
</svg>