<svg xmlns="http://www.w3.org/2000/svg" version="1" width="26" height="26" viewBox="0 0 26 26" style="fill: ;">
    <path style="text-indent:0;text-align:start;line-height:normal;text-transform:none;block-progression:tb;-inkscape-font-specification:Bitstream Vera Sans" d="M 10 0 C 4.5466667 0 0 3.7495935 0 8.5 C 0 10.930151 1.3299368 13.048342 3.21875 14.59375 C 3.0665938 15.575445 2.6681255 16.31159 2.25 16.84375 C 2.0123551 17.146207 1.7982841 17.399307 1.59375 17.625 C 1.4914829 17.737846 1.3953857 17.846049 1.28125 18.03125 C 1.224182 18.12385 1.1353979 18.228475 1.09375 18.4375 C 1.052102 18.646525 1.10874 18.991235 1.28125 19.25 L 1.40625 19.46875 L 1.65625 19.59375 C 2.5314963 20.031373 3.4760586 19.954397 4.34375 19.71875 C 5.2114414 19.483103 6.0454892 19.078095 6.84375 18.65625 C 7.6420108 18.234405 8.4005388 17.791537 9 17.46875 C 9.083571 17.42375 9.1384718 17.41321 9.21875 17.375 C 10.796015 19.54255 13.683558 21 16.90625 21 C 16.937024 21.003904 16.965875 21 17 21 C 18.3 21 22.5 25.29375 25 23.59375 C 25.099657 23.195122 22.802143 22.194804 22.6875 19.21875 C 24.64412 17.836021 25.90625 15.779044 25.90625 13.5 C 25.90625 10.12782 23.231185 7.3417331 19.65625 6.34375 C 18.526691 2.6633216 14.595447 0 10 0 z M 10 2 C 14.546667 2 18 5.0504065 18 8.5 C 18 11.949593 14.546667 15 10 15 C 9.1878205 15 8.7224138 15.332162 8.0625 15.6875 C 7.4025862 16.042838 6.6454892 16.484345 5.90625 16.875 C 5.2667318 17.212957 4.6554362 17.472885 4.09375 17.65625 C 4.6411421 16.866035 5.2123528 15.827135 5.3125 14.375 L 5.34375 13.8125 L 4.875 13.46875 C 3.0930953 12.221417 2 10.423188 2 8.5 C 2 5.0504065 5.4533333 2 10 2 z" color="#000" overflow="visible" enable-background="accumulate" font-family="Bitstream Vera Sans"/>
</svg>