<svg xmlns="http://www.w3.org/2000/svg" width="26" height="26" viewBox="0 0 26 26" style="fill: ;">
    <path d="M 1 0 C 0.449 0 0 0.449 0 1 L 0 4 L 0 15 C 0 16.094255 0.90574531 17 2 17 L 11.53125 17 A 1.0001 1.0001 0 1 0 11.53125 15 L 2 15 L 2 5 L 24 5 L 24 15 L 20.5 15 A 1.0001 1.0001 0 1 0 20.5 17 L 24 17 C 25.094255 17 26 16.094255 26 15 L 26 4 L 26 1 C 26 0.449 25.551 0 25 0 L 1 0 z M 4.21875 7 A 1.0043849 1.0043849 0 0 0 4.5 9 L 12.5 9 A 1.0001 1.0001 0 1 0 12.5 7 L 4.5 7 A 1.0001 1.0001 0 0 0 4.40625 7 A 1.001098 1.001098 0 0 0 4.3125 7 A 1.0043849 1.0043849 0 0 0 4.21875 7 z M 17.21875 7 A 1.0043849 1.0043849 0 0 0 17.5 9 L 21.5 9 A 1.0001 1.0001 0 1 0 21.5 7 L 17.5 7 A 1.0001 1.0001 0 0 0 17.40625 7 A 1.001098 1.001098 0 0 0 17.3125 7 A 1.0043849 1.0043849 0 0 0 17.21875 7 z M 4.21875 10 A 1.0043849 1.0043849 0 0 0 4.5 12 L 12.5 12 A 1.0001 1.0001 0 1 0 12.5 10 L 4.5 10 A 1.0001 1.0001 0 0 0 4.40625 10 A 1.001098 1.001098 0 0 0 4.3125 10 A 1.0043849 1.0043849 0 0 0 4.21875 10 z M 20.84375 10.5 A 0.50005 0.50005 0 0 0 20.65625 10.65625 L 20.09375 11.21875 C 19.039516 11.355595 17.18902 12.53053 16.71875 13 L 11.40625 18.3125 L 13.75 20.65625 L 19.0625 15.34375 C 19.456192 14.950058 20.716088 12.946075 20.8125 11.875 L 21.34375 11.34375 A 0.50005 0.50005 0 0 0 20.90625 10.5 A 0.50005 0.50005 0 0 0 20.84375 10.5 z M 10.46875 19.21875 L 6.625 23.0625 C 6.145 23.5425 5.9175 24.856 6.5625 25.5 C 7.2045 26.144 8.38075 25.99325 8.96875 25.40625 L 12.8125 21.5625 L 10.46875 19.21875 z M 14.9375 20.1875 A 0.80008001 0.80008001 0 0 0 14.46875 20.4375 L 10.4375 24.4375 A 0.80008001 0.80008001 0 1 0 11.5625 25.5625 L 15.59375 21.5625 A 0.80008001 0.80008001 0 0 0 14.9375 20.1875 z"/>
</svg>