<svg xmlns="http://www.w3.org/2000/svg" width="26" height="26" viewBox="0 0 26 26" style="fill: ;">
    <path d="M 4 0 C 1.8 0 0 1.8 0 4 L 0 22 C 0 24.2 1.8 26 4 26 L 15.90625 26 L 13.90625 24 L 4 24 C 2.9 24 2 23.1 2 22 L 2 4 C 2 2.9 2.9 2 4 2 L 11.3125 2 C 12.0125 2.2 12 3.1 12 4 L 12 7 C 12 7.6 12.4 8 13 8 L 16 8 C 17 8 18 8 18 9 L 18 18.8125 L 18.1875 19 L 20 16.3125 L 20 8 C 20 6.9 19.0125 5.8875 17.3125 4.1875 C 17.0125 3.9875 16.8 3.7 16.5 3.5 C 16.3 3.2 16.0125 2.9875 15.8125 2.6875 C 14.1125 0.9875 13.1 5.9211895e-16 12 0 L 4 0 z M 24.125 14 C 23.9625 14.0375 23.7875 14.1625 23.6875 14.3125 L 18.40625 22.09375 L 16 19.59375 C 15.7 19.29375 15.29375 19.29375 15.09375 19.59375 L 14.1875 20.5 C 13.8875 20.8 13.8875 21.20625 14.1875 21.40625 L 17.90625 25.09375 C 18.10625 25.29375 18.3875 25.5 18.6875 25.5 C 18.9875 25.5 19.3 25.3 19.5 25 L 25.90625 15.59375 C 26.10625 15.49375 25.9875 15.0125 25.6875 14.8125 L 24.59375 14.09375 C 24.44375 13.99375 24.2875 13.9625 24.125 14 z"/>
</svg>