<svg xmlns="http://www.w3.org/2000/svg" width="26" height="26" viewBox="0 0 26 26" style="fill: ;">
    <path d="M 24.21875 0.0625 L 19.375 1.3125 L 21.8125 2.75 L 17.96875 3.75 L 15.5 2.34375 L 10.6875 3.59375 L 13.125 5.03125 L 9.25 6.03125 L 6.8125 4.625 L 1.96875 5.875 L 5.625 8.03125 L 24.96875 2.96875 L 24.21875 0.0625 z M 2 8 C 0.8954305 8 0 8.8954305 0 10 C 0 11.104569 0.8954305 12 2 12 C 3.1045695 12 4 11.104569 4 10 C 4 8.8954305 3.1045695 8 2 8 z M 6 11 L 3 14 L 8 14 L 11 11 L 6 11 z M 15 11 L 12 14 L 17 14 L 20 11 L 15 11 z M 24 11 L 21 14 L 26 14 L 26 11 L 24 11 z M 0 15 L 0 23 C 0 24.656 1.343 26 3 26 L 23 26 C 24.657 26 26 24.656 26 23 L 26 15 L 0 15 z"/>
</svg>