<svg xmlns="http://www.w3.org/2000/svg" width="26" height="26" viewBox="0 0 26 26" style="fill: ;">
    <path style="text-indent:0;text-align:start;line-height:normal;text-transform:none;block-progression:tb;-inkscape-font-specification:Bitstream Vera Sans" d="M 13 0 C 11.35503 0 10 1.3550302 10 3 C 10 4.257367 10.820382 5.0915768 11.375 5.53125 C 11.652309 5.7510866 11.879213 5.9383777 11.96875 6.03125 C 11.995611 6.0591117 11.994182 6.0603424 12 6.0625 L 12 6.46875 C 11.14733 6.9777609 3.1088149 11.762712 2.46875 12.15625 C 1.9379648 12.482624 1.3998782 12.779426 0.90625 13.25 C 0.41262178 13.720574 0 14.448528 0 15.28125 C 0 16.098773 0.39308834 16.846166 0.96875 17.3125 C 1.5444117 17.778834 2.2574807 18 3 18 L 4 18 L 4 16 L 3 16 C 2.6385193 16 2.3670883 15.901416 2.21875 15.78125 C 2.0704117 15.661084 2 15.547727 2 15.28125 C 2 14.988972 2.046878 14.910926 2.28125 14.6875 C 2.5156218 14.464074 2.9740352 14.186376 3.53125 13.84375 C 3.965986 13.576456 12.130272 8.679195 13 8.15625 C 13.869738 8.6792012 22.034015 13.576457 22.46875 13.84375 C 23.025965 14.186376 23.484378 14.464074 23.71875 14.6875 C 23.953122 14.910926 24 14.988972 24 15.28125 C 24 15.547727 23.92959 15.661084 23.78125 15.78125 C 23.632912 15.901416 23.361481 16 23 16 L 22 16 L 22 18 L 23 18 C 23.742519 18 24.455588 17.778834 25.03125 17.3125 C 25.606912 16.846166 26 16.098773 26 15.28125 C 26 14.448528 25.587378 13.720574 25.09375 13.25 C 24.600122 12.779426 24.062035 12.482624 23.53125 12.15625 C 22.891185 11.762712 14.85267 6.9777609 14 6.46875 L 14 6 C 14 5.4211338 13.691713 4.9210965 13.40625 4.625 C 13.120787 4.3289035 12.847691 4.1452884 12.625 3.96875 C 12.179618 3.6156732 12 3.497633 12 3 C 12 2.4349698 12.43497 2 13 2 C 13.56503 2 14 2.4349698 14 3 A 1.0001 1.0001 0 1 0 16 3 C 16 1.3550302 14.64497 0 13 0 z M 6 14 C 5.448 14 5 14.448 5 15 L 5 25 C 5 25.552 5.448 26 6 26 L 20 26 C 20.552 26 21 25.552 21 25 L 21 15 C 21 14.448 20.552 14 20 14 L 6 14 z" color="#000" overflow="visible" enable-background="accumulate" font-family="Bitstream Vera Sans"/>
</svg>