<svg xmlns="http://www.w3.org/2000/svg" width="26" height="26" viewBox="0 0 26 26" style="fill: ;">
    <path d="M 12.5 0 C 11.576 0.997 8.951 2.519 9 7 C 8.552 5.975 8.0235 3.69675 8.1875 1.96875 C 8.1875 1.96875 4 3.75725 4 8.40625 C 4 11.889295 7.0192983 14.399494 11 14.90625 L 11 26 L 14 26 C 18.392 25.89 26.8555 23.50525 25.8125 12.03125 C 21.01418 12.74042 15.208392 17.779782 14 20.96875 L 14 14.90625 C 17.980702 14.399656 21 11.890186 21 8.40625 C 21 3.75725 16.8125 1.96875 16.8125 1.96875 C 16.9765 3.69675 16.448 5.975 16 7 C 16.049 2.519 13.424 0.997 12.5 0 z M 0.0625 12.09375 C 0.0625 12.09375 -0.13575 16.24175 0.90625 19.59375 C 2.12425 23.50675 5.628 25.96875 10 25.96875 L 10 20.5625 C 6.78 14.9885 0.0625 12.09375 0.0625 12.09375 z"/>
</svg>