<svg xmlns="http://www.w3.org/2000/svg" viewBox="0 0 26 26" enable-background="new 0 0 26 26" style="fill: ;">
    <path d="M 24.875 0 A 1.0001 1.0001 0 0 0 24.28125 0.28125 L 19.625 4.9375 C 17.42105 3.3463983 14.363638 3.6317919 12.3125 5.59375 C 12.3125 5.6701204 11.457295 6.5035041 10.6875 7.25 L 9.71875 6.28125 A 1.0001 1.0001 0 0 0 8.78125 6 A 1.0001 1.0001 0 0 0 8.28125 7.71875 L 18.28125 17.71875 A 1.016466 1.016466 0 1 0 19.71875 16.28125 L 18.75 15.3125 L 20.40625 13.6875 C 22.366628 11.727122 22.564583 8.6795387 21.03125 6.40625 L 25.71875 1.71875 A 1.0001 1.0001 0 0 0 24.875 0 z M 6.90625 7.96875 A 1.0001 1.0001 0 0 0 6.78125 8 A 1.0001 1.0001 0 0 0 6.28125 9.71875 L 7.25 10.6875 L 5.59375 12.3125 C 3.633372 14.272878 3.4354172 17.320461 4.96875 19.59375 L 0.28125 24.28125 A 1.016466 1.016466 0 1 0 1.71875 25.71875 L 6.375 21.0625 C 8.5789499 22.653602 11.636362 22.368208 13.6875 20.40625 C 13.6875 20.32988 14.542705 19.496496 15.3125 18.75 L 16.28125 19.71875 A 1.016466 1.016466 0 1 0 17.71875 18.28125 L 7.71875 8.28125 A 1.0001 1.0001 0 0 0 6.90625 7.96875 z"/>
</svg>