<svg xmlns="http://www.w3.org/2000/svg" width="26" height="26" viewBox="0 0 26 26" style="fill: ;">
    <path style="text-indent:0;text-align:start;line-height:normal;text-transform:none;block-progression:tb;-inkscape-font-specification:Bitstream Vera Sans" d="M 12.90625 -0.03125 A 1.0001 1.0001 0 0 0 12.78125 0 A 1.0001 1.0001 0 0 0 12 1 L 12 2.0625 C 6.7365774 2.5403164 2.5403164 6.7365774 2.0625 12 L 1 12 A 1.0001 1.0001 0 0 0 0.90625 12 A 1.001098 1.001098 0 0 0 1 14 L 2.0625 14 C 2.5403164 19.263422 6.7365774 23.459684 12 23.9375 L 12 25 A 1.0001 1.0001 0 1 0 14 25 L 14 23.9375 C 19.263422 23.459684 23.459684 19.263422 23.9375 14 L 25 14 A 1.0001 1.0001 0 1 0 25 12 L 23.9375 12 C 23.459684 6.7365774 19.263422 2.5403164 14 2.0625 L 14 1 A 1.0001 1.0001 0 0 0 12.90625 -0.03125 z M 12 5.0625 L 12 6 A 1.0001 1.0001 0 1 0 14 6 L 14 5.0625 C 17.626283 5.5130974 20.486903 8.3737167 20.9375 12 L 20 12 A 1.0001 1.0001 0 0 0 19.90625 12 A 1.001098 1.001098 0 0 0 20 14 L 20.9375 14 C 20.486903 17.626283 17.626283 20.486903 14 20.9375 L 14 20 A 1.0001 1.0001 0 0 0 12.78125 19 A 1.0001 1.0001 0 0 0 12 20 L 12 20.9375 C 8.3737167 20.486903 5.5130974 17.626283 5.0625 14 L 6 14 A 1.0001 1.0001 0 1 0 6 12 L 5.0625 12 C 5.5130974 8.3737167 8.3737167 5.5130974 12 5.0625 z" color="#000" overflow="visible" enable-background="accumulate" font-family="Bitstream Vera Sans"/>
</svg>