<svg xmlns="http://www.w3.org/2000/svg" width="26" height="26" viewBox="0 0 26 26" style="fill: ;">
    <path d="M23.633,5.028c-0.2-0.227-0.481-0.358-0.777-0.366c-2.295-0.06-5.199-2.514-7.119-3.477 c-1.186-0.593-1.968-0.984-2.557-1.087C13.12,0.09,13.06,0.084,13,0.084s-0.12,0.006-0.179,0.015 c-0.589,0.103-1.372,0.494-2.556,1.087C8.344,2.148,5.44,4.603,3.144,4.662C2.849,4.67,2.567,4.802,2.367,5.028 C2.165,5.254,2.061,5.555,2.076,5.862c0.494,10.023,4.088,16.226,10.396,19.831c0.164,0.093,0.346,0.141,0.528,0.141 s0.364-0.048,0.528-0.141c6.308-3.605,9.902-9.808,10.396-19.831C23.939,5.555,23.835,5.254,23.633,5.028z M17.057,16.084 l-0.974,0.973c-0.179,0.179-0.47,0.179-0.649,0L13,14.623l-2.434,2.434c-0.179,0.179-0.47,0.179-0.649-0.002l-0.975-0.971 c-0.178-0.18-0.178-0.471,0-0.65l2.434-2.433l-2.434-2.434c-0.178-0.179-0.178-0.471,0-0.648l0.974-0.974 c0.179-0.181,0.471-0.181,0.649,0L13,11.379l2.434-2.434c0.18-0.181,0.471-0.181,0.648,0l0.975,0.972c0.178,0.18,0.178,0.472,0,0.65 l-2.434,2.434l2.434,2.433C17.234,15.613,17.234,15.904,17.057,16.084z"/>
</svg>