<svg xmlns="http://www.w3.org/2000/svg" width="26" height="26" viewBox="0 0 26 26" style="fill: ;">
    <path d="M 6 0 C 4.896 0 4 0.895 4 2 L 4 5 C 4 5.018 4 5.0445 4 5.0625 C 1.669 6.1225 5.9211895e-16 8.887 0 11.5 C 0 11.5 1.275 13 6 13 C 10.725 13 12 11.5 12 11.5 C 12 8.887 10.331 6.1225 8 5.0625 C 8 5.0445 8 5.018 8 5 L 8 4.8125 L 14.40625 4.1875 C 14.770739 4.6779131 15.34202 5 16 5 C 16.138071 5 16.276055 4.9953918 16.40625 4.96875 L 22.09375 11.375 C 22.029574 11.571013 22 11.782538 22 12 C 22 12.315717 22.088467 12.609481 22.21875 12.875 L 16.40625 23 L 12 23 C 10.896 23 10 23.895 10 25 L 10 26 L 24 26 L 24 25 C 24 23.895 23.104 23 22 23 L 18.71875 23 L 23.875 14 C 23.916584 14.00258 23.957766 14 24 14 C 25.104569 14 26 13.104569 26 12 C 26 10.895431 25.104569 10 24 10 C 23.861929 10 23.723945 10.004608 23.59375 10.03125 L 17.90625 3.625 C 17.970426 3.4289872 18 3.2174621 18 3 C 18 1.8954305 17.104569 1 16 1 C 15.196197 1 14.50533 1.4723573 14.1875 2.15625 L 8 2.78125 L 8 2 C 8 0.895 7.104 0 6 0 z"/>
</svg>