<svg xmlns="http://www.w3.org/2000/svg" viewBox="0 0 26 26" enable-background="new 0 0 26 26" style="fill: ;">
    <path style="text-indent:0;text-align:start;line-height:normal;text-transform:none;block-progression:tb;-inkscape-font-specification:Bitstream Vera Sans" d="M 24.875 0 A 1.0001 1.0001 0 0 0 24.28125 0.28125 L 22.625 1.9375 C 20.42105 0.3463983 17.363638 0.63179191 15.3125 2.59375 C 15.3125 2.6701204 14.457295 3.5035041 13.6875 4.25 L 12.71875 3.28125 A 1.0001 1.0001 0 0 0 11.90625 2.96875 A 1.0001 1.0001 0 0 0 11.78125 3 A 1.0001 1.0001 0 0 0 11.28125 4.71875 L 13.5625 7 L 10.28125 10.28125 A 1.016466 1.016466 0 1 0 11.71875 11.71875 L 15 8.4375 L 17.5625 11 L 14.28125 14.28125 A 1.016466 1.016466 0 1 0 15.71875 15.71875 L 19 12.4375 L 21.28125 14.71875 A 1.016466 1.016466 0 1 0 22.71875 13.28125 L 21.75 12.3125 L 23.40625 10.6875 C 25.366628 8.727122 25.564583 5.6795387 24.03125 3.40625 L 25.71875 1.71875 A 1.0001 1.0001 0 0 0 24.875 0 z M 3.90625 10.96875 A 1.0001 1.0001 0 0 0 3.78125 11 A 1.0001 1.0001 0 0 0 3.28125 12.71875 L 4.25 13.6875 L 2.59375 15.3125 C 0.63337202 17.272878 0.43541722 20.320461 1.96875 22.59375 L 0.28125 24.28125 A 1.016466 1.016466 0 1 0 1.71875 25.71875 L 3.375 24.0625 C 5.5789499 25.653602 8.636362 25.368208 10.6875 23.40625 C 10.6875 23.32988 11.542705 22.496496 12.3125 21.75 L 13.28125 22.71875 A 1.016466 1.016466 0 1 0 14.71875 21.28125 L 4.71875 11.28125 A 1.0001 1.0001 0 0 0 3.90625 10.96875 z"/>
</svg>