<svg xmlns="http://www.w3.org/2000/svg" width="26" height="26" viewBox="0 0 26 26" style="fill: ;">
    <path d="M 2 2 C 0.896 2 0 2.896 0 4 C 0 4.738 1.15625 6.057 1.15625 7 C 1.15625 7.943 0 10.921 0 13 C 0 15.079 1.15625 17.991 1.15625 19 C 1.15625 20.009 0 21.262 0 22 C 0 23.104 0.896 24 2 24 C 2.738 24 5.124 22.875 6.5 22.875 C 7.876 22.875 8.396 24 9.5 24 C 10.604 24 11.631 22.875 13 22.875 C 14.369 22.875 14.896 24 16 24 C 17.104 24 18.563 22.875 19.5 22.875 C 20.437 22.875 23.262 24 24 24 C 25.104 24 26 23.104 26 22 C 26 21.262 24.84375 19.943 24.84375 19 C 24.84375 18.057 26 14.95 26 13 C 26 11.05 24.84375 8.009 24.84375 7 C 24.84375 5.991 26 4.738 26 4 C 26 2.896 25.104 2 24 2 C 23.262 2 20.876 3.15625 19.5 3.15625 C 18.124 3.15625 17.604 2 16.5 2 C 15.396 2 14.369 3.15625 13 3.15625 C 11.631 3.15625 11.104 2 10 2 C 8.896 2 7.438 3.15625 6.5 3.15625 C 5.562 3.15625 2.738 2 2 2 z M 4 5 L 22 5 C 22.551 5 23 5.449 23 6 L 23 20 C 23 20.551 22.551 21 22 21 L 4 21 C 3.449 21 3 20.551 3 20 L 3 6 C 3 5.449 3.449 5 4 5 z M 16.28125 7.125 C 16.006875 7.1235 15.73925 7.229 15.53125 7.4375 L 14.625 8.34375 L 17.65625 11.375 L 18.5625 10.46875 C 18.9795 10.05275 18.9835 9.38975 18.5625 8.96875 L 17.03125 7.4375 C 16.82075 7.227 16.555625 7.1265 16.28125 7.125 z M 13.5625 9.25 L 12.3125 10.53125 L 8.375 14.4375 A 0.45004499 0.45004499 0 0 0 8.125 14.75 L 7.0625 18.375 A 0.45004499 0.45004499 0 0 0 7.625 18.9375 L 11.25 17.875 A 0.45500687 0.45500687 0 0 0 11.53125 17.65625 L 15.71875 13.5 L 16.75 12.4375 L 13.5625 9.25 z M 8.9375 15.1875 L 10.125 15.84375 L 10.8125 17.0625 L 8.78125 17.65625 L 8.34375 17.21875 L 8.9375 15.1875 z"/>
</svg>