<svg xmlns="http://www.w3.org/2000/svg" width="26" height="26" viewBox="0 0 26 26" style="fill: ;">
    <path style="text-indent:0;text-align:start;line-height:normal;text-transform:none;block-progression:tb;-inkscape-font-specification:Bitstream Vera Sans" d="M 20.09375 0.25 C 19.49925 0.246875 18.91975 0.45525 18.46875 0.90625 L 17.46875 1.9375 L 24.0625 8.5625 L 25.0625 7.53125 C 25.9645 6.62925 25.9745 5.163 25.0625 4.25 L 21.75 0.9375 C 21.294 0.481 20.68825 0.253125 20.09375 0.25 z M 16.34375 2.84375 L 14.78125 4.34375 L 21.65625 11.21875 L 23.25 9.75 L 16.34375 2.84375 z M 13.78125 5.4375 L 2.96875 16.15625 A 0.97509752 0.97509752 0 0 0 2.46875 16.78125 L 0.15625 24.625 A 0.97509752 0.97509752 0 0 0 1.375 25.84375 L 9.21875 23.53125 A 0.97509752 0.97509752 0 0 0 10 22.875 L 20.65625 12.3125 L 19.1875 10.84375 L 8.25 21.8125 L 3.84375 23.09375 L 2.90625 22.15625 L 4.25 17.5625 L 15.09375 6.75 L 13.78125 5.4375 z M 16.15625 7.84375 L 5.1875 18.84375 L 6.78125 19.1875 L 7 20.65625 L 18 9.6875 L 16.15625 7.84375 z" color="#000" overflow="visible" enable-background="accumulate" font-family="Bitstream Vera Sans"/>
</svg>