<svg xmlns="http://www.w3.org/2000/svg" width="26" height="26" viewBox="0 0 26 26" style="fill: ;">
    <path d="M 13 4.0625 C 12.515 4.0625 12.23975 4.33325 11.84375 4.78125 L 5.25 13.09375 C 5.047 13.49675 5.0795 13.991 5.3125 14.375 C 5.5445 14.761 5.96225 15 6.40625 15 L 19.59375 15 C 20.03675 15 20.4545 14.761 20.6875 14.375 C 20.8135 14.167 20.875 13.9265 20.875 13.6875 C 20.875 13.4865 20.842 13.27875 20.75 13.09375 L 14.15625 4.78125 C 13.78025 4.38125 13.485 4.0625 13 4.0625 z M 6 17 C 5.449 17 5 17.449 5 18 L 5 21 C 5 21.551 5.449 22 6 22 L 20 22 C 20.551 22 21 21.551 21 21 L 21 18 C 21 17.449 20.551 17 20 17 L 6 17 z"/>
</svg>