<svg xmlns="http://www.w3.org/2000/svg" width="26" height="26" viewBox="0 0 26 26" style="fill: ;">
    <path style="text-indent:0;text-align:start;line-height:normal;text-transform:none;block-progression:tb;-inkscape-font-specification:Bitstream Vera Sans" d="M 0.8125 0 A 1.0001 1.0001 0 0 0 0 1 L 0 4 A 1.0001 1.0001 0 1 0 2 4 L 2 2 L 4 2 A 1.0001 1.0001 0 1 0 4 0 L 1 0 A 1.0001 1.0001 0 0 0 0.90625 0 A 1.0001 1.0001 0 0 0 0.8125 0 z M 21.71875 0 A 1.0043849 1.0043849 0 0 0 22 2 L 24 2 L 24 4 A 1.0001 1.0001 0 1 0 26 4 L 26 1 A 1.0001 1.0001 0 0 0 25 0 L 22 0 A 1.0001 1.0001 0 0 0 21.90625 0 A 1.001098 1.001098 0 0 0 21.8125 0 A 1.0043849 1.0043849 0 0 0 21.71875 0 z M 13 1 C 4.8012335 1 3.8508051 9.0080764 4.03125 12.8125 C 3.4130873 13.254377 3 13.968854 3 15 L 1 15 A 1.0001 1.0001 0 0 0 0.90625 15 A 1.001098 1.001098 0 0 0 0.8125 15 A 1.0043849 1.0043849 0 0 0 1 17 L 25 17 A 1.0001 1.0001 0 1 0 25 15 L 23 15 C 23 14.017845 22.623619 13.253509 21.96875 12.78125 C 22.142264 8.9637881 21.175825 1 13 1 z M 10 8 C 10 11.16 19 9.827 19 12 L 19 14.375 L 20.125 14.25 C 20.14 14.249 20.16475 14.25 20.21875 14.25 C 20.92975 14.25 21 14.594 21 15 L 17.90625 15 C 17.959892 14.845681 18 14.672589 18 14.5 C 18 13.671573 17.328427 13 16.5 13 C 15.671573 13 15 13.671573 15 14.5 C 15 14.672589 15.040108 14.845681 15.09375 15 L 10.90625 15 C 10.959892 14.845681 11 14.672589 11 14.5 C 11 13.671573 10.328427 13 9.5 13 C 8.6715729 13 8 13.671573 8 14.5 C 8 14.672589 8.040108 14.845681 8.09375 15 L 5 15 C 5 14.725 5.00325 14.25 5.90625 14.25 L 7 14.375 L 7 12 C 7 9.277 8.824 10.885 10 8 z M 5.125 18 C 7.065 22.639 9.719 25 13 25 C 16.282 25 18.936 22.64 20.875 18 L 18.6875 18 C 17.1465 21.315 15.233 23 13 23 C 10.767 23 8.8545 21.315 7.3125 18 L 5.125 18 z M 0.90625 20.96875 A 1.0001 1.0001 0 0 0 0.78125 21 A 1.0001 1.0001 0 0 0 0 22 L 0 25 A 1.0001 1.0001 0 0 0 1 26 L 4 26 A 1.0001 1.0001 0 1 0 4 24 L 2 24 L 2 22 A 1.0001 1.0001 0 0 0 0.90625 20.96875 z M 24.90625 20.96875 A 1.0001 1.0001 0 0 0 24.78125 21 A 1.0001 1.0001 0 0 0 24 22 L 24 24 L 22 24 A 1.0001 1.0001 0 1 0 22 26 L 25 26 A 1.0001 1.0001 0 0 0 26 25 L 26 22 A 1.0001 1.0001 0 0 0 24.90625 20.96875 z"/>
</svg>