<svg xmlns="http://www.w3.org/2000/svg" width="26" height="26" viewBox="0 0 26 26" style="fill: ;">
    <path d="M 13 0.1875 C 7.582 0.1875 3.1875 4.581 3.1875 10 C 3.1875 15.417 7.583 19.8115 13 19.8125 C 18.416 19.8115 22.8125 15.417 22.8125 10 C 22.8135 4.579 18.414 0.1875 13 0.1875 z M 13 1.3125 C 17.794 1.3125 21.6875 5.203 21.6875 10 C 21.6875 14.796 17.796 18.6865 13 18.6875 C 8.203 18.6865 4.3125 14.796 4.3125 10 C 4.3125 5.203 8.201 1.3125 13 1.3125 z M 10.53125 2.96875 C 9.35525 3.08375 8.18225 4.59875 8.90625 5.96875 C 9.58525 7.25275 11.0025 7.12975 11.4375 8.59375 C 11.8425 8.03775 12.643 7.4095 14 8.0625 C 14.878 4.8115 13.02525 2.73075 10.53125 2.96875 z M 18.5625 8.46875 C 17.1125 8.41375 16.485 9.69775 15 9.34375 C 15.277 9.97075 15.4325 10.99475 14.1875 11.84375 C 16.5635 14.22875 19.2715 13.654 20.3125 11.375 C 20.8015 10.3 20.1115 8.52475 18.5625 8.46875 z M 12.75 8.71875 C 12.159435 8.8395972 11.71875 9.3737091 11.71875 10 C 11.71875 10.715761 12.284239 11.28125 13 11.28125 C 13.715761 11.28125 14.28125 10.715761 14.28125 10 C 14.28125 9.284239 13.715761 8.71875 13 8.71875 C 12.91053 8.71875 12.834366 8.7014861 12.75 8.71875 z M 10.8125 10.09375 C 7.5575 10.95875 6.70225 13.61525 8.15625 15.65625 C 8.84225 16.61725 10.7385 16.8755 11.5625 15.5625 C 12.3345 14.3335 11.5125 13.1715 12.5625 12.0625 C 11.8805 11.9885 10.9245 11.59575 10.8125 10.09375 z M 11 21 C 11 23.001 7 23.344 7 25 L 7 26 L 19 26 L 19 25 C 19 23.344 15 23.001 15 21 C 15 21 14.621 21.3125 13 21.3125 C 11.379 21.3125 11 21 11 21 z"/>
</svg>