<svg xmlns="http://www.w3.org/2000/svg" width="26" height="26" viewBox="0 0 26 26" style="fill: ;">
    <path d="M 5.25 5.125 C 5.031375 5.13425 4.817 5.196 4.625 5.3125 C 4.239 5.5445 4 5.96225 4 6.40625 L 4 19.59375 C 4 20.03675 4.239 20.4545 4.625 20.6875 C 4.833 20.8135 5.0735 20.875 5.3125 20.875 C 5.5135 20.875 5.72125 20.842 5.90625 20.75 L 12 15.90625 L 12 19.59375 C 12 20.03675 12.239 20.4545 12.625 20.6875 C 12.833 20.8135 13.0735 20.875 13.3125 20.875 C 13.5135 20.875 13.72125 20.842 13.90625 20.75 L 22.21875 14.15625 C 22.61875 13.78025 22.9375 13.485 22.9375 13 C 22.9375 12.515 22.66675 12.23975 22.21875 11.84375 L 13.90625 5.25 C 13.50325 5.047 13.009 5.0795 12.625 5.3125 C 12.239 5.5445 12 5.96225 12 6.40625 L 12 10.09375 L 5.90625 5.25 C 5.70475 5.1485 5.468625 5.11575 5.25 5.125 z"/>
</svg>