<svg xmlns="http://www.w3.org/2000/svg" width="26" height="26" viewBox="0 0 26 26" style="fill: ;">
    <path style="text-indent:0;text-align:start;line-height:normal;text-transform:none;block-progression:tb;-inkscape-font-specification:Bitstream Vera Sans" d="M 0.8125 0 A 1.0001 1.0001 0 0 0 0 1 L 0 4 A 1.0001 1.0001 0 1 0 2 4 L 2 2 L 4 2 A 1.0001 1.0001 0 1 0 4 0 L 1 0 A 1.0001 1.0001 0 0 0 0.90625 0 A 1.0001 1.0001 0 0 0 0.8125 0 z M 21.71875 0 A 1.0043849 1.0043849 0 0 0 22 2 L 24 2 L 24 4 A 1.0001 1.0001 0 1 0 26 4 L 26 1 A 1.0001 1.0001 0 0 0 25 0 L 22 0 A 1.0001 1.0001 0 0 0 21.90625 0 A 1.001098 1.001098 0 0 0 21.8125 0 A 1.0043849 1.0043849 0 0 0 21.71875 0 z M 13.5 2.3125 C 11.964602 2.3700035 9.5932797 2.7027613 7.34375 4.375 C 3.4386715 7.2790647 3.125 12.3125 3.125 12.3125 A 1.0030471 1.0030471 0 1 0 5.125 12.46875 C 5.125 12.46875 5.5235785 8.2599353 8.5625 6 C 10.995127 4.1916516 13.392092 4.3125 14.71875 4.3125 A 1.0001 1.0001 0 1 0 14.71875 2.3125 C 14.426915 2.3125 14.011799 2.2933322 13.5 2.3125 z M 14.15625 5.59375 C 12.968926 5.6029785 11.708125 5.95625 10.4375 6.65625 C 8.5665 7.68725 7.34 9.29675 6.875 11.34375 C 6.6046882 12.534394 6.6486885 13.795691 6.84375 15 L 1 15 A 1.0001 1.0001 0 0 0 0.90625 15 A 1.001098 1.001098 0 0 0 0.8125 15 A 1.0043849 1.0043849 0 0 0 1 17 L 7.3125 17 L 9.4375 17 L 25 17 A 1.0001 1.0001 0 1 0 25 15 L 20 15 C 19.216745 14.239867 18.672904 13.184442 18.15625 12.15625 C 17.20125 10.25725 15.89675 7.65775 12.59375 9.09375 C 11.52175 9.56075 10.75775 10.381 10.34375 11.5 C 9.9244947 12.634997 9.9261496 13.891648 10.15625 15 L 8.875 15 C 8.6656571 13.925153 8.6129695 12.798506 8.84375 11.78125 C 9.18375 10.28625 10.03125 9.16425 11.40625 8.40625 C 12.93425 7.56425 14.3125 7.3615 15.5625 7.8125 C 17.9125 8.6615 19.467 11.6215 20.375 13.9375 C 20.577 14.4525 21.1745 14.699 21.6875 14.5 C 22.2015 14.298 22.453 13.7015 22.25 13.1875 C 21.191 10.4865 19.27275 7.0405 16.21875 5.9375 C 15.543375 5.693375 14.868645 5.5882129 14.15625 5.59375 z M 14.3125 10.65625 C 15.080969 10.634453 15.51625 11.3235 16.375 13.03125 C 16.68728 13.65298 17.039874 14.343133 17.46875 15 L 15.6875 15 C 15.029204 13.93283 15.000632 13.081497 15 13 C 15.008 12.453 14.58025 12.015 14.03125 12 C 13.47225 11.963 13.014 12.41675 13 12.96875 C 12.998702 13.045985 13.008119 13.880356 13.46875 15 L 12.21875 15 C 11.934781 13.998609 11.9315 12.966 12.21875 12.1875 C 12.44575 11.5745 12.82925 11.15725 13.40625 10.90625 C 13.7615 10.75175 14.056344 10.663516 14.3125 10.65625 z M 7.6875 18 C 8.0115 18.751 8.38825 19.41775 8.78125 19.96875 C 10.38225 22.20975 11.9085 23.4255 14.5625 24.5625 C 14.6905 24.6175 14.8055 24.625 14.9375 24.625 C 15.3255 24.625 15.713 24.40925 15.875 24.03125 C 16.092 23.52325 15.85175 22.93575 15.34375 22.71875 C 13.01375 21.71975 11.80225 20.7655 10.40625 18.8125 C 10.23025 18.5655 10.06625 18.295 9.90625 18 L 7.6875 18 z M 11.40625 18 C 13.27725 21.052 16.10175 22.78125 19.34375 22.78125 C 19.42275 22.78125 19.51475 22.78325 19.59375 22.78125 C 20.14675 22.76725 20.5755 22.302 20.5625 21.75 C 20.5485 21.206 20.1035 20.78125 19.5625 20.78125 L 19.53125 20.78125 C 19.47125 20.78225 19.434 20.78125 19.375 20.78125 C 17.24 20.78125 15.29575 19.787 13.84375 18 L 11.40625 18 z M 15.65625 18 C 16.50225 18.745 17.62375 19.46275 19.09375 20.09375 C 19.22275 20.14875 19.33675 20.1875 19.46875 20.1875 C 19.85675 20.1875 20.24325 19.97275 20.40625 19.59375 C 20.62425 19.08575 20.382 18.49825 19.875 18.28125 C 19.672 18.19325 19.4975 18.09 19.3125 18 L 15.65625 18 z M 0.90625 20.96875 A 1.0001 1.0001 0 0 0 0.78125 21 A 1.0001 1.0001 0 0 0 0 22 L 0 25 A 1.0001 1.0001 0 0 0 1 26 L 4 26 A 1.0001 1.0001 0 1 0 4 24 L 2 24 L 2 22 A 1.0001 1.0001 0 0 0 0.90625 20.96875 z M 24.90625 20.96875 A 1.0001 1.0001 0 0 0 24.78125 21 A 1.0001 1.0001 0 0 0 24 22 L 24 24 L 22 24 A 1.0001 1.0001 0 1 0 22 26 L 25 26 A 1.0001 1.0001 0 0 0 26 25 L 26 22 A 1.0001 1.0001 0 0 0 24.90625 20.96875 z"/>
</svg>