<svg xmlns="http://www.w3.org/2000/svg" width="26" height="26" viewBox="0 0 26 26" style="fill: ;">
    <path style="text-indent:0;text-align:start;line-height:normal;text-transform:none;block-progression:tb;-inkscape-font-specification:Bitstream Vera Sans" d="M 13 0 C 11.062759 0 9.5720224 0.50832973 8.5 1.34375 C 7.4279776 2.1791703 6.812189 3.3026815 6.375 4.34375 C 5.937811 5.3848185 5.657827 6.3789009 5.375 7.09375 C 5.092173 7.8085991 4.8575293 8.0849569 4.65625 8.15625 C 1.9037645 9.1303109 0 11.519782 0 14.65625 A 1.0001 1.0001 0 0 0 0.9375 15.65625 C 2.1952765 15.72267 2.8004255 16.018336 3.125 16.3125 C 3.4495745 16.606664 3.5985668 16.996618 3.6875 17.53125 C 3.776433 18.065882 3.784581 18.692276 3.90625 19.375 C 3.967085 19.716362 4.0495614 20.077444 4.28125 20.4375 C 4.5129386 20.797556 4.9222728 21.130267 5.375 21.28125 C 6.4352288 21.63466 7.1119984 21.853725 7.53125 22.09375 C 7.9505016 22.333775 8.199668 22.5472 8.53125 23.25 C 8.8467244 23.918492 9.2753329 24.650139 10.03125 25.1875 C 10.787167 25.724861 11.810661 26.016421 13.09375 26 C 15.195485 25.97354 16.448925 24.887148 17.09375 23.9375 C 17.416162 23.462676 17.642779 23.05026 17.84375 22.78125 C 18.044721 22.51224 18.16345 22.407433 18.375 22.34375 C 19.743263 21.931979 20.611468 21.19461 21.09375 20.375 C 21.576032 19.55539 21.703115 18.773331 21.84375 18.21875 C 21.984385 17.664169 22.070273 17.422002 22.375 17.21875 C 22.679727 17.015498 23.40602 16.792956 24.9375 16.875 A 1.0001 1.0001 0 0 0 26 15.875 C 26.000499 14.496297 26.0201 12.896217 25.40625 11.40625 C 24.792405 9.9162833 23.433733 8.6418756 21.15625 8.125 C 21.131623 8.1194039 21.104224 8.1344282 21 8 C 20.895776 7.8655718 20.764704 7.5996677 20.625 7.25 C 20.345592 6.5506645 20.043989 5.5285649 19.59375 4.46875 C 19.143511 3.4089351 18.502866 2.2708416 17.4375 1.40625 C 16.372134 0.54165839 14.904741 0 13 0 z M 13 2 C 14.537759 2 15.481397 2.3957166 16.1875 2.96875 C 16.893603 3.5417834 17.367364 4.3493149 17.75 5.25 C 18.132636 6.1506851 18.402689 7.1307105 18.75 8 C 18.923655 8.4346448 19.111321 8.8383501 19.40625 9.21875 C 19.701179 9.5991499 20.166877 9.9683461 20.71875 10.09375 C 22.530267 10.504874 23.162345 11.216217 23.5625 12.1875 C 23.860746 12.911422 23.848167 13.940205 23.875 14.9375 C 22.806863 14.98785 21.913108 15.141053 21.28125 15.5625 C 20.418383 16.138029 20.08149 17.027706 19.90625 17.71875 C 19.73101 18.409794 19.613562 18.969578 19.375 19.375 C 19.136438 19.780422 18.795487 20.132271 17.78125 20.4375 C 17.0693 20.651817 16.556748 21.141322 16.21875 21.59375 C 15.880752 22.046178 15.676463 22.491824 15.4375 22.84375 C 14.959575 23.547602 14.614765 23.980459 13.0625 24 C 12.079589 24.01258 11.551333 23.821139 11.1875 23.5625 C 10.823667 23.303861 10.591276 22.930758 10.34375 22.40625 C 9.897332 21.46005 9.2704984 20.766975 8.53125 20.34375 C 7.7920016 19.920525 7.0217712 19.71559 6 19.375 C 5.944477 19.35648 5.986319 19.4023 5.96875 19.375 C 5.9511808 19.347697 5.9103216 19.22945 5.875 19.03125 C 5.8043568 18.634849 5.7825668 17.946868 5.65625 17.1875 C 5.5299332 16.428132 5.229488 15.533211 4.46875 14.84375 C 3.9039379 14.331858 3.0823704 14.024944 2.09375 13.84375 C 2.3533261 11.94945 3.4625031 10.685934 5.3125 10.03125 C 6.3732207 9.6555431 6.8984832 8.7322134 7.25 7.84375 C 7.6015168 6.9552866 7.852064 5.9669315 8.21875 5.09375 C 8.585436 4.2205685 9.0514287 3.4818922 9.75 2.9375 C 10.448571 2.3931078 11.402741 2 13 2 z M 10.5 6 C 9.6715729 6 9 6.8954305 9 8 C 9 9.1045695 9.6715729 10 10.5 10 C 11.328427 10 12 9.1045695 12 8 C 12 6.8954305 11.328427 6 10.5 6 z M 14.5 6 C 13.671573 6 13 6.8954305 13 8 C 13 9.1045695 13.671573 10 14.5 10 C 15.328427 10 16 9.1045695 16 8 C 16 6.8954305 15.328427 6 14.5 6 z" color="#000" overflow="visible" enable-background="accumulate" font-family="Bitstream Vera Sans"/>
</svg>