<svg xmlns="http://www.w3.org/2000/svg" width="26" height="26" viewBox="0 0 26 26" style="fill: ;">
    <path style="text-indent:0;text-align:start;line-height:normal;text-transform:none;block-progression:tb;-inkscape-font-specification:Bitstream Vera Sans" d="M 7.96875 0.15625 A 1.0001 1.0001 0 0 0 7.53125 0.34375 C 4.3212815 2.4513161 2.1875 6.0682531 2.1875 10.1875 C 2.1875 16.358968 6.9554323 21.431066 13 21.9375 L 13 23.125 C 10.986634 23.356385 9.53125 24.1875 9.53125 24.1875 A 0.94309432 0.94309432 0 0 0 10 25.9375 L 18 25.9375 A 0.94309432 0.94309432 0 0 0 18.46875 24.1875 C 18.46875 24.1875 17.013366 23.356385 15 23.125 L 15 21.96875 C 17.002683 21.797583 18.87666 21.111087 20.46875 20.0625 A 1.0001 1.0001 0 1 0 19.375 18.40625 C 17.882072 19.389526 16.106664 19.965148 14.1875 20 A 1.0001 1.0001 0 0 0 13.8125 20 C 8.4754646 19.899209 4.1875 15.548913 4.1875 10.1875 C 4.1875 6.7527469 5.9589685 3.7504339 8.625 2 A 1.0001 1.0001 0 0 0 7.96875 0.15625 z M 14 1.1875 C 12.393438 1.1875 10.893667 1.617436 9.59375 2.375 C 9.4652286 2.432588 9.3410054 2.5151053 9.21875 2.59375 C 9.0571811 2.6976843 8.9140825 2.8087123 8.78125 2.9375 C 6.6158819 4.54635 5.1875 7.1079765 5.1875 10 C 5.1875 11.712774 5.6785976 13.300396 6.53125 14.65625 A 0.80176198 0.80176198 0 0 0 6.65625 14.84375 C 8.2380463 17.221351 10.943267 18.8125 14 18.8125 C 15.762953 18.8125 17.400636 18.305395 18.78125 17.40625 C 18.826612 17.37707 18.863198 17.343722 18.90625 17.3125 C 21.25119 15.725471 22.8125 13.031644 22.8125 10 C 22.8125 8.3277871 22.34705 6.7725512 21.53125 5.4375 A 0.80008001 0.80008001 0 0 0 21.3125 5.09375 C 21.304493 5.0819191 21.289313 5.0742902 21.28125 5.0625 A 0.80008001 0.80008001 0 0 0 21.21875 5 C 19.623193 2.7144933 16.985757 1.1875 14 1.1875 z M 14 2.8125 C 14.656327 2.8125 15.303247 2.8996814 15.90625 3.0625 L 14.8125 3.78125 C 14.451742 3.5008953 14.082724 3.2472118 13.71875 3.03125 C 13.602227 2.962112 13.492859 2.9064393 13.375 2.84375 C 13.578072 2.8267102 13.792328 2.8125 14 2.8125 z M 10.90625 3.71875 C 11.44264 3.7093327 12.123751 3.9107089 12.90625 4.375 C 13.054627 4.4630386 13.223671 4.5819025 13.375 4.6875 L 9.4375 7.21875 C 9.4044949 7.0386331 9.3622113 6.8577887 9.34375 6.6875 C 9.1868435 5.2401809 9.559666 4.3011694 10.125 3.9375 C 10.13267 3.932611 10.14856 3.9423606 10.15625 3.9375 C 10.364258 3.8111046 10.597363 3.7241731 10.90625 3.71875 z M 17.65625 3.84375 A 0.80008001 0.80008001 0 0 0 17.6875 3.84375 C 18.415809 4.2782935 19.063451 4.8128102 19.59375 5.46875 L 17.59375 6.75 C 17.105465 6.0657847 16.605125 5.4231535 16.0625 4.875 L 17.65625 3.84375 z M 14.65625 5.78125 C 15.193559 6.3099956 15.722045 6.9332503 16.21875 7.625 L 10.9375 11.03125 C 10.51276 10.29262 10.165992 9.5522818 9.90625 8.84375 L 14.65625 5.78125 z M 7.75 6.4375 C 7.758208 6.5732097 7.7663728 6.7065212 7.78125 6.84375 C 7.8260803 7.2572673 7.9285332 7.6884513 8.03125 8.125 L 6.90625 8.84375 C 7.0433313 7.9770672 7.3344224 7.1700822 7.75 6.4375 z M 20.4375 6.8125 C 20.798092 7.5453096 21.063335 8.337494 21.15625 9.1875 A 0.80008001 0.80008001 0 0 0 21.09375 9.25 L 19.5 10.28125 C 19.229579 9.5619589 18.884991 8.8206617 18.46875 8.09375 L 20.4375 6.8125 z M 17.09375 8.96875 C 17.519338 9.7121102 17.866697 10.444329 18.125 11.15625 L 13.34375 14.21875 C 12.806441 13.690004 12.277955 13.06675 11.78125 12.375 L 17.09375 8.96875 z M 8.5 9.71875 C 8.7735546 10.441997 9.141633 11.17578 9.5625 11.90625 L 7.5625 13.1875 C 7.1975796 12.445894 6.9342136 11.642568 6.84375 10.78125 L 8.5 9.71875 z M 21.09375 11.15625 C 20.956669 12.022933 20.665578 12.829918 20.25 13.5625 C 20.24173 13.416545 20.234767 13.272746 20.21875 13.125 C 20.175168 12.722994 20.098291 12.29888 20 11.875 L 21.09375 11.15625 z M 18.5625 12.78125 C 18.594281 12.956451 18.638269 13.14664 18.65625 13.3125 C 18.813157 14.759819 18.440335 15.667581 17.875 16.03125 C 17.309666 16.39492 16.345749 16.367865 15.09375 15.625 C 14.945373 15.536961 14.776329 15.418098 14.625 15.3125 L 18.5625 12.78125 z M 10.40625 13.25 C 10.89945 13.938819 11.420701 14.574801 11.96875 15.125 L 10.3125 16.1875 C 9.5858624 15.756131 8.93682 15.214085 8.40625 14.5625 L 10.40625 13.25 z M 13.21875 16.21875 C 13.567925 16.487949 13.929184 16.728604 14.28125 16.9375 C 14.418548 17.018965 14.548402 17.083812 14.6875 17.15625 C 14.464709 17.176819 14.228396 17.1875 14 17.1875 C 13.343673 17.1875 12.696753 17.100319 12.09375 16.9375 L 13.21875 16.21875 z"/>
</svg>