<svg xmlns="http://www.w3.org/2000/svg" width="26" height="26" viewBox="0 0 26 26" style="fill: ;">
    <path d="M 13.8125 0 A 1.001098 1.001098 0 0 0 14 2 C 18.441801 2 22 5.5134221 22 10 A 1.0001 1.0001 0 1 0 24 10 C 24 4.4445779 19.508199 0 14 0 A 1.0001 1.0001 0 0 0 13.90625 0 A 1.001098 1.001098 0 0 0 13.8125 0 z M 13.8125 4 A 1.001098 1.001098 0 0 0 14 6 C 15.594437 6 16.52986 6.3412351 17.09375 6.90625 C 17.65764 7.4712649 18 8.4113634 18 10 A 1.0001 1.0001 0 1 0 20 10 C 20 8.1196366 19.56561 6.5677351 18.5 5.5 C 17.43439 4.4322649 15.887563 4 14 4 A 1.0001 1.0001 0 0 0 13.90625 4 A 1.001098 1.001098 0 0 0 13.8125 4 z M 6.71875 5.125 C 5.8096973 5.1195859 5.04 5.36625 4.5 5.90625 C 2.638 7.76825 -0.143 13.38725 5.25 18.78125 C 10.183 23.71525 16.262 21.39325 18.125 19.53125 C 19.61 18.04625 18.9325 14.86375 16.6875 11.71875 C 16.2655 12.05975 15.766 13.19975 16 13.59375 C 17.111 15.46775 17.43125 17.13225 16.65625 17.90625 C 15.46325 19.09925 12.12875 17.7225 9.21875 14.8125 C 6.30675 11.9015 4.93 8.57 6.125 7.375 C 6.855 6.644 8.376 6.87575 10.125 7.84375 C 10.534 8.06975 11.69725 7.58325 12.03125 7.15625 C 10.121875 5.8525 8.2338379 5.1340234 6.71875 5.125 z M 14 8 C 13.112893 8 12.355549 8.5753923 12.09375 9.375 L 9.40625 9.6875 A 0.82758274 0.82758274 0 1 0 9.59375 11.3125 L 12.28125 11.03125 C 12.451233 11.315514 12.684486 11.548767 12.96875 11.71875 L 12.6875 14.40625 A 0.82758274 0.82758274 0 1 0 14.3125 14.59375 L 14.625 11.90625 C 15.424608 11.644451 16 10.887107 16 10 C 16 8.8954305 15.104569 8 14 8 z M 7.0625 22.0625 C 5.3685 22.8385 4.21875 24.31 4.21875 26 L 15.90625 26 C 15.90625 24.956 15.14775 23.73675 14.21875 23.21875 C 13.58275 23.33375 12.90175 23.40625 12.21875 23.40625 C 10.39375 23.40625 8.6565 22.9535 7.0625 22.0625 z"/>
</svg>