<svg xmlns="http://www.w3.org/2000/svg" width="26" height="26" viewBox="0 0 26 26" style="fill: ;">
    <path d="M 13 0.1875 C 5.924 0.1875 0.1875 5.924 0.1875 13 C 0.1875 20.076 5.924 25.8125 13 25.8125 C 20.076 25.8125 25.8125 20.076 25.8125 13 C 25.8125 5.924 20.076 0.1875 13 0.1875 z M 13 2.1875 C 18.962 2.1875 23.8125 7.038 23.8125 13 C 23.8125 18.962 18.962 23.8125 13 23.8125 C 7.038 23.8125 2.1875 18.962 2.1875 13 C 2.1875 7.038 7.038 2.1875 13 2.1875 z M 9 9 C 7.8954305 9 7 9.8954305 7 11 C 7 12.104569 7.8954305 13 9 13 C 10.104569 13 11 12.104569 11 11 C 11 9.8954305 10.104569 9 9 9 z M 17 9 C 15.895431 9 15 9.8954305 15 11 C 15 12.104569 15.895431 13 17 13 C 18.104569 13 19 12.104569 19 11 C 19 9.8954305 18.104569 9 17 9 z M 5.75 16.09375 C 7.353 18.37275 10.002 19.84375 13 19.84375 C 15.998 19.84375 18.648 18.37275 20.25 16.09375 C 18.208 17.56275 15.707 18.4375 13 18.4375 C 10.293 18.4375 7.792 17.56275 5.75 16.09375 z"/>
</svg>