<svg xmlns="http://www.w3.org/2000/svg" width="26" height="26" viewBox="0 0 26 26" style="fill: ;">
    <path style="text-indent:0;text-align:start;line-height:normal;text-transform:none;block-progression:tb;-inkscape-font-specification:Bitstream Vera Sans" d="M 18.875 0 C 18.659703 -0.02259375 18.5345 0.28525 18.6875 0.8125 C 18.8365 1.3315 20.006 4.58775 18.25 6.34375 L 13.125 11.4375 L 12.1875 10.5 L 12.34375 10.375 A 0.50005 0.50005 0 0 0 12.03125 9.46875 A 0.50005 0.50005 0 0 0 11.90625 9.5 A 0.50005 0.50005 0 0 0 11.625 9.65625 L 10.625 10.65625 A 0.50005 0.50005 0 1 0 11.34375 11.34375 L 11.46875 11.21875 L 12.4375 12.1875 L 11.125 13.4375 L 10.1875 12.5 L 10.34375 12.375 A 0.50005 0.50005 0 0 0 10.03125 11.46875 A 0.50005 0.50005 0 0 0 9.90625 11.5 A 0.50005 0.50005 0 0 0 9.625 11.65625 L 8.625 12.65625 A 0.50005 0.50005 0 1 0 9.34375 13.34375 L 9.46875 13.21875 L 10.4375 14.1875 L 9.125 15.4375 L 8.1875 14.5 L 8.34375 14.375 A 0.50005 0.50005 0 0 0 8.03125 13.46875 A 0.50005 0.50005 0 0 0 7.90625 13.5 A 0.50005 0.50005 0 0 0 7.625 13.65625 L 6.625 14.65625 A 0.50005 0.50005 0 1 0 7.34375 15.34375 L 7.46875 15.21875 L 8.4375 16.1875 L 4.09375 20.5 L 5.53125 21.90625 C 5.53125 21.90625 7.8483244 19.589099 9 18.4375 C 9.0880279 19.039487 9.3534323 19.635027 9.84375 20.125 C 10.721807 21.003057 11.919858 21.169042 12.9375 20.8125 C 13.955142 20.455958 14.855481 19.707019 15.75 18.8125 L 15.78125 18.78125 C 16.660535 17.897807 17.397658 16.973845 17.75 15.96875 C 18.10681 14.950909 17.94112 13.75362 17.0625 12.875 C 16.62316 12.43566 16.098904 12.170124 15.5625 12.0625 C 15.510565 12.05208 15.458823 12.04079 15.40625 12.03125 C 17.233339 10.204141 19.120976 8.3168252 19.65625 7.78125 C 21.33725 6.09925 24.35625 7.24525 25.28125 7.40625 C 26.13825 7.55525 26.09775 7.128 25.84375 6.875 C 25.59075 6.622 19.43175 0.464 19.09375 0.125 C 19.009 0.04025 18.946766 0.00753125 18.875 0 z M 14.90625 13.4375 C 15.038037 13.414512 15.157545 13.413859 15.28125 13.4375 C 15.528659 13.48478 15.75959 13.63459 16.03125 13.90625 C 16.57463 14.44963 16.60169 14.853341 16.375 15.5 C 16.14831 16.146659 15.53876 16.96124 14.71875 17.78125 C 13.898269 18.601731 13.083858 19.211042 12.4375 19.4375 C 11.791142 19.663958 11.417943 19.636693 10.875 19.09375 C 10.331015 18.550147 10.273514 18.146161 10.5 17.5 C 10.669864 17.015379 11.05678 16.449216 11.59375 15.84375 C 11.77274 15.641928 11.982268 15.423743 12.1875 15.21875 C 12.289858 15.116213 12.398062 15.033105 12.5 14.9375 C 12.639041 14.798464 12.672752 14.795994 12.8125 14.65625 C 13.417711 14.128223 13.983813 13.732571 14.46875 13.5625 C 14.630396 13.50581 14.774463 13.460488 14.90625 13.4375 z M 2.90625 21.71875 L 2.03125 22.59375 L 1.71875 22.28125 A 1.0001 1.0001 0 0 0 0.78125 22 A 1.0001 1.0001 0 0 0 0.28125 23.71875 L 2.28125 25.71875 A 1.016466 1.016466 0 1 0 3.71875 24.28125 L 3.4375 24 L 4.3125 23.125 L 2.90625 21.71875 z"/>
</svg>