<svg xmlns="http://www.w3.org/2000/svg" width="26" height="26" viewBox="0 0 26 26" style="fill: ;">
    <path d="M 7 0 C 4.795 0 3 1.795 3 4 L 3 22 C 3 24.205 4.795 26 7 26 L 19 26 C 21.205 26 23 24.205 23 22 L 23 8 C 23 6.938 22.02725 5.92975 20.28125 4.21875 C 20.03725 3.97875 19.77725 3.71675 19.53125 3.46875 C 19.28325 3.22275 19.02125 2.994 18.78125 2.75 C 17.06925 1.003 16.063 0 15 0 L 7 0 z M 7 2 L 14.28125 2 C 15.00225 2.184 15 3.0505 15 3.9375 L 15 7 C 15 7.551 15.449 8 16 8 L 19 8 C 19.998 8 21 8.005 21 9 L 21 22 C 21 23.104 20.104 24 19 24 L 7 24 C 5.896 24 5 23.104 5 22 L 5 4 C 5 2.896 5.896 2 7 2 z M 10 9 C 8.8954305 9 8 9.8954305 8 11 C 8 12.104569 8.8954305 13 10 13 C 11.104569 13 12 12.104569 12 11 C 12 9.8954305 11.104569 9 10 9 z M 15.96875 12.15625 C 14.78175 12.15625 14.36175 17.0625 12.71875 17.0625 C 11.50175 17.0625 11.029 15.0625 10 15.0625 C 8.971 15.0625 7.125 19.25 7.125 19.25 C 6.745 19.672 7.311 20 7.75 20 L 18.3125 20 C 18.6695 20 19.12375 19.5475 18.84375 18.9375 C 18.84375 18.9375 17.15575 12.15625 15.96875 12.15625 z"/>
</svg>