<svg xmlns="http://www.w3.org/2000/svg" viewBox="0 0 26 26" enable-background="new 0 0 26 26" style="fill: ;">
    <path d="M 5.40625 3 C 4.10625 3 3.0100039 3.8691562 2.5625 5.0625 L 2.5625 5.09375 L 0.0625 12.6875 L 0 12.84375 L 0 13 L 0 16 L 0 19 C 0 21.2 1.8 23 4 23 L 22 23 C 24.2 23 26 21.2 26 19 L 26 16 L 26 13 L 26 12.84375 L 25.9375 12.6875 L 23.34375 5.0625 C 22.921899 3.9375638 21.844444 3 20.5 3 L 5.40625 3 z M 5.40625 5 L 20.5 5 C 20.955556 5 21.290601 5.2749362 21.46875 5.75 L 23.96875 13 L 16 13 C 16 14.7 14.7 16 13 16 C 11.3 16 10 14.7 10 13 L 2.03125 13 L 4.4375 5.75 C 4.5899961 5.3433438 5.10625 5 5.40625 5 z"/>
</svg>