<svg xmlns="http://www.w3.org/2000/svg" viewBox="0 0 26 26" enable-background="new 0 0 26 26" style="fill: ;">
    <path d="M 13 0 C 12.3 0 11.79375 0.29375 11.59375 0.59375 C 11.49375 0.69375 11.4125 0.9 11.3125 1 L 10 1 C 8.9 1 8 1.9 8 3 L 6 3 C 4.3 3 3 4.3 3 6 L 3 23 C 3 24.7 4.3 26 6 26 L 20 26 C 21.7 26 23 24.7 23 23 L 23 6 C 23 4.3 21.7 3 20 3 L 18 3 C 18 1.9 17.1 1 16 1 L 14.6875 1 C 14.5875 0.9 14.50625 0.69375 14.40625 0.59375 C 14.20625 0.29375 13.7 -7.4014868e-17 13 0 z M 10 3 L 16 3 L 16 5 L 10 5 L 10 3 z M 6 6 L 8.3125 6 C 8.6125 6.6 9.3 7 10 7 L 16 7 C 16.7 7 17.3875 6.6 17.6875 6 L 20 6 L 20 23 L 6 23 L 6 6 z M 16.5625 10.6875 C 16.375 10.6875 16.19375 10.75625 16.09375 10.90625 L 11.6875 15.59375 L 10 14 C 9.7 13.7 9.2 13.7 9 14 L 8.3125 14.6875 C 8.0125 14.9875 8.0125 15.4875 8.3125 15.6875 L 11.09375 18.3125 C 11.49375 18.7125 12.1 18.5875 12.5 18.1875 L 17.90625 12.40625 C 18.10625 12.20625 18.1125 11.8 17.8125 11.5 L 17.09375 10.90625 C 16.94375 10.75625 16.75 10.6875 16.5625 10.6875 z"/>
</svg>