<svg xmlns="http://www.w3.org/2000/svg" width="26" height="26" viewBox="0 0 26 26" style="fill: ;">
    <path d="M 7 2 C 5.896 2 5 2.896 5 4 L 5 22 C 5 23.104 5.896 24 7 24 L 19 24 C 20.104 24 21 23.104 21 22 L 21 4 C 21 2.896 20.104 2 19 2 L 7 2 z M 10 3.9375 C 11.132 3.9375 12.0625 4.868 12.0625 6 C 12.0625 7.132 11.132 8.0625 10 8.0625 C 8.868 8.0625 7.9375 7.132 7.9375 6 C 7.9375 4.868 8.868 3.9375 10 3.9375 z M 2.4375 4 C 2.1925 4 2 4.1925 2 4.4375 L 2 5 L 0.4375 5 C 0.1925 5 3.7007434e-17 5.1925 0 5.4375 L 0 6.5625 C 0 6.8085 0.1925 7 0.4375 7 L 2 7 L 2 7.5625 C 2 7.8075 2.1925 8 2.4375 8 L 3.5625 8 C 3.8085 8 4 7.8075 4 7.5625 L 4 6.5625 L 4 5.4375 L 4 4.4375 C 4 4.1925 3.8075 4 3.5625 4 L 2.4375 4 z M 22.4375 4 C 22.1925 4 22 4.1925 22 4.4375 L 22 5.4375 L 22 6.5625 L 22 7.5625 C 22 7.8075 22.1915 8 22.4375 8 L 23.5625 8 C 23.8075 8 24 7.8075 24 7.5625 L 24 7 L 25.5625 7 C 25.8075 7 26 6.8085 26 6.5625 L 26 5.4375 C 26 5.1925 25.8085 5 25.5625 5 L 24 5 L 24 4.4375 C 24 4.1925 23.8085 4 23.5625 4 L 22.4375 4 z M 2.4375 11 C 2.1925 11 2 11.1925 2 11.4375 L 2 12 L 0.4375 12 C 0.1925 12 3.7007434e-17 12.1925 0 12.4375 L 0 13.5625 C 0 13.8085 0.1925 14 0.4375 14 L 2 14 L 2 14.5625 C 2 14.8075 2.1925 15 2.4375 15 L 3.5625 15 C 3.8085 15 4 14.8075 4 14.5625 L 4 13.5625 L 4 12.4375 L 4 11.4375 C 4 11.1915 3.8075 11 3.5625 11 L 2.4375 11 z M 22.4375 11 C 22.1925 11 22 11.1915 22 11.4375 L 22 12.4375 L 22 13.5625 L 22 14.5625 C 22 14.8075 22.1915 15 22.4375 15 L 23.5625 15 C 23.8075 15 24 14.8075 24 14.5625 L 24 14 L 25.5625 14 C 25.8075 14 26 13.8085 26 13.5625 L 26 12.4375 C 26 12.1925 25.8085 12 25.5625 12 L 24 12 L 24 11.4375 C 24 11.1925 23.8085 11 23.5625 11 L 22.4375 11 z M 2.4375 18 C 2.1925 18 2 18.1925 2 18.4375 L 2 19 L 0.4375 19 C 0.1925 19 3.7007434e-17 19.1925 0 19.4375 L 0 20.5625 C 0 20.8085 0.1925 21 0.4375 21 L 2 21 L 2 21.5625 C 2 21.8075 2.1925 22 2.4375 22 L 3.5625 22 C 3.8085 22 4 21.8075 4 21.5625 L 4 20.5625 L 4 19.4375 L 4 18.4375 C 4 18.1915 3.8075 18 3.5625 18 L 2.4375 18 z M 22.4375 18 C 22.1925 18 22 18.1915 22 18.4375 L 22 19.4375 L 22 20.5625 L 22 21.5625 C 22 21.8075 22.1915 22 22.4375 22 L 23.5625 22 C 23.8075 22 24 21.8075 24 21.5625 L 24 21 L 25.5625 21 C 25.8075 21 26 20.8085 26 20.5625 L 26 19.4375 C 26 19.1925 25.8085 19 25.5625 19 L 24 19 L 24 18.4375 C 24 18.1925 23.8085 18 23.5625 18 L 22.4375 18 z"/>
</svg>