<svg xmlns="http://www.w3.org/2000/svg" width="26" height="26" viewBox="0 0 26 26" style="fill: ;">
    <path d="M 13 6.15625 C 7.98 6.15625 3.28775 8.6505 0.46875 12.8125 C -0.05925 13.5925 0.1595 14.63025 0.9375 15.15625 C 1.2305 15.35525 1.546 15.46875 1.875 15.46875 C 2.421 15.46875 2.9835 15.20375 3.3125 14.71875 C 3.4173326 14.564043 3.5449238 14.429909 3.65625 14.28125 C 4.9950615 18.16168 8.6653142 20.9375 13 20.9375 C 17.335479 20.9375 21.005425 18.161441 22.34375 14.28125 C 22.454942 14.429948 22.582811 14.563995 22.6875 14.71875 C 23.2125 15.49675 24.2825 15.68225 25.0625 15.15625 C 25.8415 14.62925 26.05825 13.5905 25.53125 12.8125 C 22.71325 8.6485 18.021 6.15625 13 6.15625 z M 13 9.78125 C 14.771 9.78125 16.21875 11.228 16.21875 13 C 16.21875 14.772 14.771 16.21875 13 16.21875 C 11.229 16.21875 9.78125 14.771 9.78125 13 C 9.78125 11.229 11.229 9.78125 13 9.78125 z M 16.96875 10.25 C 18.63828 10.849566 20.126227 11.838555 21.375 13.125 C 20.442366 16.882607 17.04255 19.6875 13 19.6875 C 8.9574497 19.6875 5.5576339 16.882607 4.625 13.125 C 5.8668803 11.84693 7.3740617 10.881904 9.03125 10.28125 C 8.4972315 11.056398 8.1875 11.98719 8.1875 13 C 8.1875 15.659 10.342 17.8125 13 17.8125 C 15.658 17.8125 17.8125 15.659 17.8125 13 C 17.8125 11.9786 17.511077 11.028903 16.96875 10.25 z"/>
</svg>