<svg xmlns="http://www.w3.org/2000/svg" width="26" height="26" viewBox="0 0 26 26" style="fill: ;">
    <path d="M 13 0 C 13 0 12 1.26 12 2 C 12 2.552 12.448 3 13 3 C 13.552 3 14 2.552 14 2 C 14 1.26 13 0 13 0 z M 5 1 C 5 1 4 2.26 4 3 C 4 3.552 4.448 4 5 4 C 5.552 4 6 3.552 6 3 C 6 2.26 5 1 5 1 z M 21 1 C 21 1 20 2.26 20 3 C 20 3.552 20.448 4 21 4 C 21.552 4 22 3.552 22 3 C 22 2.26 21 1 21 1 z M 9 2 C 9 2 8 3.26 8 4 C 8 4.552 8.448 5 9 5 C 9.552 5 10 4.552 10 4 C 10 3.26 9 2 9 2 z M 17 2 C 17 2 16 3.26 16 4 C 16 4.552 16.448 5 17 5 C 17.552 5 18 4.552 18 4 C 18 3.26 17 2 17 2 z M 12.8125 4.1875 A 0.80008001 0.80008001 0 0 0 12.1875 5 L 12.1875 6.03125 C 2.6809369 6.4927757 2 15 2 15 C 2 15 3.406 13.875 5.5 13.875 C 7.594 13.875 9 15 9 15 C 9 15 10.40877 14.158974 12.1875 13.9375 L 12.1875 23 C 12.1875 23.673024 11.673024 24.1875 11 24.1875 C 10.326976 24.1875 9.8125 23.673024 9.8125 23 A 0.8125 0.8125 0 0 0 8.1875 23 C 8.1875 24.536976 9.4630241 25.8125 11 25.8125 C 12.536976 25.8125 13.8125 24.536976 13.8125 23 L 13.8125 13.9375 C 15.59123 14.158974 17 15 17 15 C 17 15 18.368 13.875 20.5 13.875 C 22.632 13.875 24 15 24 15 C 24 15 23.319063 6.4927757 13.8125 6.03125 L 13.8125 5 A 0.80008001 0.80008001 0 0 0 12.90625 4.1875 A 0.80008001 0.80008001 0 0 0 12.8125 4.1875 z M 2 5 C 2 5 1 6.26 1 7 C 1 7.552 1.448 8 2 8 C 2.552 8 3 7.552 3 7 C 3 6.26 2 5 2 5 z M 24 5 C 24 5 23 6.26 23 7 C 23 7.552 23.448 8 24 8 C 24.552 8 25 7.552 25 7 C 25 6.26 24 5 24 5 z"/>
</svg>