<svg xmlns="http://www.w3.org/2000/svg" viewBox="0 0 26 26" enable-background="new 0 0 26 26" style="fill: ;">
    <path d="M 13 0 C 10.9 0 9.6425116 0.3193692 8.84375 0.71875 C 8.4443692 0.9184404 8.1603864 1.1281591 7.96875 1.34375 C 7.7771136 1.5593409 7.65625 1.875 7.65625 1.875 A 1.0001 1.0001 0 0 0 7.59375 2.125 L 7.0625 8.96875 C 7.0549815 9.0110603 7.0688269 9.0798994 7.0625 9.125 L 7 9.8125 A 1.0030471 1.0030471 0 0 0 7 10 C 7 13.3 9.7 16 13 16 C 16.3 16 19 13.3 19 10 C 19 9.9377287 19.001078 9.902785 19 9.84375 A 1.0030471 1.0030471 0 0 0 19 9.8125 L 18.40625 2.125 A 1.0001 1.0001 0 0 0 18.34375 1.875 C 18.34375 1.875 18.222886 1.5593409 18.03125 1.34375 C 17.839614 1.1281591 17.555631 0.9184404 17.15625 0.71875 C 16.357488 0.3193692 15.1 0 13 0 z M 13 16 C 6.4 16 1 19.10625 1 21.90625 L 1 26 L 25 26 L 25 21.90625 C 25 19.245376 20.11763 16.316031 13.96875 16.03125 C 13.645312 16.009375 13.325 16 13 16 z M 13 2 C 14.9 2 15.848762 2.2993808 16.25 2.5 C 16.383746 2.566873 16.400659 2.593236 16.4375 2.625 L 16.84375 7.75 C 15.923337 7.8064607 14.670594 8 13 8 C 11.329406 8 10.076663 7.8064607 9.15625 7.75 L 9.5625 2.625 C 9.5993414 2.5932357 9.6162539 2.5668731 9.75 2.5 C 10.151238 2.2993808 11.1 2 13 2 z M 12.1875 3 L 12.1875 4.1875 L 11 4.1875 L 11 5.8125 L 12.1875 5.8125 L 12.1875 7 L 13.8125 7 L 13.8125 5.8125 L 15 5.8125 L 15 4.1875 L 13.8125 4.1875 L 13.8125 3 L 12.1875 3 z M 10 18.25 L 12.5625 24 L 3 24 L 3 21.90625 C 3 21.161005 5.5506035 18.979436 10 18.25 z M 16 18.25 C 20.449397 18.979436 23 21.161005 23 21.90625 L 23 24 L 13.4375 24 L 16 18.25 z"/>
</svg>