<svg xmlns="http://www.w3.org/2000/svg" width="26" height="26" viewBox="0 0 26 26" style="fill: ;">
    <path d="M 13 0 C 10.238 0 8 2.238 8 5 L 8 13 C 8 15.762 10.238 18 13 18 C 13.172625 18 13.331887 17.985816 13.5 17.96875 C 15.013015 17.815157 16.347674 16.978232 17.15625 15.78125 C 17.695301 14.983262 18 14.03575 18 13 L 18 10 L 18 5 C 18 2.238 15.762 0 13 0 z M 13 2 C 14.299079 2 15.396337 2.8422794 15.8125 4 L 15 4 C 14.449 4 14 4.448 14 5 C 14 5.965 15 6 15 6 L 16 6 L 16 7 L 15 7 C 14.449 7 14 7.448 14 8 C 14 8.965 15 9 15 9 L 16 9 L 16 10 L 10 10 L 10 9 L 11 9 C 11 9 12 8.965 12 8 C 12 7.448 11.551 7 11 7 L 10 7 L 10 6 L 11 6 C 11 6 12 5.965 12 5 C 12 4.448 11.551 4 11 4 L 10.1875 4 C 10.603663 2.8422794 11.700921 2 13 2 z M 5 11 C 4.109 11 4 12 4 12 L 4 13 C 4 17.274853 6.9978487 20.837238 11 21.75 L 11 24 L 8 24 C 7.041 24 7 25 7 25 L 7 26 L 19 26 L 19 25 C 19 24.449 18.552 24 18 24 L 15 24 L 15 21.75 C 19.002151 20.837238 22 17.274853 22 13 L 22 12 C 22 12 21.906 11 21 11 C 20.094 11 20 12 20 12 L 20 13 C 20 16.859 16.859 20 13 20 C 9.141 20 6 16.859 6 13 L 6 12 C 6 12 5.891 11 5 11 z"/>
</svg>