<svg xmlns="http://www.w3.org/2000/svg" width="26" height="26" viewBox="0 0 26 26" style="fill: ;">
    <path style="text-indent:0;text-align:start;line-height:normal;text-transform:none;block-progression:tb;-inkscape-font-specification:Bitstream Vera Sans" d="M 20.625 3.25 C 20.024088 3.2826808 19.433259 3.4363207 18.90625 3.6875 C 17.500895 4.3573115 16.329654 5.5453455 15.4375 6.4375 A 0.80008001 0.80008001 0 1 0 16.5625 7.5625 C 17.441346 6.6836545 18.551105 5.6531885 19.59375 5.15625 C 20.115072 4.9077807 20.586282 4.7978959 21.03125 4.84375 C 21.476218 4.889604 21.933804 5.0585974 22.4375 5.5625 C 23.286686 6.4116856 23.33462 7.1280356 22.96875 8.125 C 22.60288 9.1219644 21.690604 10.309879 20.59375 11.40625 C 19.544114 12.455886 18.759651 13.434136 18.40625 14.46875 C 18.052849 15.503364 18.280837 16.655837 19.09375 17.46875 C 19.916151 18.291151 21.105073 18.478818 22.1875 18.0625 C 23.269927 17.646182 24.349541 16.775459 25.5625 15.5625 A 0.80008001 0.80008001 0 1 0 24.4375 14.4375 C 23.298459 15.576541 22.317073 16.296318 21.625 16.5625 C 20.932927 16.828682 20.658349 16.783349 20.21875 16.34375 C 19.769663 15.894663 19.724651 15.591886 19.9375 14.96875 C 20.150349 14.345614 20.755386 13.494614 21.71875 12.53125 C 22.893896 11.356621 23.95762 10.080286 24.46875 8.6875 C 24.97988 7.2947144 24.797314 5.6723144 23.5625 4.4375 C 22.847696 3.7224026 22.038032 3.3344272 21.21875 3.25 C 21.013929 3.2288933 20.825304 3.2391064 20.625 3.25 z M 9.9375 6.25 C 8.401125 6.336375 6.89525 6.98025 5.71875 8.15625 L 4.65625 9.21875 L 8.6875 13.25 L 9.78125 12.15625 C 9.46525 11.52125 9.56375 10.7175 10.09375 10.1875 L 11.1875 9.09375 C 11.7185 8.56375 12.52025 8.46425 13.15625 8.78125 L 14.3125 7.625 C 13.0295 6.6345 11.473875 6.163625 9.9375 6.25 z M 15.5 8.78125 L 14.28125 10 C 14.51525 10.607 14.39625 11.3215 13.90625 11.8125 L 12.8125 12.90625 C 12.3215 13.39625 11.607 13.51525 11 13.28125 L 9.84375 14.4375 L 13.90625 18.46875 L 14.96875 17.40625 C 17.32475 15.05025 17.491 11.34725 15.5 8.78125 z M 12.40625 9.59375 C 12.22025 9.59375 12.03925 9.6805 11.90625 9.8125 L 10.8125 10.90625 C 10.5405 11.17825 10.5405 11.63425 10.8125 11.90625 L 11.09375 12.1875 C 11.22675 12.3205 11.40675 12.40625 11.59375 12.40625 C 11.78075 12.40625 11.96075 12.3195 12.09375 12.1875 L 13.1875 11.09375 C 13.3205 10.96075 13.40625 10.77975 13.40625 10.59375 C 13.40625 10.40775 13.3195 10.22575 13.1875 10.09375 L 12.90625 9.8125 C 12.77525 9.6795 12.59425 9.59375 12.40625 9.59375 z M 3.6875 10.1875 L 2.1875 11.65625 C -0.3685 14.21225 -0.3685 18.3815 2.1875 20.9375 C 4.7435 23.4925 8.8835 23.4925 11.4375 20.9375 L 12.9375 19.4375 L 3.6875 10.1875 z" color="#000" overflow="visible" enable-background="accumulate" font-family="Bitstream Vera Sans"/>
</svg>