<svg xmlns="http://www.w3.org/2000/svg" width="26" height="26" viewBox="0 0 26 26" style="fill: ;">
    <path style="text-indent:0;text-align:start;line-height:normal;text-transform:none;block-progression:tb;-inkscape-font-specification:Bitstream Vera Sans" d="M 13 0.1875 C 5.9998167 0.1875 0.1875 5.2518378 0.1875 11.625 C 0.1875 14.62293 1.5944136 17.258268 3.6875 19.28125 C 3.6059314 20.439554 3.0238433 21.132839 2.21875 21.8125 C 1.7864509 22.177447 1.3068598 22.517527 0.875 22.9375 C 0.4431402 23.357473 0 23.92886 0 24.71875 A 1.0001 1.0001 0 0 0 0.75 25.6875 C 2.6282435 26.191434 4.6498231 25.820252 6.5 25.15625 C 8.1657952 24.55842 9.572492 23.672727 10.6875 22.8125 C 11.44222 22.937023 12.201805 23.03125 13 23.03125 C 20.000286 23.03125 25.8125 17.997269 25.8125 11.625 C 25.8125 5.2527315 20.000081 0.1875 13 0.1875 z M 13 2.1875 C 19.045919 2.1875 23.8125 6.4772685 23.8125 11.625 C 23.8125 16.772731 19.045714 21.03125 13 21.03125 C 12.214805 21.03125 11.462514 20.98396 10.71875 20.84375 A 1.0001 1.0001 0 0 0 9.875 21.03125 C 8.9716834 21.78977 7.4570731 22.702252 5.84375 23.28125 C 4.8498821 23.637935 3.843142 23.801235 2.90625 23.84375 C 3.1162863 23.674265 3.2827372 23.553545 3.53125 23.34375 C 4.5376518 22.494145 5.75 21.127795 5.75 19.0625 A 1.0001 1.0001 0 0 0 5.40625 18.3125 C 3.4068713 16.585847 2.1875 14.233813 2.1875 11.625 C 2.1875 6.4761622 6.9541833 2.1875 13 2.1875 z M 13 5.0625 C 11.535 5.0625 10.28125 6.07275 10.28125 7.96875 C 10.28125 9.20575 10.865 10.44375 11.625 11.21875 C 11.921 11.99575 11.39325 12.30275 11.28125 12.34375 C 9.74825 12.89775 7.9375 13.90725 7.9375 14.90625 L 7.9375 15.28125 C 7.9375 16.64125 10.56 16.9375 13 16.9375 C 15.444 16.9375 18.0625 16.64125 18.0625 15.28125 L 18.0625 14.90625 C 18.0635 13.87925 16.26625 12.87575 14.65625 12.34375 C 14.58225 12.31975 14.11725 12.09975 14.40625 11.21875 C 15.16125 10.44075 15.71875 9.20175 15.71875 7.96875 C 15.71875 6.07275 14.465 5.0625 13 5.0625 z" color="#000" overflow="visible" enable-background="accumulate" font-family="Bitstream Vera Sans"/>
</svg>