<svg xmlns="http://www.w3.org/2000/svg" width="26" height="26" viewBox="0 0 26 26" style="fill: ;">
    <path d="M16.563,15.9c-0.159-0.052-1.164-0.505-0.536-2.414h-0.009c1.637-1.686,2.888-4.399,2.888-7.07 c0-4.107-2.731-6.26-5.905-6.26c-3.176,0-5.892,2.152-5.892,6.26c0,2.682,1.244,5.406,2.891,7.088 c0.642,1.684-0.506,2.309-0.746,2.397C5.93,17.103,2.03,19.294,2.03,21.457c0,0.584,0,0.23,0,0.811 c0,2.947,5.714,3.617,11.002,3.617c5.296,0,10.938-0.67,10.938-3.617c0-0.58,0-0.227,0-0.811 C23.97,19.229,20.051,17.055,16.563,15.9z"/>
</svg>