<svg xmlns="http://www.w3.org/2000/svg" width="26" height="26" viewBox="0 0 26 26" style="fill: ;">
    <path d="M 16.90625 1.96875 A 1.0001 1.0001 0 0 0 16.78125 2 L 16.15625 2 L 1 2 A 1.0001 1.0001 0 0 0 0.90625 2 A 1.0001 1.0001 0 0 0 0 3 L 0 18.96875 C 0 21.333868 1.3187252 22.787472 2.5625 23.40625 C 3.8062748 24.025028 5 24 5 24 L 20.09375 24 L 21 24 C 21 24 21.08479 23.999965 21.09375 24 A 1.0001 1.0001 0 0 0 21.125 24 C 21.29972 23.999633 22.301309 23.974059 23.4375 23.40625 C 24.624451 22.813071 25.865111 21.447422 25.96875 19.28125 A 1.0001 1.0001 0 0 0 25.96875 19.21875 C 25.969559 19.197007 25.999425 19.178154 26 19.15625 A 1.0001 1.0001 0 0 0 26 19 A 1.0001 1.0001 0 0 0 26 18.90625 L 26 8.03125 A 1.0001 1.0001 0 0 0 26 8 C 26 8 25.996146 7.297902 25.625 6.5625 C 25.28793 5.8946183 24.478381 5.1621498 23.34375 5.03125 A 1.0001 1.0001 0 0 0 23 4.96875 L 18 4.96875 L 18 3.1875 A 1.0001 1.0001 0 0 0 18 3 A 1.0001 1.0001 0 0 0 18 2.875 A 1.0001 1.0001 0 0 0 18 2.8125 A 1.0001 1.0001 0 0 0 18 2.78125 A 1.0001 1.0001 0 0 0 17.96875 2.71875 A 1.0001 1.0001 0 0 0 17.96875 2.6875 A 1.0001 1.0001 0 0 0 17.9375 2.59375 A 1.0001 1.0001 0 0 0 17.875 2.5 A 1.0001 1.0001 0 0 0 17.78125 2.34375 A 1.0001 1.0001 0 0 0 17.6875 2.28125 A 1.0001 1.0001 0 0 0 17.5625 2.15625 A 1.0001 1.0001 0 0 0 17.53125 2.15625 A 1.0001 1.0001 0 0 0 17.1875 2 A 1.0001 1.0001 0 0 0 16.90625 1.96875 z M 2 4 L 16 4 L 16 5.75 A 1.001098 1.001098 0 0 0 16 6.15625 L 16 18.96875 C 16 20.248874 16.406477 21.244046 16.96875 22 L 5 22 C 5 22 4.5457973 22.002125 4 21.84375 C 3.8180676 21.790958 3.6265563 21.719055 3.4375 21.625 C 2.6812748 21.248778 2 20.679632 2 18.96875 L 2 4 z M 4 6 C 3.449 6 3 6.449 3 7 L 3 9 C 3 9.551 3.449 10 4 10 L 14 10 C 14.551 10 15 9.551 15 9 L 15 7 C 15 6.449 14.551 6 14 6 L 4 6 z M 18 6.96875 L 20.1875 6.96875 C 20.000951 7.5167924 20 7.96875 20 7.96875 A 1.0001 1.0001 0 0 0 20 8 L 20 18 A 1.0001 1.0001 0 1 0 22 18 L 22 8.03125 L 22 8 C 22.0022 7.971709 22.02502 7.7251799 22.15625 7.46875 C 22.294614 7.1983753 22.364855 7 23 7 C 23.630366 7 23.703146 7.190152 23.84375 7.46875 C 23.977433 7.7336346 23.997893 8.0031971 24 8.03125 C 24.000109 8.0327 24 8.0625 24 8.0625 L 24 19 A 1.0001 1.0001 0 0 0 24 19.09375 C 23.972745 20.681694 23.307983 21.221195 22.5625 21.59375 C 21.801205 21.974207 21 22 21 22 C 21 22 20.199754 21.978974 19.4375 21.59375 C 18.675246 21.208526 18 20.642996 18 18.96875 L 18 6.96875 z M 3.71875 12 A 1.0043849 1.0043849 0 0 0 4 14 L 7 14 A 1.0001 1.0001 0 1 0 7 12 L 4 12 A 1.0001 1.0001 0 0 0 3.90625 12 A 1.001098 1.001098 0 0 0 3.8125 12 A 1.0043849 1.0043849 0 0 0 3.71875 12 z M 9.71875 12 A 1.0043849 1.0043849 0 0 0 10 14 L 14 14 A 1.0001 1.0001 0 1 0 14 12 L 10 12 A 1.0001 1.0001 0 0 0 9.90625 12 A 1.001098 1.001098 0 0 0 9.8125 12 A 1.0043849 1.0043849 0 0 0 9.71875 12 z M 3.71875 15 A 1.0043849 1.0043849 0 0 0 4 17 L 7 17 A 1.0001 1.0001 0 1 0 7 15 L 4 15 A 1.0001 1.0001 0 0 0 3.90625 15 A 1.001098 1.001098 0 0 0 3.8125 15 A 1.0043849 1.0043849 0 0 0 3.71875 15 z M 9.71875 15 A 1.0043849 1.0043849 0 0 0 10 17 L 14 17 A 1.0001 1.0001 0 1 0 14 15 L 10 15 A 1.0001 1.0001 0 0 0 9.90625 15 A 1.001098 1.001098 0 0 0 9.8125 15 A 1.0043849 1.0043849 0 0 0 9.71875 15 z M 4.21875 18 A 1.0043849 1.0043849 0 0 0 4.5 20 L 7 20 A 1.0001 1.0001 0 1 0 7 18 L 4.5 18 A 1.0001 1.0001 0 0 0 4.40625 18 A 1.001098 1.001098 0 0 0 4.3125 18 A 1.0043849 1.0043849 0 0 0 4.21875 18 z M 9.71875 18 A 1.0043849 1.0043849 0 0 0 10 20 L 14 20 A 1.0001 1.0001 0 1 0 14 18 L 10 18 A 1.0001 1.0001 0 0 0 9.90625 18 A 1.001098 1.001098 0 0 0 9.8125 18 A 1.0043849 1.0043849 0 0 0 9.71875 18 z"/>
</svg>