<svg xmlns="http://www.w3.org/2000/svg" width="26" height="26" viewBox="0 0 26 26" style="fill: ;">
    <path d="M21.125,0H4.875C2.182,0,0,2.182,0,4.875v16.25C0,23.818,2.182,26,4.875,26h16.25 C23.818,26,26,23.818,26,21.125V4.875C26,2.182,23.818,0,21.125,0z M17.66,13.857l-6.229,4.949 c-0.139,0.068-0.289,0.104-0.439,0.104c-0.179,0-0.356-0.049-0.512-0.144C10.19,18.593,10,18.282,10,17.95V8.051 c0-0.334,0.19-0.644,0.479-0.817c0.288-0.175,0.649-0.191,0.952-0.039l6.229,4.948c0.336,0.297,0.537,0.494,0.537,0.857 S17.961,13.575,17.66,13.857z"/>
</svg>