<svg xmlns="http://www.w3.org/2000/svg" width="26" height="26" viewBox="0 0 26 26" style="fill: ;">
    <path style="text-indent:0;text-align:start;line-height:normal;text-transform:none;block-progression:tb;-inkscape-font-specification:Bitstream Vera Sans" d="M 13 0 C 9.8380894 0 6.9516157 1.2769917 4.875 3.34375 A 1.0054782 1.0054782 0 1 0 6.3125 4.75 C 8.0278843 3.0427583 10.373911 2 13 2 C 15.617747 2 17.969675 3.0403205 19.6875 4.75 A 1.0054782 1.0054782 0 1 0 21.125 3.34375 C 19.046825 1.2754295 16.156253 0 13 0 z M 13 4 C 11.095227 4 9.374358 4.8140184 8.1875 6.125 A 1.0001 1.0001 0 1 0 9.65625 7.46875 C 10.477392 6.5617316 11.666773 6 13 6 C 14.327281 6 15.517677 6.5582665 16.34375 7.46875 A 1.0001 1.0001 0 1 0 17.8125 6.125 C 16.622573 4.8134835 14.902719 4 13 4 z M 5 7 L 5 23 C 5 24.656 6.343 26 8 26 L 18 26 C 19.657 26 21 24.656 21 23 L 21 7 L 19 9 L 19 20.5 C 19 20.776 18.776 21 18.5 21 L 7.5 21 C 7.224 21 7 20.776 7 20.5 L 7 9 L 5 7 z M 13 8 C 11.892 8 11 8.893 11 10 C 11 11.107 11.892 12 13 12 C 14.103 12 15 11.107 15 10 C 15 8.893 14.103 8 13 8 z M 13.5 22.21875 C 14.206 22.21875 14.78125 22.794 14.78125 23.5 C 14.78125 24.206 14.206 24.78125 13.5 24.78125 C 12.794 24.78125 12.21875 24.206 12.21875 23.5 C 12.21875 22.794 12.794 22.21875 13.5 22.21875 z" color="#000" overflow="visible" enable-background="accumulate" font-family="Bitstream Vera Sans"/>
</svg>