<svg xmlns="http://www.w3.org/2000/svg" version="1" viewBox="0 0 26 26" enable-background="new 0 0 26 26" style="fill: ;">
    <path style="text-indent:0;text-align:start;line-height:normal;text-transform:none;block-progression:tb;-inkscape-font-specification:Bitstream Vera Sans" d="M 11.65625 0.65625 L 10.34375 1.34375 L 11.34375 3.34375 L 9.34375 2.34375 L 8.65625 3.65625 L 11.34375 5 L 2 5 A 1.0001 1.0001 0 0 0 1.90625 5 A 1.0001 1.0001 0 0 0 1.8125 5 A 1.0001 1.0001 0 0 0 1 6 L 1 10 A 1.0001 1.0001 0 0 0 2 11 L 2 24 A 1.0001 1.0001 0 0 0 3 25 L 23 25 A 1.0001 1.0001 0 0 0 24 24 L 24 11 A 1.0001 1.0001 0 0 0 25 10 L 25 6 A 1.0001 1.0001 0 0 0 24 5 L 14.65625 5 L 17.34375 3.65625 L 16.65625 2.34375 L 14.65625 3.34375 L 15.65625 1.34375 L 14.34375 0.65625 L 13 3.34375 L 11.65625 0.65625 z M 3 7 L 12 7 L 12 9 L 3.1875 9 A 1.0001 1.0001 0 0 0 3 8.96875 L 3 7 z M 14 7 L 23 7 L 23 9 L 22.78125 9 L 14 9 L 14 7 z M 4 11 L 12 11 L 12 23 L 4 23 L 4 11 z M 14 11 L 22 11 L 22 23 L 14 23 L 14 11 z"/>
</svg>