<svg xmlns="http://www.w3.org/2000/svg" viewBox="0 0 26 26" enable-background="new 0 0 26 26" style="fill: ;">
    <path style="text-indent:0;text-align:start;line-height:normal;text-transform:none;block-progression:tb;-inkscape-font-specification:Bitstream Vera Sans" d="M 0.875 3 A 1.0001 1.0001 0 0 0 0 4 L 0 22 A 1.0001 1.0001 0 0 0 1.375 22.9375 C 1.375 22.9375 6.2449294 21 13 21 C 19.755071 21 24.625 22.9375 24.625 22.9375 A 1.0001 1.0001 0 0 0 26 22 L 26 4 A 1.0001 1.0001 0 0 0 24.5625 3.09375 C 24.5625 3.09375 20.826187 5 13 5 C 5.1738126 5 1.4375 3.09375 1.4375 3.09375 A 1.0001 1.0001 0 0 0 0.875 3 z M 2 5.375 C 2.7854038 5.675981 4.0631014 6.0935513 6 6.4375 L 6 19.625 C 4.1310109 19.975904 2.7781148 20.392051 2 20.65625 L 2 5.375 z M 24 5.375 L 24 20.65625 C 23.218434 20.390912 21.869523 19.975614 20 19.625 L 20 6.4375 C 21.937184 6.0935653 23.215638 5.6760319 24 5.375 z M 8 6.71875 C 9.4068615 6.8776244 11.030628 7 13 7 C 14.969372 7 16.592933 6.8776144 18 6.71875 L 18 19.3125 C 16.549141 19.127612 14.898994 19 13 19 C 11.101923 19 9.4491666 19.128122 8 19.3125 L 8 6.71875 z" color="#000" overflow="visible" enable-background="accumulate" font-family="Bitstream Vera Sans"/>
</svg>