<svg xmlns="http://www.w3.org/2000/svg" width="26" height="26" viewBox="0 0 26 26" style="fill: ;">
    <path style="text-indent:0;text-align:start;line-height:normal;text-transform:none;block-progression:tb;-inkscape-font-specification:Bitstream Vera Sans" d="M 13 0.0625 C 10.182 0.0625 8.0625 1.322 8.0625 3 C 8.0625 3.761 8.47 4.44675 9.25 4.96875 L 7.78125 12 L 9.6875 12 L 11.25 4.65625 C 11.341 4.22325 11.12175 3.807 10.71875 3.625 C 10.14275 3.364 9.9375 3.084 9.9375 3 C 9.9375 2.729 10.994 1.9375 13 1.9375 C 15.006 1.9375 16.0625 2.729 16.0625 3 C 16.0625 3.084 15.85825 3.364 15.28125 3.625 C 14.87825 3.807 14.659 4.22425 14.75 4.65625 L 16.3125 12 L 18.21875 12 L 16.75 4.96875 C 17.53 4.44675 17.9375 3.76 17.9375 3 C 17.9375 1.322 15.818 0.0625 13 0.0625 z M 18.21875 12 L 20.75 24 L 18.8125 24 L 16.3125 12 L 9.6875 12 L 7.1875 24 L 5.25 24 L 7.78125 12 L 0.75 12 C 0.188 12 -0.1255 12.4185 0.0625 12.9375 L 3.21875 24 L 3 24 A 1.0001 1.0001 0 0 0 2.90625 24 A 1.001098 1.001098 0 0 0 3 26 L 23 26 A 1.0001 1.0001 0 1 0 23 24 L 22.78125 24 L 25.9375 12.9375 C 26.1245 12.4185 25.812 12 25.25 12 L 18.21875 12 z" color="#000" overflow="visible" enable-background="accumulate" font-family="Bitstream Vera Sans"/>
</svg>