<svg xmlns="http://www.w3.org/2000/svg" width="26" height="26" viewBox="0 0 26 26" style="fill: ;">
    <path d="M 7.6875 0.1875 C 9.1475 1.1335 10.09375 3.07325 10.09375 5.40625 C 10.09375 7.55025 7.33525 10.09375 5.40625 10.09375 C 3.07325 10.09375 1.4635 9.5285 0.1875 7.6875 C 0.6175 10.0855 2.3945 11.9945 4.6875 12.6875 C 4.7845 12.6645 4.87075 12.61175 4.96875 12.59375 C 5.92575 10.19375 8.264 8.5 11 8.5 L 11.03125 8.5 C 11.56925 7.786 12.22475 7.1685 12.96875 6.6875 C 12.97075 6.6295 12.96875 6.59025 12.96875 6.53125 C 12.96875 3.35725 10.6985 0.7265 7.6875 0.1875 z M 20.46875 0.5 L 19.96875 2.3125 L 18.15625 1.84375 L 19.46875 3.1875 L 18.15625 4.53125 L 19.96875 4.0625 L 20.46875 5.875 L 21 4.0625 L 22.8125 4.53125 L 21.5 3.1875 L 22.8125 1.84375 L 21 2.3125 L 20.46875 0.5 z M 17 7 C 14.737504 7 12.83014 8.299164 11.8125 10.15625 C 11.538511 10.104634 11.297563 10 11 10 C 8.5930601 10 6.6546239 11.756972 6.1875 14.03125 C 6.1200346 14.027435 6.0690263 14 6 14 C 3.8029372 14 2 15.802937 2 18 C 2 20.197063 3.8029372 22 6 22 L 21 22 C 23.749516 22 26 19.749516 26 17 C 26 14.94059 24.695055 13.229205 22.90625 12.46875 C 22.625337 9.4234645 20.115911 7 17 7 z M 17 9 C 19.221812 9 21 10.778188 21 13 C 21 12.862603 21.0048 12.90458 21 13.125 L 20.96875 13.90625 L 21.75 14.09375 C 23.049534 14.425018 24 15.59149 24 17 C 24 18.668484 22.668484 20 21 20 L 6 20 C 4.8850628 20 4 19.114937 4 18 C 4 16.885063 4.8850628 16 6 16 C 6.2215812 16 6.4493381 16.03968 6.6875 16.125 L 8.125 16.65625 L 8.03125 15.125 C 8.0272337 15.060739 8.0046875 15.029878 8 15 C 8 14.974333 7.9979991 14.976704 8 14.96875 C 7.9989102 14.963525 8.0010259 14.940793 8 14.9375 C 8.0340387 13.299552 9.3532292 12 11 12 C 11.33383 12 11.661736 12.0675 12 12.1875 L 12.9375 12.5 L 13.28125 11.59375 C 13.85162 10.078104 15.279102 9 17 9 z"/>
</svg>