<svg xmlns="http://www.w3.org/2000/svg" width="26" height="26" viewBox="0 0 26 26" style="fill: ;">
    <path d="M21.125,0H4.875C2.182,0,0,2.182,0,4.875v16.25C0,23.818,2.182,26,4.875,26h16.25 C23.818,26,26,23.818,26,21.125V4.875C26,2.182,23.818,0,21.125,0z M16,17.949c0,0.334-0.189,0.644-0.479,0.817 c-0.289,0.175-0.649,0.191-0.952,0.039L8.34,13.857C8.003,13.561,7.803,13.363,7.803,13s0.237-0.575,0.537-0.857l6.229-4.949 c0.139-0.068,0.288-0.104,0.439-0.104c0.179,0,0.356,0.049,0.513,0.144C15.811,7.407,16,7.718,16,8.05V17.949z"/>
</svg>