<svg xmlns="http://www.w3.org/2000/svg" width="26" height="26" viewBox="0 0 26 26" style="fill: ;">
    <path style="text-indent:0;text-align:start;line-height:normal;text-transform:none;block-progression:tb;-inkscape-font-specification:Bitstream Vera Sans" d="M 15.5 0 C 13.209212 0 11.312176 1.2932828 10.15625 3.09375 C 9.9387269 3.0638933 9.7348776 3 9.5 3 C 6.9976718 3 4.9996927 4.7349842 4.34375 7.03125 C 1.9458479 7.1189899 0 9.08181 0 11.5 C 0 13.973438 2.026562 16 4.5 16 L 20.5 16 C 23.525577 16 26 13.525577 26 10.5 C 26 7.9247562 24.178422 5.8375159 21.78125 5.25 C 21.183249 2.2789104 18.639965 0 15.5 0 z M 15.5 2 C 17.872717 2 19.779357 3.8080139 19.96875 6.125 L 20.0625 6.96875 L 20.875 7.03125 C 22.63817 7.2195194 24 8.6847471 24 10.5 C 24 12.444423 22.444423 14 20.5 14 L 4.5 14 C 3.107438 14 2 12.892562 2 11.5 C 2 10.107438 3.107438 9 4.5 9 C 4.590743 9 4.6995918 9.00381 4.875 9.03125 L 5.9375 9.21875 L 6.03125 8.15625 C 6.2078976 6.3788313 7.6759298 5 9.5 5 C 9.7605785 5 10.030168 5.026528 10.3125 5.09375 L 11.09375 5.28125 L 11.4375 4.5625 C 12.16167 3.0470611 13.701132 2 15.5 2 z M 20.96875 16.84375 C 20.01875 17.33575 17.84525 18.13025 17.28125 19.03125 C 16.71425 19.93325 16.972 21.1215 17.875 21.6875 C 18.774 22.2525 19.89625 21.9145 20.53125 21.0625 C 21.09625 20.3045 20.96775 18.88275 20.96875 16.84375 z M 6.96875 17.84375 C 6.01875 18.33575 3.84525 19.13025 3.28125 20.03125 C 2.71425 20.93325 2.972 22.1215 3.875 22.6875 C 4.774 23.2525 5.89625 22.9145 6.53125 22.0625 C 7.09625 21.3045 6.96775 19.88275 6.96875 17.84375 z M 13.96875 20.84375 C 13.01875 21.33575 10.84525 22.13025 10.28125 23.03125 C 9.71425 23.93325 9.972 25.1215 10.875 25.6875 C 11.774 26.2525 12.89625 25.9145 13.53125 25.0625 C 14.09625 24.3045 13.96775 22.88275 13.96875 20.84375 z" color="#000" overflow="visible" enable-background="accumulate" font-family="Bitstream Vera Sans"/>
</svg>