<svg xmlns="http://www.w3.org/2000/svg" width="26" height="26" viewBox="0 0 26 26" style="fill: ;">
    <path d="M 2 2 C 0.896 2 0 2.896 0 4 C 0 4.738 1.15625 6.057 1.15625 7 C 1.15625 7.943 0 10.921 0 13 C 0 15.079 1.15625 17.991 1.15625 19 C 1.15625 20.009 0 21.262 0 22 C 0 23.104 0.896 24 2 24 C 2.738 24 5.124 22.875 6.5 22.875 C 7.876 22.875 8.396 24 9.5 24 C 10.604 24 11.631 22.875 13 22.875 C 14.369 22.875 14.896 24 16 24 C 17.104 24 18.563 22.875 19.5 22.875 C 20.437 22.875 23.262 24 24 24 C 25.104 24 26 23.104 26 22 C 26 21.262 24.84375 19.943 24.84375 19 C 24.84375 18.057 26 14.95 26 13 C 26 11.05 24.84375 8.009 24.84375 7 C 24.84375 5.991 26 4.738 26 4 C 26 2.896 25.104 2 24 2 C 23.262 2 20.876 3.15625 19.5 3.15625 C 18.124 3.15625 17.604 2 16.5 2 C 15.396 2 14.369 3.15625 13 3.15625 C 11.631 3.15625 11.104 2 10 2 C 8.896 2 7.438 3.15625 6.5 3.15625 C 5.562 3.15625 2.738 2 2 2 z M 4 5 L 22 5 C 22.551 5 23 5.449 23 6 L 23 20 C 23 20.551 22.551 21 22 21 L 4 21 C 3.449 21 3 20.551 3 20 L 3 6 C 3 5.449 3.449 5 4 5 z M 10.03125 8.0625 C 9.819875 8.062375 9.63025 8.11975 9.46875 8.28125 L 8.28125 9.46875 C 7.95925 9.79275 7.95825 10.303 8.28125 10.625 L 10.65625 13 L 8.28125 15.375 C 7.95725 15.695 7.95825 16.20825 8.28125 16.53125 L 9.46875 17.71875 C 9.79275 18.04075 10.303 18.04175 10.625 17.71875 L 13 15.34375 L 15.375 17.71875 C 15.697 18.04075 16.20725 18.03975 16.53125 17.71875 L 17.71875 16.53125 C 18.03975 16.20725 18.04075 15.697 17.71875 15.375 L 15.34375 13 L 17.71875 10.625 C 18.04075 10.304 18.03975 9.79275 17.71875 9.46875 L 16.53125 8.28125 C 16.20725 7.96025 15.697 7.95925 15.375 8.28125 L 13 10.65625 L 10.625 8.28125 C 10.465 8.11925 10.242625 8.062625 10.03125 8.0625 z"/>
</svg>