<svg xmlns="http://www.w3.org/2000/svg" width="26" height="26" viewBox="0 0 26 26" style="fill: ;">
    <path style="text-indent:0;text-align:start;line-height:normal;text-transform:none;block-progression:tb;-inkscape-font-specification:Bitstream Vera Sans" d="M 13.1875 0 A 1.5020331 1.5020331 0 0 0 13.5 3 C 15.663549 3 16.395419 3.5857325 16.71875 3.96875 C 17.02771 4.3347445 17.001614 4.4845143 17 4.5 C 16.999925 4.5007203 17 4.53125 17 4.53125 L 17 7.6875 A 1.001098 1.001098 0 0 0 17 8.28125 L 17 17.8125 A 1.0001 1.0001 0 0 0 17 18.21875 L 17 21.5 C 17 21.5 17.02466 21.662614 16.71875 22.03125 C 16.412844 22.399886 15.711755 23 13.5 23 A 1.50015 1.50015 0 1 0 13.5 26 C 15.866732 26 17.481149 25.346491 18.5 24.46875 C 19.518851 25.346491 21.133268 26 23.5 26 A 1.50015 1.50015 0 1 0 23.5 23 C 21.288245 23 20.587156 22.399886 20.28125 22.03125 C 19.975344 21.662614 20 21.5 20 21.5 L 20 19 L 25 19 A 1.0001 1.0001 0 0 0 26 18 L 26 8 A 1.0001 1.0001 0 0 0 25 7 L 20 7 L 20 4.5 A 1.50015 1.50015 0 0 0 20 4.46875 C 19.997884 4.4262064 20.008638 4.2916863 20.28125 3.96875 C 20.604581 3.5857325 21.336451 3 23.5 3 A 1.50015 1.50015 0 1 0 23.5 0 C 21.13976 0 19.518666 0.6758189 18.5 1.5625 C 17.481334 0.6758189 15.86024 0 13.5 0 A 1.50015 1.50015 0 0 0 13.34375 0 A 1.5020331 1.5020331 0 0 0 13.1875 0 z M 0.8125 7 A 1.0001 1.0001 0 0 0 0 8 L 0 18 A 1.0001 1.0001 0 0 0 1 19 L 15 19 L 15 17 L 2 17 L 2 9 L 15 9 L 15 7 L 1 7 A 1.0001 1.0001 0 0 0 0.90625 7 A 1.0001 1.0001 0 0 0 0.8125 7 z M 20 9 L 24 9 L 24 17 L 20 17 L 20 9 z M 4 11 L 4 15 L 13 15 L 13 11 L 4 11 z" color="#000" overflow="visible" enable-background="accumulate" font-family="Bitstream Vera Sans"/>
</svg>