<svg xmlns="http://www.w3.org/2000/svg" width="26" height="26" viewBox="0 0 26 26" style="fill: ;">
    <path style="text-indent:0;text-align:start;line-height:normal;text-transform:none;block-progression:tb;-inkscape-font-specification:Bitstream Vera Sans" d="M 19.875 0 A 1.0001 1.0001 0 0 0 19.28125 0.28125 L 13 6.5625 L 9.71875 3.28125 A 1.016466 1.016466 0 1 0 8.28125 4.71875 L 11.5625 8 L 3 8 C 1.343 8 0 9.344 0 11 L 0 23 C 0 24.656 1.343 26 3 26 L 23 26 C 24.657 26 26 24.656 26 23 L 26 11 C 26 9.344 24.657 8 23 8 L 14.4375 8 L 20.71875 1.71875 A 1.0001 1.0001 0 0 0 19.875 0 z M 10.5 10 C 17.945 10 19 10.021 19 17 C 19 23.98 17.872 24 10.5 24 C 3.094 24 2 23.926 2 17 C 2 10.076 3.094 10 10.5 10 z M 22.5 12.9375 C 23.366 12.9375 24.0625 13.634 24.0625 14.5 C 24.0625 15.366 23.366 16.0625 22.5 16.0625 C 21.634 16.0625 20.9375 15.366 20.9375 14.5 C 20.9375 13.634 21.634 12.9375 22.5 12.9375 z M 22.5 16.9375 C 23.366 16.9375 24.0625 17.634 24.0625 18.5 C 24.0625 19.366 23.366 20.0625 22.5 20.0625 C 21.634 20.0625 20.9375 19.366 20.9375 18.5 C 20.9375 17.634 21.634 16.9375 22.5 16.9375 z" color="#000" overflow="visible" enable-background="accumulate" font-family="Bitstream Vera Sans"/>
</svg>