<svg xmlns="http://www.w3.org/2000/svg" width="26" height="26" viewBox="0 0 26 26" style="fill: ;">
    <path style="text-indent:0;text-align:start;line-height:normal;text-transform:none;block-progression:tb;-inkscape-font-specification:Bitstream Vera Sans" d="M 19 0.0625 A 0.79995919 0.79995919 0 0 0 18.8125 0.09375 A 0.79995919 0.79995919 0 0 0 18.4375 0.3125 L 0.3125 18.4375 A 0.79995919 0.79995919 0 0 0 0.3125 19.53125 L 6.46875 25.6875 A 0.79995919 0.79995919 0 0 0 7.125 25.90625 A 0.79995919 0.79995919 0 0 0 7.5625 25.6875 L 25.6875 7.5625 A 0.79995919 0.79995919 0 0 0 25.6875 6.46875 L 19.53125 0.3125 A 0.79995919 0.79995919 0 0 0 19.46875 0.25 A 0.79995919 0.79995919 0 0 0 19.4375 0.21875 A 0.79995919 0.79995919 0 0 0 19.15625 0.09375 A 0.79995919 0.79995919 0 0 0 19 0.0625 z M 18.96875 2.03125 L 23.96875 7 L 7 23.96875 L 2 19 L 3.21875 17.78125 L 4.75 19.3125 A 0.80008001 0.80008001 0 0 0 5.53125 19.59375 A 0.80008001 0.80008001 0 0 0 5.6875 19.53125 A 0.80008001 0.80008001 0 0 0 5.75 19.5 A 0.80008001 0.80008001 0 0 0 5.90625 19.40625 A 0.80008001 0.80008001 0 0 0 5.9375 19.375 A 0.80008001 0.80008001 0 0 0 6.0625 19.25 A 0.80008001 0.80008001 0 0 0 5.875 18.1875 L 4.34375 16.65625 L 5.34375 15.65625 L 6.875 17.1875 A 0.80008001 0.80008001 0 0 0 7.65625 17.46875 A 0.80008001 0.80008001 0 0 0 7.8125 17.40625 A 0.80008001 0.80008001 0 0 0 7.875 17.375 A 0.80008001 0.80008001 0 0 0 8.03125 17.28125 A 0.80008001 0.80008001 0 0 0 8.0625 17.25 A 0.80008001 0.80008001 0 0 0 8.1875 17.125 A 0.80008001 0.80008001 0 0 0 8 16.0625 L 6.46875 14.53125 L 7.46875 13.53125 L 10.375 16.46875 A 0.80008001 0.80008001 0 0 0 10.5625 16.625 A 0.80008001 0.80008001 0 0 0 10.625 16.65625 A 0.80008001 0.80008001 0 0 0 10.78125 16.71875 A 0.80008001 0.80008001 0 0 0 10.84375 16.75 A 0.80008001 0.80008001 0 0 0 11.15625 16.75 A 0.80008001 0.80008001 0 0 0 11.3125 16.6875 A 0.80008001 0.80008001 0 0 0 11.375 16.65625 A 0.80008001 0.80008001 0 0 0 11.53125 16.5625 A 0.80008001 0.80008001 0 0 0 11.5625 16.53125 A 0.80008001 0.80008001 0 0 0 11.6875 16.40625 A 0.80008001 0.80008001 0 0 0 11.5 15.34375 L 8.59375 12.40625 L 9.5625 11.4375 L 11.09375 12.9375 A 0.80661934 0.80661934 0 0 0 11.90625 13.15625 A 0.80661934 0.80661934 0 0 0 12.3125 12.875 A 0.80661934 0.80661934 0 0 0 12.25 11.8125 L 10.71875 10.28125 L 11.6875 9.3125 L 13.21875 10.8125 A 0.80661934 0.80661934 0 0 0 14.03125 11.03125 A 0.80661934 0.80661934 0 0 0 14.4375 10.75 A 0.80661934 0.80661934 0 0 0 14.375 9.6875 L 12.84375 8.15625 L 13.8125 7.1875 L 16.75 10.09375 A 0.80008001 0.80008001 0 0 0 17.15625 10.34375 A 0.80008001 0.80008001 0 0 0 17.21875 10.375 A 0.80008001 0.80008001 0 0 0 17.53125 10.375 A 0.80008001 0.80008001 0 0 0 17.6875 10.3125 A 0.80008001 0.80008001 0 0 0 17.75 10.28125 A 0.80008001 0.80008001 0 0 0 17.90625 10.1875 A 0.80008001 0.80008001 0 0 0 17.9375 10.15625 A 0.80008001 0.80008001 0 0 0 18.0625 10.03125 A 0.80008001 0.80008001 0 0 0 17.875 8.96875 L 14.9375 6.0625 L 15.9375 5.0625 L 17.46875 6.59375 A 0.80661934 0.80661934 0 0 0 18.21875 6.8125 A 0.80661934 0.80661934 0 0 0 18.375 6.75 A 0.80661934 0.80661934 0 0 0 18.4375 6.71875 A 0.80661934 0.80661934 0 0 0 18.5625 6.625 A 0.80661934 0.80661934 0 0 0 18.59375 5.4375 L 17.0625 3.9375 L 18.96875 2.03125 z"/>
</svg>