<svg xmlns="http://www.w3.org/2000/svg" width="26" height="26" viewBox="0 0 26 26" style="fill: ;">
    <path d="M 11.46875 0.96875 L 10.90625 4.53125 C 10.05225 4.74125 9.234 5.059 8.5 5.5 L 5.5625 3.40625 L 3.4375 5.53125 L 5.5 8.46875 C 5.055 9.20575 4.715 10.015 4.5 10.875 L 0.96875 11.46875 L 0.96875 14.46875 L 4.5 15.09375 C 4.713 15.95175 5.053 16.762 5.5 17.5 L 3.40625 20.4375 L 5.53125 22.5625 L 8.46875 20.5 C 9.20475 20.942 10.02 21.25775 10.875 21.46875 L 11.46875 25.03125 L 14.46875 25.03125 L 15.125 21.46875 C 15.976 21.25375 16.77 20.91275 17.5 20.46875 L 20.46875 22.5625 L 22.59375 20.4375 L 20.46875 17.5 C 20.90675 16.77 21.25875 15.974 21.46875 15.125 L 25.03125 14.46875 L 25.03125 11.46875 L 21.46875 10.875 C 21.25675 10.026 20.90675 9.23 20.46875 8.5 L 22.5625 5.53125 L 20.4375 3.40625 L 17.5 5.53125 C 16.768 5.08825 15.94875 4.74425 15.09375 4.53125 L 14.46875 0.96875 L 11.46875 0.96875 z M 13 6.46875 C 16.604 6.46875 19.53125 9.396 19.53125 13 C 19.53125 16.604 16.604 19.53125 13 19.53125 C 9.396 19.53125 6.46875 16.603 6.46875 13 C 6.46875 9.397 9.396 6.46875 13 6.46875 z M 13 8.0625 C 10.282 8.0625 8.0625 10.282 8.0625 13 C 8.0625 15.718 10.282 17.9375 13 17.9375 C 15.718 17.9375 17.9375 15.718 17.9375 13 C 17.9375 10.282 15.718 8.0625 13 8.0625 z M 12.96875 10.9375 C 14.11475 10.9375 15.0625 11.853 15.0625 13 C 15.0625 14.146 14.11475 15.0625 12.96875 15.0625 C 11.82275 15.0625 10.90625 14.146 10.90625 13 C 10.90625 11.853 11.82275 10.9375 12.96875 10.9375 z"/>
</svg>