<svg xmlns="http://www.w3.org/2000/svg" width="26" height="26" viewBox="0 0 26 26" style="fill: ;">
    <path style="text-indent:0;text-align:start;line-height:normal;text-transform:none;block-progression:tb;-inkscape-font-specification:Bitstream Vera Sans" d="M 0.71875 0 A 1.0043849 1.0043849 0 0 0 1 2 L 4.46875 2 C 5.0427563 2 5.2263561 2.1152206 5.375 2.25 C 5.5236439 2.3847794 5.7099016 2.6574153 5.875 3.21875 C 6.2093135 4.3540228 10.5625 19.15625 10.5625 19.15625 A 1.0001 1.0001 0 0 0 10.59375 19.25 C 10.59375 19.25 11.702951 22 14.5 22 L 22.34375 22 A 1.0001 1.0001 0 1 0 22.34375 20 L 14.5 20 C 13.025049 20 12.4375 18.5 12.4375 18.5 C 12.435881 18.494487 12.291097 18.033512 12.28125 18 L 20.40625 18 C 21.43625 18 21.902 17.1355 22 16.8125 L 25.59375 9.09375 C 26.14975 7.75975 25.8595 6 23.8125 6 L 9.3125 6 C 9.1458942 6 8.9607168 6.0419601 8.78125 6.09375 C 8.4217807 4.8707317 7.8540211 2.9033686 7.78125 2.65625 C 7.5713484 1.9425847 7.2911061 1.2689706 6.71875 0.75 C 6.1463939 0.23102938 5.3497437 0 4.46875 0 L 1 0 A 1.0001 1.0001 0 0 0 0.90625 0 A 1.001098 1.001098 0 0 0 0.8125 0 A 1.0043849 1.0043849 0 0 0 0.71875 0 z M 9.625 8.0625 L 13.84375 8.0625 L 13.84375 9.84375 L 10.1875 9.84375 L 9.71875 8.34375 C 9.68575 8.23375 9.638 8.1385 9.625 8.0625 z M 15.15625 8.0625 L 17.84375 8.0625 L 17.84375 9.84375 L 15.15625 9.84375 L 15.15625 8.0625 z M 19.15625 8.0625 L 23.78125 8.0625 C 23.76925 8.1315 23.75175 8.19525 23.71875 8.28125 L 23 9.84375 L 19.15625 9.84375 L 19.15625 8.0625 z M 10.59375 11.15625 L 13.84375 11.15625 L 13.84375 12.84375 L 11.125 12.84375 L 10.59375 11.15625 z M 15.15625 11.15625 L 17.84375 11.15625 L 17.84375 12.84375 L 15.15625 12.84375 L 15.15625 11.15625 z M 19.15625 11.15625 L 22.375 11.15625 L 21.59375 12.84375 L 19.15625 12.84375 L 19.15625 11.15625 z M 11.53125 14.15625 L 13.84375 14.15625 L 13.84375 15.9375 L 12.1875 15.9375 C 12.1485 15.9375 12.12575 15.92425 12.09375 15.90625 L 11.53125 14.15625 z M 15.15625 14.15625 L 17.84375 14.15625 L 17.84375 15.9375 L 15.15625 15.9375 L 15.15625 14.15625 z M 19.15625 14.15625 L 21 14.15625 L 20.15625 15.9375 L 19.15625 15.9375 L 19.15625 14.15625 z M 14 22.1875 C 12.998708 22.1875 12.1875 22.998708 12.1875 24 C 12.1875 25.001292 12.998708 25.8125 14 25.8125 C 15.001292 25.8125 15.8125 25.001292 15.8125 24 C 15.8125 22.998708 15.001292 22.1875 14 22.1875 z M 20 22.1875 C 18.998708 22.1875 18.1875 22.998708 18.1875 24 C 18.1875 25.001292 18.998708 25.8125 20 25.8125 C 21.001292 25.8125 21.8125 25.001292 21.8125 24 C 21.8125 22.998708 21.001292 22.1875 20 22.1875 z"/>
</svg>