<svg xmlns="http://www.w3.org/2000/svg" viewBox="0 0 26 26" enable-background="new 0 0 26 26" style="fill: ;">
    <path style="text-indent:0;text-align:start;line-height:normal;text-transform:none;block-progression:tb;-inkscape-font-specification:Bitstream Vera Sans" d="M 6.59375 1 C 5.1751225 1 3.6908684 1.9171708 2.375 3.625 C 1.0591316 5.3328292 0.04054047 7.9070902 0.09375 11.3125 C 0.09375 12.93869 0.61261739 14.742753 1.59375 16.25 C 1.7384684 16.472321 1.9872546 16.604662 2.15625 16.8125 C 1.4679457 17.644458 0.28125 19.21875 0.28125 19.21875 A 1.0001 1.0001 0 1 0 1.71875 20.59375 C 1.71875 20.59375 2.9223229 18.984061 3.5625 18.21875 C 4.3001811 18.687759 5.1444761 19 6.09375 19 C 7.8020833 19 9.405642 18.183366 10.78125 17.0625 C 10.975893 16.903902 11.094224 16.670799 11.28125 16.5 C 11.722292 16.808883 12.240751 17 12.8125 17 C 13.770833 17 14.584768 16.542713 15.28125 16 C 15.977732 15.457287 16.57495 14.803367 17.125 14.15625 C 17.493697 13.722489 17.763653 13.362477 18.0625 13 C 18.02642 13.47149 17.99633 13.934794 18 14.375 C 18.0019 14.605088 18.01222 14.811913 18.09375 15.09375 C 18.13452 15.234668 18.16997 15.427891 18.34375 15.625 C 18.517535 15.822109 18.872222 16 19.1875 16 C 20.004167 16 20.612108 15.542273 21.0625 15.09375 C 21.512892 14.645227 21.873407 14.129111 22.28125 13.65625 C 23.096935 12.710528 23.880108 12 25 12 A 1.0001 1.0001 0 1 0 25 10 C 23.019892 10 21.690565 11.289472 20.78125 12.34375 C 20.499284 12.670667 20.287345 12.893737 20.0625 13.15625 C 20.0652 13.12024 20.0598 13.09872 20.0625 13.0625 C 20.10062 12.554236 20.16221 12.058698 20.125 11.5625 C 20.106393 11.314401 20.078528 11.056108 19.9375 10.75 C 19.796472 10.443892 19.329167 10 18.8125 10 C 18.270833 10 17.965542 10.237784 17.71875 10.4375 C 17.471958 10.637216 17.256186 10.870355 17.03125 11.125 C 16.581378 11.634289 16.1062 12.240867 15.59375 12.84375 C 15.0813 13.446633 14.537893 14.042713 14.03125 14.4375 C 13.524607 14.832287 13.104167 15 12.8125 15 C 12.74627 15 12.7129 14.886594 12.65625 14.875 C 13.182713 14.241802 13.831455 13.698496 14.25 13.03125 C 15.163345 11.575193 15.797732 10.134403 16 8.875 C 16.101134 8.2452986 16.136613 7.6325946 15.84375 7.03125 C 15.550887 6.4299054 14.784028 6 14.09375 6 C 12.749306 6 11.618475 6.8691618 10.84375 8.03125 C 10.069025 9.1933382 9.59375 10.717361 9.59375 12.40625 C 9.59375 13.283107 9.8685359 14.020047 10.15625 14.75 C 9.9184022 14.979938 9.7463868 15.29924 9.5 15.5 C 8.344358 16.441634 7.1354167 17 6.09375 17 C 5.6408355 17 5.2370336 16.802402 4.84375 16.59375 C 5.3114964 15.971715 5.3470221 16.054487 5.84375 15.3125 C 7.8918118 12.253208 10 8.34176 10 4.59375 C 10 4.1485119 9.9697181 3.3442236 9.5 2.53125 C 9.0302819 1.7182764 7.9816288 1 6.59375 1 z M 6.59375 3 C 7.4058712 3 7.5697181 3.2192236 7.75 3.53125 C 7.9302819 3.8432764 8 4.3389881 8 4.59375 C 8 7.54574 6.1081882 11.303042 4.15625 14.21875 C 3.7570592 14.815041 3.7573173 14.733127 3.375 15.25 C 3.3476126 15.209908 3.3081017 15.1975 3.28125 15.15625 C 2.5373826 14.013497 2.09375 12.48631 2.09375 11.3125 A 1.0001 1.0001 0 0 0 2.09375 11.28125 C 2.0469595 8.2866598 2.9346184 6.2171708 3.96875 4.875 C 5.0028816 3.5328292 6.3123775 3 6.59375 3 z M 14.03125 8.03125 C 14.04499 8.105049 14.08346 8.2374368 14.03125 8.5625 C 13.902268 9.3655972 13.374155 10.674807 12.5625 11.96875 C 12.339425 12.324377 11.978679 12.588324 11.71875 12.9375 C 11.69496 12.729915 11.59375 12.633846 11.59375 12.40625 C 11.59375 11.095139 11.974725 9.9129118 12.5 9.125 C 13.002489 8.3712671 13.5829 8.0598044 14.03125 8.03125 z M 0 23 L 0 25 L 26 25 L 26 23 L 0 23 z" color="#000" overflow="visible" enable-background="accumulate" font-family="Bitstream Vera Sans"/>
</svg>