<svg xmlns="http://www.w3.org/2000/svg" version="1" viewBox="0 0 26 26" enable-background="new 0 0 26 26" style="fill: ;">
    <path style="text-indent:0;text-align:start;line-height:normal;text-transform:none;block-progression:tb;-inkscape-font-specification:Bitstream Vera Sans" d="M 5.8125 2 C 2.6483974 2 0 4.6483974 0 7.8125 L 0 18.1875 C 0 21.351603 2.6483974 24 5.8125 24 L 20.1875 24 C 23.351603 24 26 21.351603 26 18.1875 L 26 7.8125 C 26 4.6483974 23.351603 2 20.1875 2 L 5.8125 2 z M 5.8125 4 L 20.1875 4 C 22.223397 4 24 5.7766026 24 7.8125 L 24 9 L 18.15625 9 L 18 9 C 17.445455 9 17 8.5545455 17 8 C 17 7.4454545 17.445455 7 18 7 A 1.0001 1.0001 0 1 0 18 5 C 16.354545 5 15 6.3545455 15 8 C 15 9.2923674 15.844157 10.394384 17 10.8125 L 17 15.78125 C 15.801826 16.594829 15 17.961622 15 19.5 C 15 20.423026 15.293102 21.281096 15.78125 22 L 10.21875 22 C 10.706898 21.281096 11 20.423026 11 19.5 C 11 17.961622 10.198174 16.594829 9 15.78125 L 9 10.8125 C 10.155843 10.394384 11 9.2923674 11 8 C 11 6.3545455 9.6454545 5 8 5 L 6 5 A 1.0001 1.0001 0 0 0 5.90625 5 A 1.001098 1.001098 0 0 0 5.8125 5 A 1.0043849 1.0043849 0 0 0 6 7 L 8 7 C 8.5545455 7 9 7.4454545 9 8 C 9 8.5545455 8.5545455 9 8 9 L 7.90625 9 L 2 9 L 2 7.8125 C 2 5.7766026 3.7766026 4 5.8125 4 z M 2 11 L 7 11 L 7 15 L 2 15 L 2 11 z M 19 11 L 24 11 L 24 15 L 19 15 L 19 11 z M 2 17 L 6.5 17 C 7.8385965 17 9 18.161404 9 19.5 C 9 20.838596 7.8385965 22 6.5 22 L 5.8125 22 C 3.7766026 22 2 20.223397 2 18.1875 L 2 17 z M 19.5 17 L 24 17 L 24 18.1875 C 24 20.223397 22.223397 22 20.1875 22 L 19.5 22 C 18.161404 22 17 20.838596 17 19.5 C 17 18.161404 18.161404 17 19.5 17 z"/>
</svg>