<svg xmlns="http://www.w3.org/2000/svg" width="26" height="26" viewBox="0 0 26 26" style="fill: ;">
    <path d="M 7 5 C 6.449 5 6 5.449 6 6 L 6 20 C 6 20.551 6.449 21 7 21 L 10 21 C 10.551 21 11 20.551 11 20 L 11 15.125 L 18.09375 20.75 C 18.49675 20.953 18.991 20.9205 19.375 20.6875 C 19.761 20.4555 20 20.03775 20 19.59375 L 20 6.40625 C 20 5.96325 19.761 5.5455 19.375 5.3125 C 19.167 5.1865 18.9265 5.125 18.6875 5.125 C 18.4865 5.125 18.27875 5.158 18.09375 5.25 L 11 10.875 L 11 6 C 11 5.449 10.551 5 10 5 L 7 5 z"/>
</svg>