<svg xmlns="http://www.w3.org/2000/svg" width="26" height="26" viewBox="0 0 26 26" style="fill: ;">
    <path d="M 1 0 C 0.449 0 0 0.449 0 1 L 0 17 C 0 17.551 0.449 18 1 18 L 17 18 C 17.551 18 18 17.551 18 17 L 18 1 C 18 0.449 17.551 0 17 0 L 1 0 z M 2 2 L 16 2 L 16 14 L 2 14 L 2 2 z M 19 2.90625 L 19 4.9375 L 20.8125 5.25 L 19 15.75 L 19 17 C 19 18.104 18.103 19 17 19 L 6.40625 19 L 19.09375 21.1875 C 19.63775 21.2815 20.157 20.918 20.25 20.375 L 22.9375 4.59375 C 23.0315 4.05075 22.669 3.5295 22.125 3.4375 L 19 2.90625 z M 9 3.9375 C 7.849 3.9375 6.875 4.72875 6.875 6.21875 C 6.875 7.19275 7.30925 8.17125 7.90625 8.78125 C 8.14025 9.39125 7.74225 9.62325 7.65625 9.65625 C 6.45025 10.09225 5.03125 10.9015 5.03125 11.6875 L 5.03125 12.96875 L 12.96875 12.96875 L 12.96875 11.6875 C 12.96975 10.8775 11.54725 10.07425 10.28125 9.65625 C 10.22325 9.63725 9.86375 9.47525 10.09375 8.78125 C 10.68875 8.17025 11.15625 7.18775 11.15625 6.21875 C 11.15625 4.72975 10.151 3.9375 9 3.9375 z M 23.40625 7.90625 L 23.0625 9.875 L 23.78125 10.03125 L 21.03125 21.71875 L 20.625 21.625 C 20.263 21.976 19.787 22.1875 19.25 22.1875 C 19.139 22.1875 19.02025 22.17525 18.90625 22.15625 L 5.0625 19.78125 L 4.78125 20.96875 C 4.65825 21.50575 4.99425 22.0625 5.53125 22.1875 L 21.09375 25.84375 C 21.63075 25.97075 22.1855 25.62875 22.3125 25.09375 L 25.9375 9.53125 C 26.0645 8.99525 25.75675 8.4395 25.21875 8.3125 L 23.40625 7.90625 z"/>
</svg>