<svg xmlns="http://www.w3.org/2000/svg" width="26" height="26" viewBox="0 0 26 26" style="fill: ;">
    <path d="M 5 0 C 3.344 0 2.625 1.422 2 3 L 0.0625 8.25 C 0.3465 8.094 0.654 8 1 8 L 25 8 C 25.346 8 25.6535 8.094 25.9375 8.25 L 24 3 C 23.297 1.469 22.656 0 21 0 L 5 0 z M 1 9 C 0.449 9 0 9.449 0 10 L 0 13 C 0 13.551 0.449 14 1 14 L 25 14 C 25.551 14 26 13.551 26 13 L 26 10 C 26 9.449 25.551 9 25 9 L 1 9 z M 22.5 10 C 23.328 10 24 10.672 24 11.5 C 24 12.328 23.328 13 22.5 13 C 21.672 13 21 12.328 21 11.5 C 21 10.672 21.672 10 22.5 10 z M 1 15 C 0.449 15 0 15.449 0 16 L 0 19 C 0 19.551 0.449 20 1 20 L 25 20 C 25.551 20 26 19.551 26 19 L 26 16 C 26 15.449 25.551 15 25 15 L 1 15 z M 22.5 16 C 23.328 16 24 16.672 24 17.5 C 24 18.328 23.328 19 22.5 19 C 21.672 19 21 18.328 21 17.5 C 21 16.672 21.672 16 22.5 16 z M 1 21 C 0.449 21 0 21.449 0 22 L 0 25 C 0 25.551 0.449 26 1 26 L 25 26 C 25.551 26 26 25.551 26 25 L 26 22 C 26 21.449 25.551 21 25 21 L 1 21 z M 22.5 22 C 23.328 22 24 22.672 24 23.5 C 24 24.328 23.328 25 22.5 25 C 21.672 25 21 24.328 21 23.5 C 21 22.672 21.672 22 22.5 22 z"/>
</svg>