<svg xmlns="http://www.w3.org/2000/svg" width="26" height="26" viewBox="0 0 26 26" style="fill: ;">
    <path d="M 12.90625 -0.03125 A 1.0001 1.0001 0 0 0 12.78125 0 A 1.0001 1.0001 0 0 0 12 1 L 12 2 L 3 2 C 1.344 2 0 3.343 0 5 L 0 18 C 0 19.656 1.344 21 3 21 L 12 21 L 12 21.375 L 6.5625 24.09375 A 1.0063276 1.0063276 0 0 0 7.4375 25.90625 L 12 23.625 L 12 24 A 1.0001 1.0001 0 1 0 14 24 L 14 23.625 L 18.5625 25.90625 A 1.0063276 1.0063276 0 0 0 19.4375 24.09375 L 14 21.375 L 14 21 L 23 21 C 24.656 21 26 19.656 26 18 L 26 5 C 26 3.343 24.656 2 23 2 L 14 2 L 14 1 A 1.0001 1.0001 0 0 0 12.90625 -0.03125 z M 2 5 L 24 5 L 24 18 L 2 18 L 2 5 z M 20.875 6 A 1.0001 1.0001 0 0 0 20.28125 6.28125 L 17 9.5625 L 14.71875 7.28125 A 1.0001 1.0001 0 0 0 13.125 7.5 L 10.15625 12.6875 L 8.9375 9.625 A 1.0001 1.0001 0 0 0 7.28125 9.28125 L 4.28125 12.28125 A 1.016466 1.016466 0 1 0 5.71875 13.71875 L 7.625 11.8125 L 9.0625 15.375 A 1.0001 1.0001 0 0 0 10.875 15.5 L 14.21875 9.65625 L 16.28125 11.71875 A 1.0001 1.0001 0 0 0 17.71875 11.71875 L 21.71875 7.71875 A 1.0001 1.0001 0 0 0 20.875 6 z"/>
</svg>