<svg xmlns="http://www.w3.org/2000/svg" width="26" height="26" viewBox="0 0 26 26" style="fill: ;">
    <path d="M 12.5 0 C 10.015 0 8 2.015 8 4.5 L 8 21.5 C 8 23.985 10.015 26 12.5 26 C 14.985 26 17 23.985 17 21.5 L 17 4.5 C 17 2.015 14.985 0 12.5 0 z M 0.0625 0.40625 C -0.1025 1.45825 -0.028 4.04225 0.875 5.28125 L 7 13.78125 L 7 7.46875 L 5.875 7.3125 L 6.09375 5.96875 L 4.75 5.75 L 4.96875 4.4375 L 3.625 4.21875 L 3.84375 2.875 L 2.5 2.6875 L 2.71875 1.34375 L 1.375 1.125 C 0.983 1.034 0.3105 0.54125 0.0625 0.40625 z M 12.5 3 C 13.328 3 14 3.672 14 4.5 C 14 5.328 13.328 6 12.5 6 C 11.672 6 11 5.328 11 4.5 C 11 3.672 11.672 3 12.5 3 z M 18 4 L 18 10.53125 C 18 10.53125 19.8025 12.71275 20.9375 14.09375 C 21.9435 15.31775 23.95325 16.8365 25.90625 16.1875 C 25.07525 14.2395 24.30625 12.7745 23.65625 11.3125 C 21.59125 8.4665 18 4 18 4 z M 1 12 C 0.253 12.072 0 12.8055 0 14.1875 C 0 17.9075 7 22 7 22 L 7 19.15625 C 7 19.15625 5 18.42975 5 16.09375 C 5 14.77575 4.691 13.946 4 13.375 C 3.781 13.194 3.09925 12.93725 2.78125 13.15625 C 3.05225 13.63325 3.82525 15.33875 3.40625 15.59375 C 2.83025 15.94675 0.832 15.274 1 12 z M 12 20 L 13 20 L 13 21 L 14 21 L 14 22 L 13 22 L 13 23 L 12 23 L 12 22 L 11 22 L 11 21 L 12 21 L 12 20 z"/>
</svg>