<svg xmlns="http://www.w3.org/2000/svg" width="26" height="26" viewBox="0 0 26 26" style="fill: ;">
    <path d="M 7 0 C 6.449 0 6 0.449 6 1 L 6 4 C 6 4.551 6.449 5 7 5 C 7.551 5 8 4.551 8 4 L 8 1 C 8 0.449 7.551 0 7 0 z M 19 0 C 18.449 0 18 0.449 18 1 L 18 4 C 18 4.551 18.449 5 19 5 C 19.551 5 20 4.551 20 4 L 20 1 C 20 0.449 19.551 0 19 0 z M 3 2 C 1.344 2 0 3.344 0 5 L 0 23 C 0 24.656 1.344 26 3 26 L 23 26 C 24.656 26 26 24.656 26 23 L 26 5 C 26 3.344 24.656 2 23 2 L 21 2 L 21 4 C 21 5.104 20.104 6 19 6 C 17.896 6 17 5.104 17 4 L 17 2 L 9 2 L 9 4 C 9 5.104 8.104 6 7 6 C 5.896 6 5 5.104 5 4 L 5 2 L 3 2 z M 2 9 L 24 9 L 24 23 C 24 23.551 23.551 24 23 24 L 3 24 C 2.449 24 2 23.551 2 23 L 2 9 z M 16.90625 11.15625 C 16.7535 11.1855 16.62475 11.26925 16.53125 11.40625 L 11.625 18.65625 L 9.34375 16.40625 C 9.10775 16.17225 8.737 16.17225 8.5 16.40625 L 7.625 17.25 C 7.388 17.486 7.388 17.888 7.625 18.125 L 11.09375 21.59375 C 11.28875 21.78675 11.599 21.9375 11.875 21.9375 C 12.151 21.9375 12.447 21.761 12.625 21.5 L 18.53125 12.78125 C 18.72025 12.50525 18.651 12.1255 18.375 11.9375 L 17.375 11.25 C 17.2365 11.156 17.059 11.127 16.90625 11.15625 z M 902 1469 L 902 1471 L 928 1471 L 928 1469 L 902 1469 z M 906 1474 L 906 1476 L 924 1476 L 924 1474 L 906 1474 z M 902 1479 L 902 1481 L 928 1481 L 928 1479 L 902 1479 z M 906 1484 L 906 1486 L 924 1486 L 924 1484 L 906 1484 z M 902 1489 L 902 1491 L 928 1491 L 928 1489 L 902 1489 z"/>
</svg>