<svg xmlns="http://www.w3.org/2000/svg" version="1" width="26" height="26" viewBox="0 0 26 26" style="fill: ;">
    <path style="text-indent:0;text-align:start;line-height:normal;text-transform:none;block-progression:tb;-inkscape-font-specification:Bitstream Vera Sans" d="M 7.875 0 A 1.0001 1.0001 0 0 0 7.21875 0.375 L 3.8125 4.65625 L 1.5625 3.15625 A 1.0140613 1.0140613 0 1 0 0.4375 4.84375 L 3.4375 6.84375 A 1.0001 1.0001 0 0 0 4.78125 6.625 L 8.78125 1.625 A 1.0001 1.0001 0 0 0 7.875 0 z M 12 3 L 12 5 L 26 5 L 26 3 L 12 3 z M 7.875 9 A 1.0001 1.0001 0 0 0 7.21875 9.375 L 3.8125 13.65625 L 1.5625 12.15625 A 1.0140613 1.0140613 0 1 0 0.4375 13.84375 L 3.4375 15.84375 A 1.0001 1.0001 0 0 0 4.78125 15.625 L 8.78125 10.625 A 1.0001 1.0001 0 0 0 7.875 9 z M 12 12 L 12 14 L 26 14 L 26 12 L 12 12 z M 7.875 18 A 1.0001 1.0001 0 0 0 7.21875 18.375 L 3.8125 22.65625 L 1.5625 21.15625 A 1.0140613 1.0140613 0 1 0 0.4375 22.84375 L 3.4375 24.84375 A 1.0001 1.0001 0 0 0 4.78125 24.625 L 8.78125 19.625 A 1.0001 1.0001 0 0 0 7.875 18 z M 12 21 L 12 23 L 26 23 L 26 21 L 12 21 z"/>
</svg>