<svg xmlns="http://www.w3.org/2000/svg" viewBox="0 0 26 26" enable-background="new 0 0 26 26" style="fill: ;">
    <path d="M 13 0 C 9.6761905 0 7 2.6761905 7 6 L 7 10 C 4.8 10 3 11.8 3 14 L 3 22 C 3 24.2 4.8 26 7 26 L 19 26 C 21.2 26 23 24.2 23 22 L 23 14 C 23 11.8 21.2 10 19 10 L 9 10 L 9 6 C 9 3.7238095 10.72381 2 13 2 C 15.27619 2 17 3.7238095 17 6 L 17 7 L 19 7 L 19 6 C 19 2.6761905 16.32381 0 13 0 z M 13 15 C 14.1 15 15 15.9 15 17 C 15 17.7 14.6 18.3875 14 18.6875 L 14 21 C 14 21.6 13.6 22 13 22 C 12.4 22 12 21.6 12 21 L 12 18.6875 C 11.4 18.3875 11 17.7 11 17 C 11 15.9 11.9 15 13 15 z"/>
</svg>