<svg xmlns="http://www.w3.org/2000/svg" width="26" height="26" viewBox="0 0 26 26" style="fill: ;">
    <path d="M 4 0 C 1.8 0 0 1.8 0 4 L 0 21 C 0 23.2 1.8 25 4 25 L 15 25 C 15.4 25 15.7 24.90625 16 24.90625 C 14.6 24.60625 13.40625 23.9 12.40625 23 L 4 23 C 2.9 23 2 22.1 2 21 L 2 4 C 2 2.9 2.9 2 4 2 L 10.3125 2 C 11.0125 2.2 11 3.1 11 4 L 11 7 C 11 7.6 11.4 8 12 8 L 15 8 C 16 8 17 8 17 9 L 17 10 L 17.5 10 C 18 10 18.5 10.0875 19 10.1875 L 19 8 C 19 6.9 18.0125 5.8875 16.3125 4.1875 C 16.0125 3.9875 15.8 3.7 15.5 3.5 C 15.3 3.2 15.0125 2.9875 14.8125 2.6875 C 13.1125 0.9875 12.1 5.9211895e-16 11 0 L 4 0 z M 17.5 12 C 14.5 12 12 14.5 12 17.5 C 12 20.5 14.5 23 17.5 23 C 18.77306 23 19.934847 22.528798 20.875 21.78125 L 21.1875 22.09375 C 20.940058 22.479119 20.968598 22.968598 21.3125 23.3125 L 23.8125 25.8125 C 24.2125 26.2125 24.7875 26.2125 25.1875 25.8125 L 25.6875 25.3125 C 26.0875 24.9125 26.0875 24.30625 25.6875 23.90625 L 23.1875 21.40625 C 22.85797 21.07672 22.408607 21.036579 22.03125 21.25 L 21.75 20.9375 C 22.522925 19.989035 23 18.796983 23 17.5 C 23 14.5 20.5 12 17.5 12 z M 17.5 13.5 C 19.7 13.5 21.5 15.3 21.5 17.5 C 21.5 19.7 19.7 21.5 17.5 21.5 C 15.3 21.5 13.5 19.7 13.5 17.5 C 13.5 15.3 15.3 13.5 17.5 13.5 z"/>
</svg>