<svg xmlns="http://www.w3.org/2000/svg" viewBox="0 0 26 26" enable-background="new 0 0 26 26" style="fill: ;">
    <path style="text-indent:0;text-align:start;line-height:normal;text-transform:none;block-progression:tb;-inkscape-font-specification:Bitstream Vera Sans" d="M 6 7 C 2.6981362 7 0 9.6981359 0 13 C 0 16.301864 2.6981362 19 6 19 L 20 19 C 23.301864 19 26 16.301864 26 13 C 26 9.698136 23.301864 7 20 7 C 16.698136 7 14 9.698136 14 13 C 14 14.531968 14.578788 15.937146 15.53125 17 L 10.46875 17 C 11.421213 15.937146 12 14.531968 12 13 C 12 9.6981359 9.3018638 7 6 7 z M 6 9 C 8.2209836 9 10 10.779016 10 13 C 10 15.220984 8.2209836 17 6 17 C 3.7790164 17 2 15.220984 2 13 C 2 10.779016 3.7790164 9 6 9 z M 20 9 C 22.220984 9 24 10.779016 24 13 C 24 15.220984 22.220984 17 20 17 C 17.779016 17 16 15.220984 16 13 C 16 10.779016 17.779016 9 20 9 z" color="#000" overflow="visible" enable-background="accumulate" font-family="Bitstream Vera Sans"/>
</svg>