<svg xmlns="http://www.w3.org/2000/svg" width="26" height="26" viewBox="0 0 26 26" style="fill: ;">
    <path d="M 16.03125 2.0625 C 15.709746 2.064498 15.35525 2.207625 15.03125 2.53125 L 8.4375 9 L 5 9 C 4.449 9 4 9.449 4 10 L 4 16 C 4 16.551 4.449 17 5 17 L 8.4375 17 L 15 23.4375 C 16 24.4375 17 23.9255 17 22.5625 L 17 3.28125 C 17 2.49 16.56709 2.0591699 16.03125 2.0625 z M 18.53125 9.09375 A 1.0001 1.0001 0 0 0 18.5 11.0625 C 19.356772 11.286497 20 12.061763 20 13 C 20 13.938237 19.356772 14.713503 18.5 14.9375 A 1.0004882 1.0004882 0 1 0 19 16.875 C 20.721228 16.424997 22 14.849763 22 13 C 22 11.150237 20.721228 9.5750029 19 9.125 A 1.0001 1.0001 0 0 0 18.625 9.09375 A 1.0001 1.0001 0 0 0 18.53125 9.09375 z"/>
</svg>