<svg xmlns="http://www.w3.org/2000/svg" viewBox="0 0 26 26" enable-background="new 0 0 26 26" style="fill: ;">
    <path d="M 12.875 0 A 1.0001 1.0001 0 0 0 12.03125 0.71875 L 10.09375 7.09375 L 6.09375 5 C 5.79375 4.8 5.39375 4.8875 5.09375 5.1875 C 4.79375 5.4875 4.8 5.79375 5 6.09375 L 7.09375 10.09375 L 0.71875 12.03125 A 1.0001 1.0001 0 0 0 0.71875 13.96875 L 7.0625 15.875 L 5 19.90625 C 4.8 20.20625 4.8875 20.60625 5.1875 20.90625 C 5.3875 21.10625 5.6125 21.1875 5.8125 21.1875 C 5.9125 21.1875 6.0875 21.19375 6.1875 21.09375 L 10.15625 19.03125 L 12.03125 25.28125 A 1.0001 1.0001 0 0 0 13.96875 25.28125 L 15.875 18.9375 L 19.8125 21 C 19.9125 21.1 20.0875 21.09375 20.1875 21.09375 C 20.3875 21.09375 20.6125 21.0125 20.8125 20.8125 C 21.1125 20.5125 21.1 20.1125 21 19.8125 L 18.90625 15.90625 L 25.28125 13.96875 A 1.0001 1.0001 0 0 0 25.28125 12.03125 L 19 10.125 L 21 6.09375 C 21.2 5.79375 21.1125 5.39375 20.8125 5.09375 C 20.5125 4.79375 20.1125 4.80625 19.8125 4.90625 L 15.84375 6.96875 L 13.96875 0.71875 A 1.0001 1.0001 0 0 0 12.875 0 z M 13 4.46875 L 13 13 L 15.09375 10.90625 A 1.0001 1.0001 0 0 0 15.5 11.15625 L 21.53125 13 L 13 13 L 15.09375 15.09375 A 1.0001 1.0001 0 0 0 14.84375 15.5 L 13 21.53125 L 13 13 L 10.90625 15.09375 A 1.0001 1.0001 0 0 0 10.5 14.84375 L 4.46875 13 L 13 13 L 10.90625 10.90625 A 1.0001 1.0001 0 0 0 11.15625 10.5 L 13 4.46875 z"/>
</svg>