<svg xmlns="http://www.w3.org/2000/svg" width="26" height="26" viewBox="0 0 26 26" style="fill: ;">
    <path d="M 19 0 C 16.791 0 15 1.793 15 4 C 15 6.665 18.5 10.30575 18.5 13.96875 L 19.5 13.96875 C 19.501 10.30575 23 6.771 23 4 C 23 1.793 21.209 0 19 0 z M 19 1.9375 C 20.139 1.9375 21.0625 2.862 21.0625 4 C 21.0625 5.141 20.139 6.0625 19 6.0625 C 17.862 6.0625 16.9375 5.141 16.9375 4 C 16.9375 2.862 17.862 1.9375 19 1.9375 z M 13 2 C 6.383 2 1 7.383 1 14 C 1 20.617 6.383 26 13 26 C 19.617 26 25 20.617 25 14 C 25 11.99 24.502 10.1035 23.625 8.4375 C 23.492 8.7005 23.35775 8.95175 23.21875 9.21875 C 22.95575 9.72675 22.6795 10.24 22.4375 10.75 C 22.6865 11.465 22.8595 12.221 22.9375 13 L 21.625 13 C 21.553 13.335 21.5 13.64975 21.5 13.96875 L 21.5 15 L 22.9375 15 C 22.7925 16.447 22.35425 17.8 21.65625 19 L 18.71875 19 C 18.93875 18.062 19.06625 17.02475 19.15625 15.96875 L 18.5 15.96875 L 17.1875 15.96875 C 17.0885 17.06275 16.89425 18.09 16.65625 19 L 9.34375 19 C 9.03675 17.823 8.815 16.477 8.75 15 L 16.5 15 L 16.5 13.96875 C 16.5 13.65075 16.446 13.336 16.375 13 L 8.75 13 C 8.815 11.523 9.03675 10.177 9.34375 9 L 14.6875 9 C 14.3385 8.322 13.99975 7.658 13.71875 7 L 10.03125 7 C 10.85825 5.113 11.951 4 13 4 C 13 3.305 13.12475 2.65225 13.34375 2.03125 C 13.22875 2.02725 13.116 2 13 2 z M 8.875 4.90625 C 8.5 5.52725 8.163 6.224 7.875 7 L 5.875 7 C 6.733 6.126 7.746 5.42025 8.875 4.90625 z M 4.34375 9 L 7.28125 9 C 6.99325 10.23 6.808 11.575 6.75 13 L 3.0625 13 C 3.2065 11.553 3.64575 10.2 4.34375 9 z M 3.0625 15 L 6.75 15 C 6.809 16.425 6.99325 17.77 7.28125 19 L 4.34375 19 C 3.64675 17.8 3.2075 16.447 3.0625 15 z M 5.875 21 L 7.875 21 C 8.163 21.776 8.5 22.47275 8.875 23.09375 C 7.746 22.57975 6.733 21.874 5.875 21 z M 10.03125 21 L 15.96875 21 C 15.14175 22.887 14.049 24 13 24 C 11.951 24 10.85725 22.887 10.03125 21 z M 18.125 21 L 20.125 21 C 19.267 21.874 18.254 22.57975 17.125 23.09375 C 17.5 22.47375 17.837 21.777 18.125 21 z"/>
</svg>