<svg xmlns="http://www.w3.org/2000/svg" width="26" height="26" viewBox="0 0 26 26" style="fill: ;">
    <path d="M 3 0 C 1.344 0 0 1.344 0 3 L 0 7 L 0 23 C 0 24.656 1.344 26 3 26 L 23 26 C 24.656 26 26 24.656 26 23 L 26 6 C 26 4.344 24.656 3 23 3 L 13.1875 3 A 1.0001 1.0001 0 0 0 12.78125 3 L 11 3 C 11 1.344 9.656 0 8 0 L 3 0 z M 3 5 L 12 5 L 12 6 A 1.0001 1.0001 0 1 0 14 6 L 14 5 L 23 5 C 23.552 5 24 5.448 24 6 L 24 23 C 24 23.552 23.552 24 23 24 L 3 24 C 2.448 24 2 23.552 2 23 L 2 6 C 2 5.448 2.448 5 3 5 z M 12.90625 7.96875 A 1.0001 1.0001 0 0 0 12.78125 8 A 1.0001 1.0001 0 0 0 12 9 L 12 11 A 1.0001 1.0001 0 1 0 14 11 L 14 9 A 1.0001 1.0001 0 0 0 12.90625 7.96875 z M 12 13 C 11.449 13 11 13.449 11 14 L 11 15 C 11 15.339549 11.177686 15.631626 11.4375 15.8125 C 10.76149 17.341005 10.15625 19.230953 10.15625 20.09375 C 10.15625 21.66275 11.43 22.9375 13 22.9375 C 14.57 22.9375 15.84375 21.66375 15.84375 20.09375 C 15.84375 19.230403 15.23851 17.340844 14.5625 15.8125 C 14.822314 15.631626 15 15.339549 15 15 L 15 14 C 15 13.449 14.551 13 14 13 L 12 13 z M 13 18.46875 C 13.889 18.46875 14.625 19.20375 14.625 20.09375 C 14.625 20.98375 13.89 21.6875 13 21.6875 C 12.11 21.6875 11.375 20.98275 11.375 20.09375 C 11.375 19.20275 12.111 18.46875 13 18.46875 z"/>
</svg>