<svg xmlns="http://www.w3.org/2000/svg" width="26" height="26" viewBox="0 0 26 26" style="fill: ;">
    <path d="M 12 0 C 6.412269 0 1.2476806 3.476786 2.21875 11.75 C 2.0459324 11.88836 1.8792272 12.036256 1.75 12.21875 C 1.2467674 12.929413 1 13.852008 1 14.84375 C 1 16.088719 1.733925 17.047089 2.5 17.75 C 3.0609458 18.264695 3.6326414 18.623952 4.28125 18.8125 C 4.7904735 20.452902 5.729597 21.812541 6.84375 22.75 A 1.0001 1.0001 0 1 0 8.125 21.21875 C 7.1187038 20.372043 6.2777963 19.241345 5.96875 17.78125 A 1.0001 1.0001 0 0 0 5 17 C 5.1230969 17 4.354175 16.749589 3.84375 16.28125 C 3.333325 15.812911 3 15.225781 3 14.84375 C 3 14.380058 3.1114214 13.991785 3.25 13.6875 A 1.0001 1.0001 0 0 0 5 13 L 5 12.15625 A 1.0001 1.0001 0 0 0 5 12.0625 C 5.0406039 11.348585 5.1335572 10.69377 5.28125 10.09375 C 6.6587598 9.6196484 7.8075 10.38875 9 6.875 C 10.740497 12.047507 15.245669 9.0888751 18.34375 8.9375 C 18.708178 9.8228568 18.933167 10.862738 19 12.0625 A 1.0001 1.0001 0 0 0 19 12.15625 L 19 13 A 1.0001 1.0001 0 0 0 20 14 L 20 16.46875 C 19.566223 16.810413 19.084955 17 19 17 A 1.0001 1.0001 0 0 0 18.03125 17.78125 C 17.827033 18.747027 17.373253 19.55991 16.8125 20.25 A 1.0103227 1.0103227 0 1 0 18.375 21.53125 C 18.975556 20.792176 19.372999 19.825379 19.6875 18.8125 C 20.277816 18.661508 20.82562 18.393618 21.3125 18 L 22 18 C 21.755425 19.281275 21.303516 20.247851 20.84375 20.9375 C 20.193436 21.912971 19.634296 22.254249 19.59375 22.28125 C 19.56498 22.2959 19.209672 22.491601 18.1875 22.71875 C 17.406902 22.892217 16.284138 23.077348 14.78125 23.15625 C 14.57986 22.041333 13.411957 21.1875 12 21.1875 C 10.446423 21.1875 9.1875 22.222565 9.1875 23.5 C 9.1875 24.777435 10.446423 25.8125 12 25.8125 C 12.970986 25.8125 13.838234 25.396512 14.34375 24.78125 C 16.194626 24.707173 17.599994 24.49514 18.5625 24.28125 C 19.748751 24.017639 20.34375 23.71875 20.34375 23.71875 A 0.80008001 0.80008001 0 0 0 20.4375 23.65625 C 20.4375 23.65625 21.330394 23.051285 22.15625 21.8125 C 22.823645 20.811407 23.486071 19.357799 23.71875 17.4375 C 24.44698 16.892558 24.90625 16.001933 24.90625 15 L 24.90625 13 C 24.90625 11.343 23.656 10 22 10 L 21.84375 10 C 21.84827 3.002426 17.174469 0 12 0 z M 20.65625 9.875 C 20.686801 9.9169325 20.720891 9.9547314 20.75 10 L 20.65625 10 C 20.648005 9.9587336 20.664871 9.916022 20.65625 9.875 z M 8 12 C 6.8954305 12 6 12.895431 6 14 C 6 15.104569 6.8954305 16 8 16 C 9.1045695 16 10 15.104569 10 14 C 10 12.895431 9.1045695 12 8 12 z M 16 12 C 14.895431 12 14 12.895431 14 14 C 14 15.104569 14.895431 16 16 16 C 17.104569 16 18 15.104569 18 14 C 18 12.895431 17.104569 12 16 12 z"/>
</svg>