<svg xmlns="http://www.w3.org/2000/svg" width="26" height="26" viewBox="0 0 26 26" style="fill: ;">
    <path d="M 13 0.1875 C 11.575493 0.1875 10.404519 1.2514176 10.21875 2.625 C 8.544605 3.1753343 7.1875 4.2638184 7.1875 6 C 7.1875 8.658 8.506 9.8125 13 9.8125 C 17.494 9.8125 18.8125 8.658 18.8125 6 C 18.8125 4.2638184 17.455691 3.1753343 15.78125 2.625 C 15.595481 1.2514176 14.424507 0.1875 13 0.1875 z M 2.90625 2.96875 A 1.0001 1.0001 0 0 0 2.78125 3 A 1.0001 1.0001 0 0 0 2 4 C 2 7.2574426 3.0996649 9.32964 4.28125 10.5 C 4.5986125 10.814348 4.9098428 11.050348 5.21875 11.25 C 5.1993825 11.729466 5.1875 12.26788 5.1875 13 L 1 13 A 1.0001 1.0001 0 0 0 0.90625 13 A 1.001098 1.001098 0 0 0 1 15 L 5.40625 15 C 5.5032842 15.489267 5.6186837 15.972624 5.78125 16.4375 C 5.3782857 16.570492 4.9616431 16.743835 4.53125 16.96875 C 2.8096775 17.868415 1 19.786399 1 23 A 1.0001 1.0001 0 1 0 3 23 C 3 20.484601 4.1903225 19.418085 5.46875 18.75 C 5.8747609 18.537825 6.2591626 18.391334 6.625 18.28125 C 7.858632 20.404667 9.7836268 22.027864 12 22.65625 L 12 15 C 12 12 14 12 14 15 L 14 22.65625 C 16.216373 22.027864 18.141368 20.404667 19.375 18.28125 C 19.740837 18.391334 20.125239 18.537824 20.53125 18.75 C 21.809677 19.418085 23 20.484601 23 23 A 1.0001 1.0001 0 1 0 25 23 C 25 19.786399 23.190323 17.868415 21.46875 16.96875 C 21.038357 16.743834 20.621714 16.570492 20.21875 16.4375 C 20.381316 15.972624 20.496716 15.489267 20.59375 15 L 25 15 A 1.0001 1.0001 0 1 0 25 13 L 20.8125 13 C 20.8125 12.287449 20.77907 11.737112 20.75 11.28125 C 21.07032 11.077694 21.387946 10.827662 21.71875 10.5 C 22.900335 9.32964 24 7.2574426 24 4 A 1.0001 1.0001 0 0 0 22.78125 3 A 1.0001 1.0001 0 0 0 22 4 C 22 6.8185574 21.099665 8.25186 20.28125 9.0625 C 19.462835 9.87314 18.78125 10.03125 18.78125 10.03125 A 1.0001 1.0001 0 0 0 18.28125 10.21875 A 1.0001 1.0001 0 0 0 18.25 10.25 C 17.086884 10.684303 15.428431 11.1875 13 11.1875 C 9.3405 11.1875 7.382125 9.96225 6.34375 9.5625 C 6.3333284 9.5584879 6.3227381 9.5663388 6.3125 9.5625 C 6.3023467 9.5551926 6.2915116 9.5387716 6.28125 9.53125 C 6.1106148 9.4061772 5.9117474 9.2536639 5.71875 9.0625 C 4.9003351 8.25186 4 6.8185574 4 4 A 1.0001 1.0001 0 0 0 2.90625 2.96875 z"/>
</svg>