<svg xmlns="http://www.w3.org/2000/svg" viewBox="0 0 26 26" enable-background="new 0 0 26 26" style="fill: ;">
    <path style="text-indent:0;text-align:start;line-height:normal;text-transform:none;block-progression:tb;-inkscape-font-specification:Bitstream Vera Sans" d="M 6 0 C 4.3545455 0 3 1.3545455 3 3 L 3 25 L 3 26 L 4 26 L 22 26 L 23 26 L 23 25 L 23 3 C 23 1.3545455 21.645455 0 20 0 L 6 0 z M 6 2 L 20 2 C 20.554545 2 21 2.4454545 21 3 L 21 24 L 19 24 L 19 19 L 14 19 L 14 24 L 5 24 L 5 3 C 5 2.4454545 5.4454545 2 6 2 z M 7 4 L 7 7 L 12 7 L 12 4 L 7 4 z M 14 4 L 14 7 L 19 7 L 19 4 L 14 4 z M 7 9 L 7 12 L 12 12 L 12 9 L 7 9 z M 14 9 L 14 12 L 19 12 L 19 9 L 14 9 z M 7 14 L 7 17 L 12 17 L 12 14 L 7 14 z M 14 14 L 14 17 L 19 17 L 19 14 L 14 14 z M 7 19 L 7 22 L 12 22 L 12 19 L 7 19 z" color="#000" overflow="visible" enable-background="accumulate" font-family="Bitstream Vera Sans"/>
</svg>