<svg xmlns="http://www.w3.org/2000/svg" width="26" height="26" viewBox="0 0 26 26" style="fill: ;">
    <path d="M 4 3 C 1.8033398 3 0 4.8022637 0 7 L 0 19 C 0 21.197063 1.8029372 23 4 23 L 6 23 A 1.0001 1.0001 0 0 0 7 22 L 7 21 L 8 21 L 8 22 A 1.0001 1.0001 0 0 0 9 23 L 17 23 A 1.0001 1.0001 0 0 0 18 22 L 18 21 L 19 21 L 19 22 A 1.0001 1.0001 0 0 0 20 23 L 22 23 C 24.197063 23 26 21.197063 26 19 L 26 7 C 26 4.8022637 24.19666 3 22 3 L 4 3 z M 4 5 L 22 5 C 23.11534 5 24 5.8837363 24 7 L 24 19 C 24 20.114937 23.114937 21 22 21 L 21 21 L 21 20 A 1.0001 1.0001 0 0 0 20 19 L 17 19 A 1.0001 1.0001 0 0 0 16 20 L 16 21 L 10 21 L 10 20 A 1.0001 1.0001 0 0 0 9 19 L 6 19 A 1.0001 1.0001 0 0 0 5 20 L 5 21 L 4 21 C 2.8850628 21 2 20.114937 2 19 L 2 7 C 2 5.8837363 2.8846602 5 4 5 z M 8 7.0625 C 6.86 7.0625 6.03125 7.86975 6.03125 9.34375 C 6.03125 10.30575 6.44025 10.9585 7.03125 11.5625 C 7.26025 12.1665 6.836 12.37425 6.75 12.40625 C 5.558 12.83725 4.0625 13.474 4.0625 14.25 L 4.0625 14.65625 C 4.0625 15.71425 6.103 15.9375 8 15.9375 C 9.9 15.9375 11.9375 15.71425 11.9375 14.65625 L 11.9375 14.25 C 11.9385 13.45 10.4385 12.82025 9.1875 12.40625 C 9.1295 12.38725 8.774 12.2465 9 11.5625 C 9.588 10.9575 9.9375 10.30175 9.9375 9.34375 C 9.9375 7.86875 9.139 7.0625 8 7.0625 z M 18.5 7.09375 C 17.892 7.09375 17.31725 7.18125 16.78125 7.40625 C 16.24325 7.63025 15.767 7.94875 15.375 8.34375 C 14.979 8.74475 14.6635 9.213 14.4375 9.75 C 14.2115 10.285 14.125 10.88 14.125 11.5 C 14.125 12.152 14.2205 12.73625 14.4375 13.28125 C 14.6545 13.82825 14.95475 14.2965 15.34375 14.6875 C 15.72775 15.0745 16.18575 15.37975 16.71875 15.59375 C 17.25375 15.80775 17.84375 15.90625 18.46875 15.90625 C 18.83975 15.90625 19.16875 15.909 19.46875 15.875 C 19.76675 15.842 20.08525 15.78875 20.40625 15.71875 L 20.40625 14.625 C 20.11325 14.71 19.7865 14.79275 19.4375 14.84375 C 19.0895 14.89375 18.76475 14.90625 18.46875 14.90625 C 18.04775 14.90625 17.634 14.8345 17.25 14.6875 C 16.865 14.5415 16.54 14.31725 16.25 14.03125 C 15.95 13.74225 15.70225 13.39675 15.53125 12.96875 C 15.35925 12.53975 15.28125 12.049 15.28125 11.5 C 15.28125 10.985 15.3805 10.51875 15.5625 10.09375 C 15.7455 9.66875 15.98125 9.29 16.28125 9 C 16.59525 8.7 16.9415 8.49475 17.3125 8.34375 C 17.6845 8.19075 18.082 8.09375 18.5 8.09375 C 18.94 8.09375 19.33875 8.1755 19.71875 8.3125 C 20.09875 8.4495 20.43675 8.6535 20.71875 8.9375 C 20.99775 9.2165 21.22 9.55475 21.375 9.96875 C 21.531 10.38375 21.59375 10.8845 21.59375 11.4375 C 21.59375 11.7505 21.565 12.03975 21.5 12.34375 C 21.436 12.64775 21.353 12.93325 21.25 13.15625 L 20.46875 13.15625 L 20.46875 9.0625 L 19.28125 9.0625 L 19.28125 9.375 C 19.18625 9.284 19.051 9.18175 18.875 9.09375 C 18.698 9.00575 18.50625 8.96875 18.28125 8.96875 C 17.99925 8.96875 17.72875 9.03125 17.46875 9.15625 C 17.20975 9.28025 16.97125 9.44425 16.78125 9.65625 C 16.58025 9.88925 16.4325 10.181 16.3125 10.5 C 16.1925 10.82 16.125 11.1715 16.125 11.5625 C 16.125 11.9435 16.18325 12.301 16.28125 12.625 C 16.37825 12.95 16.48925 13.2285 16.65625 13.4375 C 16.82525 13.6535 17.04825 13.79225 17.28125 13.90625 C 17.51425 14.02025 17.76225 14.09375 18.03125 14.09375 C 18.21425 14.09375 18.36375 14.0825 18.46875 14.0625 C 18.57575 14.0415 18.6885 14.01275 18.8125 13.96875 C 18.9225 13.93275 19.00275 13.89775 19.09375 13.84375 C 19.18175 13.78975 19.283 13.71725 19.375 13.65625 L 19.4375 14 L 22.03125 14 C 22.23225 13.691 22.4235 13.34075 22.5625 12.84375 C 22.7025 12.34675 22.75 11.86825 22.75 11.40625 C 22.75 10.75325 22.6515 10.152 22.4375 9.625 C 22.2205 9.098 21.91625 8.65825 21.53125 8.28125 C 21.15325 7.90325 20.7095 7.61425 20.1875 7.40625 C 19.6655 7.19725 19.104 7.09375 18.5 7.09375 z M 18.4375 9.96875 C 18.5925 9.96875 18.752 9.969 18.875 10 C 18.997 10.031 19.105 10.08625 19.25 10.15625 L 19.25 12.71875 C 19.108 12.84975 18.97875 12.93 18.84375 13 C 18.70775 13.07 18.557 13.125 18.375 13.125 C 18.025 13.125 17.778 12.97675 17.625 12.71875 C 17.472 12.46075 17.375 12.0905 17.375 11.5625 C 17.375 11.0845 17.47225 10.69625 17.65625 10.40625 C 17.83925 10.11625 18.0955 9.96875 18.4375 9.96875 z"/>
</svg>