<svg xmlns="http://www.w3.org/2000/svg" viewBox="0 0 26 26" enable-background="new 0 0 26 26" style="fill: ;">
    <path d="M 9.5 0 C 7.6 0 6 1.6 6 3.5 C 6 5.4 7.6 7 9.5 7 C 10.860602 7 12.049476 6.1635936 12.625 5 L 19 5 L 20 4 L 20 3 L 19 2 L 18 2 L 17.1875 2.8125 L 16.5 2 L 15.6875 2 L 15.09375 2.59375 L 14.40625 2 L 12.625 2 C 12.049476 0.83640645 10.860602 0 9.5 0 z M 8.5 2.5 C 9.1 2.5 9.5 2.9 9.5 3.5 C 9.5 4.1 9.1 4.5 8.5 4.5 C 7.9 4.5 7.5 4.1 7.5 3.5 C 7.5 2.9 7.9 2.5 8.5 2.5 z M 9.09375 9 C 7.29375 9 5.6875 10.2 5.1875 12 L 4.46875 15 L 4 15 C 3.4 15 3 15.4 3 16 L 3 17 C 3 17.6 3.4 18 4 18 L 4 24 L 4 25 C 4 25.6 4.4 26 5 26 L 7 26 C 7.6 26 8 25.6 8 25 L 8 24 L 18 24 L 18 25 C 18 25.6 18.4 26 19 26 L 21 26 C 21.6 26 22 25.6 22 25 L 22 23 L 22 18 C 22.6 18 23 17.6 23 17 L 23 16 C 23 15.4 22.6 15 22 15 L 21.53125 15 L 20.8125 12 C 20.3125 10.2 18.70625 9 16.90625 9 L 9.09375 9 z M 9.09375 11 L 16.90625 11 C 17.80625 11 18.6125 11.6 18.8125 12.5 L 19.65625 16 L 6.34375 16 L 7.1875 12.5 C 7.3875 11.6 8.19375 11 9.09375 11 z M 7.5 19 C 8.3 19 9 19.7 9 20.5 C 9 21.3 8.3 22 7.5 22 C 6.7 22 6 21.3 6 20.5 C 6 19.7 6.7 19 7.5 19 z M 18.5 19 C 19.3 19 20 19.7 20 20.5 C 20 21.3 19.3 22 18.5 22 C 17.7 22 17 21.3 17 20.5 C 17 19.7 17.7 19 18.5 19 z"/>
</svg>