<svg xmlns="http://www.w3.org/2000/svg" width="26" height="26" viewBox="0 0 26 26" style="fill: ;">
    <path style="text-indent:0;text-align:start;line-height:normal;text-transform:none;block-progression:tb;-inkscape-font-specification:Bitstream Vera Sans" d="M 10.25 3 C 7.095125 3 4.5487484 5.380533 4.125 8.40625 C 1.8844793 9.0043138 0.1875 10.965712 0.1875 13.375 C 0.1875 16.046674 2.2682919 18.195399 4.875 18.5 C 5.6015975 20.532465 7.4686754 22 9.75 22 C 11.312115 22 12.595218 21.206814 13.5625 20.125 C 14.358452 20.740373 15.294502 21.1875 16.375 21.1875 C 18.433101 21.1875 20.126914 19.818136 20.75 17.96875 C 20.78203 17.969363 20.81154 17.96875 20.84375 17.96875 C 23.57209 17.96875 25.8125 15.748849 25.8125 13.03125 C 25.811361 10.713325 24.144365 8.8362353 21.96875 8.3125 C 21.269641 6.3863108 19.479018 4.96875 17.3125 4.96875 C 16.499863 4.96875 15.775519 5.2185574 15.09375 5.5625 C 13.94483 4.0788915 12.270512 3 10.25 3 z M 10.25 5 C 11.89852 5 13.315798 5.9176124 14.03125 7.25 L 14.5625 8.28125 L 15.5 7.5625 C 16.007636 7.1830927 16.627251 6.96875 17.3125 6.96875 C 18.780732 6.96875 19.989674 7.9746792 20.28125 9.3125 L 20.4375 10.03125 L 21.15625 10.09375 C 22.659103 10.247041 23.811751 11.507364 23.8125 13.03125 C 23.8125 14.655651 22.50141 15.96875 20.84375 15.96875 C 20.641664 15.96875 20.443315 15.94369 20.25 15.90625 L 19.15625 15.6875 L 19.0625 16.78125 C 18.936352 18.126831 17.791749 19.1875 16.375 19.1875 C 15.517296 19.1875 14.774199 18.797123 14.28125 18.1875 L 13.34375 17.03125 L 12.625 18.34375 C 12.072247 19.341755 10.997209 20 9.75 20 C 8.1447771 20 6.8552379 18.882866 6.5625 17.40625 L 6.40625 16.59375 L 5.5625 16.59375 C 5.5089706 16.59375 5.4878713 16.619356 5.46875 16.625 C 3.6456666 16.625 2.1875 15.162208 2.1875 13.375 C 2.1875 11.711901 3.4573933 10.368037 5.09375 10.1875 L 5.96875 10.09375 L 5.96875 9.1875 C 5.9841479 6.8640363 7.8831034 5 10.25 5 z" color="#000" overflow="visible" enable-background="accumulate" font-family="Bitstream Vera Sans"/>
</svg>