<svg xmlns="http://www.w3.org/2000/svg" width="26" height="26" viewBox="0 0 26 26" style="fill: ;">
    <path d="M 18 0.1875 C 13.685 0.1875 10.1875 2.117 10.1875 4.5 C 10.1875 6.883 13.685 8.8125 18 8.8125 C 22.315 8.8125 25.8125 6.883 25.8125 4.5 C 25.8125 2.117 22.315 0.1875 18 0.1875 z M 25.8125 5.78125 C 25.8115 8.16425 22.315 10.09375 18 10.09375 C 13.697 10.09375 10.2075 8.1855 10.1875 5.8125 C 10.1865 6.7185 10.1875 7.5 10.1875 7.5 C 10.1875 8.518 10.83925 9.4495 11.90625 10.1875 C 12.98725 10.4825 13.949 10.89025 14.75 11.40625 C 15.743 11.65825 16.835 11.8125 18 11.8125 C 22.315 11.8125 25.8125 9.883 25.8125 7.5 L 25.8125 5.78125 z M 25.8125 8.78125 C 25.8125 11.16425 22.315 13.09375 18 13.09375 C 17.475 13.09375 16.96475 13.055 16.46875 13 C 16.86475 13.548 17.136 14.14525 17.25 14.78125 C 17.499 14.79525 17.745 14.8125 18 14.8125 C 22.315 14.8125 25.8125 12.883 25.8125 10.5 L 25.8125 8.78125 z M 8 11.1875 C 3.685 11.1875 0.1875 13.117 0.1875 15.5 C 0.1875 17.883 3.685 19.8125 8 19.8125 C 12.315 19.8125 15.8125 17.883 15.8125 15.5 C 15.8125 13.117 12.315 11.1875 8 11.1875 z M 25.8125 11.78125 C 25.8115 14.16425 22.315 16.09375 18 16.09375 C 17.749 16.09375 17.495 16.0755 17.25 16.0625 C 17.239 16.1365 17.23275 16.2375 17.21875 16.3125 C 17.26975 16.4635 17.3125 16.61225 17.3125 16.78125 L 17.3125 17.78125 C 17.5395 17.79325 17.767 17.8125 18 17.8125 C 22.315 17.8125 25.8125 15.883 25.8125 13.5 L 25.8125 11.78125 z M 25.8125 14.78125 C 25.8115 17.16425 22.315 19.09375 18 19.09375 C 17.749 19.09375 17.495 19.0755 17.25 19.0625 C 17.239 19.1365 17.23275 19.2375 17.21875 19.3125 C 17.26975 19.4625 17.3125 19.61225 17.3125 19.78125 L 17.3125 20.78125 C 17.5395 20.79325 17.767 20.8125 18 20.8125 C 22.315 20.8125 25.8125 18.883 25.8125 16.5 L 25.8125 14.78125 z M 15.8125 16.78125 C 15.8115 19.16425 12.315 21.09375 8 21.09375 C 3.697 21.09375 0.2075 19.1855 0.1875 16.8125 C 0.1865 17.7185 0.1875 18.5 0.1875 18.5 C 0.1875 20.883 3.684 22.8125 8 22.8125 C 12.316 22.8125 15.8125 20.883 15.8125 18.5 L 15.8125 16.78125 z M 15.8125 19.78125 C 15.8115 22.16425 12.315 24.09375 8 24.09375 C 3.697 24.09375 0.2075 22.1855 0.1875 19.8125 C 0.1865 20.7185 0.1875 21.5 0.1875 21.5 C 0.1875 23.883 3.684 25.8125 8 25.8125 C 12.316 25.8125 15.8125 23.883 15.8125 21.5 L 15.8125 19.78125 z"/>
</svg>