<svg xmlns="http://www.w3.org/2000/svg" width="26" height="26" viewBox="0 0 26 26" style="fill: ;">
    <path style="text-indent:0;text-align:start;line-height:normal;text-transform:none;block-progression:tb;-inkscape-font-specification:Bitstream Vera Sans" d="M 21.625 0 C 20.505375 0 19.38525 0.42675 18.53125 1.28125 C 18.466614 1.3450682 16.341043 3.4714838 15.4375 4.375 L 14.75 3.6875 C 14.37 3.3075 13.755 3.3075 13.375 3.6875 L 11.3125 5.75 C 10.9325 6.13 10.9325 6.745 11.3125 7.125 L 11.96875 7.78125 L 5.09375 14.65625 C 4.0229591 15.726781 3.4187906 16.521323 3.03125 17.21875 C 2.6437094 17.916177 2.5234466 18.538954 2.4375 18.96875 C 2.351553 19.398546 2.2883234 19.662186 2.03125 20.125 C 1.7741766 20.587814 1.273202 21.226798 0.28125 22.21875 A 1.0001 1.0001 0 0 0 0.28125 23.65625 L 2.34375 25.71875 A 1.0001 1.0001 0 0 0 3.78125 25.71875 C 4.7732163 24.726784 5.4122804 24.2258 5.875 23.96875 C 6.3377196 23.7117 6.601625 23.648375 7.03125 23.5625 C 7.460875 23.47662 8.0839071 23.356138 8.78125 22.96875 C 9.4785929 22.581362 10.273216 21.976784 11.34375 20.90625 C 12.595516 19.655394 17.278945 14.971198 18.21875 14.03125 L 18.875 14.6875 C 19.255 15.0675 19.87 15.0675 20.25 14.6875 L 22.3125 12.625 C 22.6935 12.245 22.6925 11.63 22.3125 11.25 L 21.625 10.5625 C 22.528543 9.6589838 24.654114 7.5325682 24.71875 7.46875 C 26.42775 5.75975 26.42775 2.98925 24.71875 1.28125 C 23.86425 0.42675 22.744625 0 21.625 0 z M 13.375 9.25 L 16.75 12.625 C 15.775543 13.599605 11.15062 18.225284 9.90625 19.46875 C 8.9142837 20.460716 8.2439696 20.9617 7.78125 21.21875 C 7.3185304 21.4758 7.085875 21.539125 6.65625 21.625 C 6.226625 21.71088 5.6035929 21.831362 4.90625 22.21875 C 4.4251589 22.486006 3.7575549 23.064419 3.125 23.625 L 2.375 22.875 C 2.9355916 22.242407 3.5139891 21.574905 3.78125 21.09375 C 4.1686454 20.396314 4.2890716 19.773454 4.375 19.34375 C 4.460928 18.914046 4.5240719 18.650323 4.78125 18.1875 C 5.0384281 17.724677 5.5390409 17.085719 6.53125 16.09375 L 13.375 9.25 z" color="#000" overflow="visible" enable-background="accumulate" font-family="Bitstream Vera Sans"/>
</svg>