<svg xmlns="http://www.w3.org/2000/svg" width="26" height="26" viewBox="0 0 26 26" style="fill: ;">
    <path d="M 25.65625 4.09375 C 25.464125 4.101 25.23575 4.25675 25.03125 4.53125 C 24.62225 5.08025 22.021 9.03125 18.875 9.03125 L 9.71875 9.03125 C 7.17175 9.03125 5 10.951 5 14 C 5 18.024 8 19 9 19 L 9 20.5 A 1.0001 1.0001 0 1 0 11 20.5 L 11 19 L 12 19 L 12 20.5 A 1.0001 1.0001 0 1 0 14 20.5 L 14 19 L 15 19 L 15 20.5 A 1.0001 1.0001 0 1 0 17 20.5 L 17 18.75 C 19.396312 18.019233 20.0625 15.96166 20.0625 14.5625 C 20.0625 13.2475 18.15625 13.125 18.15625 13.125 C 18.15625 13.125 18.310625 15.314156 17 16.40625 L 17 12 L 19.5625 12 C 22.5755 12 24.34725 15.3385 25.03125 16.3125 C 25.66325 17.2115 26 16.7665 26 16.3125 L 26 4.53125 C 26 4.22775 25.848375 4.0865 25.65625 4.09375 z M 9.0625 4.8125 A 1.1940608 1.1940608 0 0 0 8.84375 7.125 L 8.84375 8 L 11.15625 8 L 11.15625 7.09375 A 1.1875 1.1875 0 0 0 11.46875 6.875 A 1.1891436 1.1891436 0 0 0 11.84375 7.125 L 11.84375 8 L 14.15625 8 L 14.15625 7.09375 A 1.1875 1.1875 0 0 0 14.46875 6.875 A 1.1891436 1.1891436 0 0 0 14.84375 7.09375 L 14.84375 8 L 17.15625 8 L 17.15625 7.09375 A 1.1875 1.1875 0 0 0 16.6875 4.8125 L 15.3125 4.8125 A 1.1831183 1.1831183 0 0 0 15.1875 4.8125 A 1.1891436 1.1891436 0 0 0 15.0625 4.8125 A 1.1891436 1.1891436 0 0 0 14.46875 5.09375 A 1.1875 1.1875 0 0 0 13.6875 4.8125 L 12.3125 4.8125 A 1.1831183 1.1831183 0 0 0 12.1875 4.8125 A 1.1891436 1.1891436 0 0 0 11.46875 5.09375 A 1.1875 1.1875 0 0 0 10.6875 4.8125 L 9.3125 4.8125 A 1.1831183 1.1831183 0 0 0 9.1875 4.8125 A 1.1891436 1.1891436 0 0 0 9.0625 4.8125 z M 0.90625 6.96875 A 1.0001 1.0001 0 0 0 0.78125 7 A 1.0001 1.0001 0 0 0 0 8 L 0 13 A 1.0001 1.0001 0 1 0 2 13 L 2 12 L 3.34375 12 C 3.34375 10.131 4.9375 9 4.9375 9 L 2 9 L 2 8 A 1.0001 1.0001 0 0 0 0.90625 6.96875 z M 11 12 L 12 12 L 12 17 L 11 17 L 11 12 z M 14 12 L 15 12 L 15 17 L 14 17 L 14 12 z M 9 12.25 L 9 17 C 8.298 17 7 16.712 7 14.5 C 7 13.169327 8.108105 12.543926 9 12.25 z"/>
</svg>