<svg xmlns="http://www.w3.org/2000/svg" width="26" height="26" viewBox="0 0 26 26" style="fill: ;">
    <path d="M 17.5 0.3125 C 17.5 0.3125 13.282 1.32225 12 5.40625 C 12 5.40625 9.64825 14.759 8.78125 18.75 C 7.84625 23.057 8.60575 25.34625 11.21875 25.65625 C 13.23975 25.89625 14.6375 24.525 14.9375 22 C 15.2365 19.473 14.2075 17.8025 12.1875 17.5625 C 11.8985 17.5285 11.43225 17.3535 11.65625 16.6875 C 12.52525 14.0845 13.78525 14.29675 14.90625 10.59375 L 17.5 0.3125 z M 4.125 10.0625 C 1.58 10.0625 0.0625 11.2775 0.0625 13.3125 C 0.0625 15.9435 2.20675 16.9825 6.59375 16.5625 C 7.08675 16.5155 7.52925 16.442 8.15625 16.375 C 8.33325 15.615 8.51575 14.7845 8.71875 13.9375 C 8.14075 13.9985 8.1875 13.5845 8.1875 13.3125 C 8.1875 11.2775 6.668 10.0625 4.125 10.0625 z M 25.9375 10.0625 C 25.9375 10.0625 16.167 11.493 16.125 11.5 C 15.559 13.105 14.95775 14.037 14.46875 14.75 C 14.24475 15.076 14.04075 15.382 13.84375 15.75 C 17.51675 15.307 20.25 14.9375 20.25 14.9375 C 24.457 14.1455 25.9375 10.0625 25.9375 10.0625 z M 4.125 11.6875 C 6.563 11.6875 6.5625 12.9105 6.5625 13.3125 C 6.5625 13.7145 6.563 14.9375 4.125 14.9375 C 1.687 14.9375 1.6875 13.7145 1.6875 13.3125 C 1.6875 12.9105 1.687 11.6875 4.125 11.6875 z M 10.90625 14.15625 C 11.35025 14.15625 11.71875 14.52475 11.71875 14.96875 C 11.71875 15.41275 11.35125 15.78125 10.90625 15.78125 C 10.46325 15.78125 10.09375 15.41375 10.09375 14.96875 C 10.09475 14.52575 10.46325 14.15625 10.90625 14.15625 z M 11.5625 19.1875 C 11.737 19.16975 11.90025 19.176 12 19.1875 C 12.399 19.2335 13.6005 19.3915 13.3125 21.8125 C 13.0255 24.2325 11.80525 24.07725 11.40625 24.03125 C 11.00725 23.98525 9.80675 23.8585 10.09375 21.4375 C 10.309 19.6225 11.039 19.24075 11.5625 19.1875 z"/>
</svg>