<svg xmlns="http://www.w3.org/2000/svg" width="26" height="26" viewBox="0 0 26 26" style="fill: ;">
    <path d="M 6 0 C 6 0 5 7 5 8 C 5 9 7.25 11 7.25 11 L 7 24.34375 C 7 25.44775 7.896 26 9 26 C 10.104 26 11 25.44775 11 24.34375 L 10.75 11 C 10.75 11 13 8.958 13 8 C 13 7.042 12 -5.9211895e-16 12 0 L 11 0 L 11 6.5 C 11 6.776 10.776 7 10.5 7 C 10.224 7 10 6.776 10 6.5 C 10 6.407 9.65625 1.1842379e-15 9.65625 0 L 8.34375 0 C 8.34375 0 8 6.407 8 6.5 C 8 6.776 7.776 7 7.5 7 C 7.224 7 7 6.776 7 6.5 L 7 0 L 6 0 z M 16.71875 0.0625 C 16.131133 0.20507031 16 0.83475 16 1.53125 L 16 24.34375 C 16 25.44775 16.896 26 18 26 C 19.104 26 19.96875 25.44675 19.96875 24.34375 C 19.96875 19.25675 18.96875 16.545 18.96875 14 C 18.96875 12.852 21 11.37425 21 6.03125 C 21 2.76325 18.104 0.0625 17 0.0625 C 16.8965 0.0625 16.802695 0.042132813 16.71875 0.0625 z"/>
</svg>