<svg xmlns="http://www.w3.org/2000/svg" version="1" viewBox="0 0 26 26" enable-background="new 0 0 26 26" style="fill: ;">
    <path d="M 13 0 C 11.3 0 10 1.3 10 3 L 10 9 C 10 10.7 11.3 12 13 12 L 19 12 L 23 16 L 23 12 C 24.7 12 26 10.7 26 9 L 26 3 C 26 1.3 24.7 0 23 0 L 13 0 z M 17.1875 3 L 18.90625 3 L 20.59375 9 L 19.09375 9 L 18.6875 7.5 L 17.1875 7.5 L 16.8125 9 L 15.5 9 L 17.1875 3 z M 18 4 C 17.9 4.4 17.7875 4.8875 17.6875 5.1875 L 17.40625 6.5 L 18.59375 6.5 L 18.3125 5.1875 C 18.1125 4.8875 18 4.4 18 4 z M 3 10 C 1.3 10 0 11.3 0 13 L 0 19 C 0 20.7 1.3 22 3 22 L 3 26 L 7 22 L 13 22 C 14.7 22 16 20.7 16 19 L 16 13 L 13 13 C 11.1 13 9.59375 11.7 9.09375 10 L 3 10 z M 7.59375 12.90625 C 9.29375 12.90625 10.09375 14.30625 10.09375 15.90625 C 10.09375 17.30625 9.6125 18.19375 8.8125 18.59375 C 9.2125 18.79375 9.6875 18.9 10.1875 19 L 9.8125 20 C 9.1125 19.8 8.3875 19.4875 7.6875 19.1875 C 7.5875 19.0875 7.4125 19.09375 7.3125 19.09375 C 6.1125 18.99375 5 18 5 16 C 5 14.3 5.99375 12.90625 7.59375 12.90625 z M 7.59375 14 C 6.79375 14 6.40625 14.9 6.40625 16 C 6.40625 17.2 6.79375 18 7.59375 18 C 8.39375 18 8.8125 17.1 8.8125 16 C 8.8125 14.9 8.39375 14 7.59375 14 z"/>
</svg>