<svg xmlns="http://www.w3.org/2000/svg" viewBox="0 0 26 26" enable-background="new 0 0 26 26" style="fill: ;">
    <path d="M 13 0 L 13 2 C 6.9545455 2 2 6.9545455 2 13 C 2 19.045455 6.9545455 24 13 24 C 19.045455 24 24 19.045455 24 13 C 24 10.053086 22.889574 7.389574 20.90625 5.40625 L 19.5 6.8125 C 21.116676 8.429176 22 10.546914 22 13 C 22 17.954545 17.954545 22 13 22 C 8.0454545 22 4 17.954545 4 13 C 4 8.0454545 8.0454545 4 13 4 L 13 6 L 18 3 L 13 0 z M 15.09375 6.5625 L 12.59375 11.5625 C 11.95888 11.737133 11.5 12.309644 11.5 13 C 11.5 13.828427 12.171573 14.5 13 14.5 C 13.020506 14.5 13.042194 14.500815 13.0625 14.5 L 16.28125 17.71875 L 17.71875 16.28125 L 14.5 13.0625 C 14.500815 13.042194 14.5 13.020506 14.5 13 C 14.5 12.803249 14.443866 12.609661 14.375 12.4375 L 16.90625 7.4375 L 15.09375 6.5625 z"/>
</svg>