<svg xmlns="http://www.w3.org/2000/svg" width="26" height="26" viewBox="0 0 26 26" style="fill: ;">
    <path style="text-indent:0;text-align:start;line-height:normal;text-transform:none;block-progression:tb;-inkscape-font-specification:Bitstream Vera Sans" d="M 13 0.03125 C 7.7966186 0.03125 3.4115453 3.6370915 2 8.5625 C 0.73794985 9.3225167 0 10.786442 0 12.5 C 0 14.985 1.515 17 4 17 C 4.553 17 5 16.553 5 16 L 5 9 C 5 8.54 4.6734954 8.1789815 4.25 8.0625 C 5.71009 4.478577 9.0805494 1.96875 13 1.96875 C 16.91945 1.96875 20.28991 4.478577 21.75 8.0625 C 21.326505 8.1789815 21 8.54 21 9 L 21 16 C 21 16.553 21.447 17 22 17 C 22.232675 17 22.44103 16.971562 22.65625 16.9375 C 22.332832 18.803483 21.549188 20.194009 20.75 21.15625 C 20.251551 21.756394 19.740424 22.191323 19.34375 22.46875 C 19.145413 22.607464 18.991125 22.693636 18.875 22.75 C 18.816938 22.77818 18.769457 22.80392 18.75 22.8125 L 16.875 22.8125 C 16.514882 21.768341 15.368809 21 14 21 C 12.343146 21 11 22.119288 11 23.5 C 11 24.880712 12.343146 26 14 26 C 15.368809 26 16.514882 25.231659 16.875 24.1875 L 18.84375 24.1875 C 19.181782 24.1875 19.267722 24.09757 19.46875 24 C 19.669778 23.90243 19.905978 23.768786 20.15625 23.59375 C 20.656794 23.243677 21.260824 22.733106 21.84375 22.03125 C 22.898041 20.76186 23.879777 18.875966 24.125 16.34375 C 25.304123 15.561135 26 14.152115 26 12.5 C 26 10.786442 25.26205 9.3225167 24 8.5625 C 22.588455 3.6370915 18.203382 0.03125 13 0.03125 z" color="#000" overflow="visible" enable-background="accumulate" font-family="Bitstream Vera Sans"/>
</svg>