<svg xmlns="http://www.w3.org/2000/svg" width="26" height="26" viewBox="0 0 26 26" style="fill: ;">
    <path d="M 8 0.1875 C 3.686 0.1875 0.1875 3.685 0.1875 8 C 0.1875 12.314 3.685 15.8125 8 15.8125 C 12.315 15.8125 15.8125 12.314 15.8125 8 C 15.8125 3.685 12.314 0.1875 8 0.1875 z M 5.5 2.90625 C 6.937 2.90625 8.09375 4.064 8.09375 5.5 C 8.09375 6.938 6.937 8.09375 5.5 8.09375 C 4.063 8.09375 2.90625 6.938 2.90625 5.5 C 2.90625 4.064 4.063 2.90625 5.5 2.90625 z M 16.59375 11.625 C 16.32175 12.271 15.9685 12.8745 15.5625 13.4375 L 23.375 21.25 C 23.716 21.592 23.717 22.158 23.375 22.5 C 23.034 22.841 22.466 22.841 22.125 22.5 L 14.40625 14.75 C 13.44525 15.659 12.28 16.3755 11 16.8125 L 11 18.1875 C 11 18.6275 11.3715 19 11.8125 19 L 14 19 L 14 21.1875 C 14 21.6275 14.3715 22 14.8125 22 L 17 22 L 17 24.1875 C 17 24.6275 17.3715 25 17.8125 25 L 20.03125 25 L 20.59375 25.5625 C 20.93575 25.9045 24.36175 26.07475 25.21875 25.21875 C 26.07575 24.36075 25.9035 20.93475 25.5625 20.59375 L 16.59375 11.625 z"/>
</svg>