<svg xmlns="http://www.w3.org/2000/svg" width="26" height="26" viewBox="0 0 26 26" style="fill: ;">
    <path d="M 15 3 C 13.906937 3 13 3.9069372 13 5 L 13 6 L 8 6 C 7.448 6 7 6.448 7 7 L 7 17 C 7 17.552 7.448 18 8 18 L 25 18 C 25.552 18 26 17.552 26 17 L 26 7 C 26 6.448 25.552 6 25 6 L 20 6 L 20 5 C 20 3.9069372 19.093063 3 18 3 L 15 3 z M 0.8125 4 A 1.001098 1.001098 0 0 0 1 6 L 2 6 C 2.5048196 6 2.6597025 6.1080593 2.78125 6.25 C 2.9027975 6.3919407 3 6.6627185 3 7 L 3 18 C 3 19.12439 3.247556 20.182337 3.96875 20.9375 C 4.689944 21.692663 5.7687665 22 7 22 L 23 22 L 25 22 A 1.0001 1.0001 0 1 0 25 20 L 7 20 C 6.0952335 20 5.682306 19.787587 5.4375 19.53125 C 5.192694 19.274913 5 18.82961 5 18 L 5 7 C 5 6.3092815 4.8272025 5.5698093 4.3125 4.96875 C 3.7977975 4.3676907 2.9501804 4 2 4 L 1 4 A 1.0001 1.0001 0 0 0 0.90625 4 A 1.001098 1.001098 0 0 0 0.8125 4 z M 23 22 C 21.895431 22 21 22.895431 21 24 C 21 25.104569 21.895431 26 23 26 C 24.104569 26 25 25.104569 25 24 C 25 22.895431 24.104569 22 23 22 z M 7 22 C 5.8954305 22 5 22.895431 5 24 C 5 25.104569 5.8954305 26 7 26 C 8.1045695 26 9 25.104569 9 24 C 9 22.895431 8.1045695 22 7 22 z M 15 5 L 18 5 L 18 6 L 15 6 L 15 5 z"/>
</svg>