<svg xmlns="http://www.w3.org/2000/svg" viewBox="0 0 26 26" enable-background="new 0 0 26 26" style="fill: ;">
    <path d="M 1.3125 0 L 0 1.3125 L 2.3125 5.3125 L 3.8125 5.09375 L 12.96875 14.25 L 12.1875 15 C 11.7875 15.4 11.7875 16.00625 12.1875 16.40625 L 12.59375 16.8125 C 12.99375 17.2125 13.60625 17.2125 13.90625 16.8125 L 15.09375 18 C 14.99375 18.6 15.09375 19.3125 15.59375 19.8125 L 21 25.1875 C 22.1 26.2875 23.9 26.2875 25 25.1875 C 26.3 23.9875 26.2875 22.19375 25.1875 21.09375 L 19.8125 15.6875 C 19.3125 15.1875 18.6 14.9875 18 15.1875 L 16.6875 14 C 16.9875 13.6 16.9875 12.9875 16.6875 12.6875 L 16.3125 12.3125 C 15.9125 11.9125 15.30625 11.9125 14.90625 12.3125 L 14.25 12.96875 L 5.09375 3.8125 L 5.3125 2.3125 L 1.3125 0 z M 20.8125 0.03125 C 18.841016 -0.1328125 16.225 1.175 15 2.3125 C 13.494407 3.8180928 13.7401 5.7871171 14.9375 7.6875 L 12.8125 9.8125 L 14.3125 11.5 C 15.1125 10.8 16.29375 10.8 17.09375 11.5 L 17.5 11.90625 L 17.59375 12 L 18.46875 11.125 C 20.276613 12.188336 22.15851 12.34149 23.59375 10.90625 C 24.99375 9.60625 26.5125 6.4 25.8125 4.5 L 23 7.40625 C 22.6 7.80625 21.99375 7.80625 21.59375 7.40625 L 18.6875 4.5 C 18.2875 4.1 18.2875 3.49375 18.6875 3.09375 L 21.59375 0.1875 C 21.34375 0.1 21.094141 0.0546875 20.8125 0.03125 z M 9.8125 12.5 L 6.1875 16.125 C 5.8109968 16.037062 5.4067278 16 5 16 C 2.2 16 0 18.2 0 21 C 0 23.8 2.2 26 5 26 C 7.8 26 10 23.8 10 21 C 10 20.487309 9.9189468 19.993886 9.78125 19.53125 L 11.90625 17.40625 L 11.59375 17 C 10.79375 16.2 10.8 14.9875 11.5 14.1875 L 9.8125 12.5 z M 17.5625 17.0625 C 17.6875 17.0625 17.80625 17.0875 17.90625 17.1875 L 23.8125 23.09375 C 24.0125 23.29375 24.0125 23.6125 23.8125 23.8125 C 23.6125 24.0125 23.29375 24.0125 23.09375 23.8125 L 17.1875 17.90625 C 16.9875 17.70625 16.9875 17.3875 17.1875 17.1875 C 17.2875 17.0875 17.4375 17.0625 17.5625 17.0625 z M 5.6875 18.40625 L 7.59375 20.3125 L 6.90625 22.90625 L 4.3125 23.59375 L 2.40625 21.6875 L 3.09375 19.09375 L 5.6875 18.40625 z"/>
</svg>