<svg xmlns="http://www.w3.org/2000/svg" width="26" height="26" viewBox="0 0 26 26" style="fill: ;">
    <path d="M 4 0 C 1.795 0 0 1.795 0 4 L 0 22 C 0 24.205 1.795 26 4 26 L 17 26 C 18.063 26 19.539 24.46475 21.25 22.71875 C 21.49 22.47475 21.72075 22.246 21.96875 22 C 22.21475 21.752 22.47475 21.49 22.71875 21.25 C 24.46575 19.538 26 18.063 26 17 L 26 4 C 26 1.795 24.205 0 22 0 L 4 0 z M 4 2 L 22 2 C 23.104 2 24 2.896 24 4 L 24 17 C 24 17.995 22.998 18 22 18 L 19 18 C 18.449 18 18 18.449 18 19 L 18 22.0625 C 18 22.9495 18.00225 23.816 17.28125 24 L 4 24 C 2.896 24 2 23.104 2 22 L 2 4 C 2 2.896 2.896 2 4 2 z M 6.8125 8 A 1.001098 1.001098 0 0 0 7 10 L 19 10 A 1.0001 1.0001 0 1 0 19 8 L 7 8 A 1.0001 1.0001 0 0 0 6.90625 8 A 1.001098 1.001098 0 0 0 6.8125 8 z M 6.8125 13 A 1.001098 1.001098 0 0 0 7 15 L 17 15 A 1.0001 1.0001 0 1 0 17 13 L 7 13 A 1.0001 1.0001 0 0 0 6.90625 13 A 1.001098 1.001098 0 0 0 6.8125 13 z"/>
</svg>