<svg xmlns="http://www.w3.org/2000/svg" width="26" height="26" viewBox="0 0 26 26" style="fill: ;">
    <path style="text-indent:0;text-align:start;line-height:normal;text-transform:none;block-progression:tb;-inkscape-font-specification:Bitstream Vera Sans" d="M 24.90625 0 A 0.99009901 0.99009901 0 0 0 24.53125 0.125 L 0.53125 13.125 A 0.99009901 0.99009901 0 0 0 0.71875 14.9375 L 7.09375 16.84375 C 7.2428117 18.022911 7.9066561 23.129145 8.03125 24.125 C 8.15525 25.117 8.829 25.289 9.5 24.375 C 9.954 23.756 12.624 20 12.625 20 L 18.3125 25.6875 A 0.99009901 0.99009901 0 0 0 19.96875 25.25 L 25.96875 1.25 A 0.99009901 0.99009901 0 0 0 24.90625 0 z M 23.46875 2.9375 L 18.4375 23.0625 L 12.78125 17.40625 L 21 6 L 8.21875 15.125 L 3.5625 13.75 L 23.46875 2.9375 z" color="#000" overflow="visible" enable-background="accumulate" font-family="Bitstream Vera Sans"/>
</svg>