<svg xmlns="http://www.w3.org/2000/svg" width="26" height="26" viewBox="0 0 26 26" style="fill: ;">
    <path style="text-indent:0;text-align:start;line-height:normal;text-transform:none;block-progression:tb;-inkscape-font-specification:Bitstream Vera Sans" d="M 8.875 0.375 A 0.60006002 0.60006002 0 0 0 8.8125 0.40625 A 0.60006002 0.60006002 0 0 0 8.40625 1 L 8.40625 3.65625 A 0.60006002 0.60006002 0 0 0 8.5 4.03125 C 7.9539109 4.0871885 7.4502248 4.2502061 6.96875 4.46875 A 0.60006002 0.60006002 0 0 0 6.84375 4.09375 L 5.53125 1.78125 A 0.60006002 0.60006002 0 0 0 5.5 1.71875 A 0.60006002 0.60006002 0 0 0 5.46875 1.6875 A 0.60006002 0.60006002 0 0 0 5.4375 1.625 A 0.60006002 0.60006002 0 0 0 5.375 1.59375 A 0.60006002 0.60006002 0 0 0 5.1875 1.46875 A 0.60006002 0.60006002 0 0 0 4.9375 1.4375 A 0.60006002 0.60006002 0 0 0 4.84375 1.46875 A 0.60006002 0.60006002 0 0 0 4.46875 2.375 L 5.8125 4.6875 A 0.60006002 0.60006002 0 0 0 6.03125 4.96875 C 5.6301354 5.2650371 5.2976725 5.6627605 5 6.0625 A 0.60006002 0.60006002 0 0 0 4.6875 5.8125 L 2.375 4.46875 A 0.60006002 0.60006002 0 0 0 2.28125 4.40625 A 0.60006002 0.60006002 0 0 0 2.03125 4.375 A 0.60006002 0.60006002 0 0 0 1.90625 4.40625 A 0.60006002 0.60006002 0 0 0 1.78125 5.53125 L 4.09375 6.84375 A 0.60006002 0.60006002 0 0 0 4.4375 6.96875 C 4.2243162 7.4371399 4.120663 7.9378991 4.0625 8.46875 A 0.60006002 0.60006002 0 0 0 3.96875 8.4375 A 0.60006002 0.60006002 0 0 0 3.65625 8.40625 L 1 8.40625 A 0.60006002 0.60006002 0 0 0 0.875 8.40625 A 0.60006002 0.60006002 0 0 0 0.8125 8.40625 A 0.60110575 0.60110575 0 0 0 1 9.59375 L 3.65625 9.59375 A 0.60006002 0.60006002 0 0 0 3.90625 9.59375 A 0.60006002 0.60006002 0 0 0 4.03125 9.5 C 4.085398 10.042038 4.2226944 10.553422 4.4375 11.03125 A 0.60006002 0.60006002 0 0 0 4.375 11.03125 A 0.60006002 0.60006002 0 0 0 4.28125 11.0625 A 0.60006002 0.60006002 0 0 0 4.09375 11.15625 L 1.78125 12.46875 A 0.60857319 0.60857319 0 1 0 2.375 13.53125 L 4.6875 12.1875 A 0.60006002 0.60006002 0 0 0 5.09375 11.65625 L 6.53125 10.6875 C 6.2005209 10.204185 6 9.6323007 6 9 C 6 7.3330628 7.3330628 6 9 6 C 10.130399 6 11.111414 6.6157922 11.625 7.53125 L 13.0625 6.71875 A 0.60006002 0.60006002 0 0 0 13.75 6.9375 A 0.60006002 0.60006002 0 0 0 13.90625 6.84375 L 16.21875 5.53125 A 0.60353775 0.60353775 0 0 0 16.375 4.46875 A 0.60353775 0.60353775 0 0 0 16.21875 4.375 A 0.60353775 0.60353775 0 0 0 15.875 4.375 A 0.60353775 0.60353775 0 0 0 15.78125 4.40625 A 0.60006002 0.60006002 0 0 0 15.625 4.46875 L 13.3125 5.8125 A 0.60006002 0.60006002 0 0 0 13.03125 6.03125 C 12.728965 5.6289799 12.378897 5.2611693 11.96875 4.96875 A 0.60006002 0.60006002 0 0 0 12.09375 4.84375 A 0.60006002 0.60006002 0 0 0 12.125 4.78125 A 0.60006002 0.60006002 0 0 0 12.15625 4.75 A 0.60006002 0.60006002 0 0 0 12.1875 4.6875 L 13.53125 2.375 A 0.60006002 0.60006002 0 0 0 13.5625 1.75 A 0.60006002 0.60006002 0 0 0 13.25 1.46875 A 0.60006002 0.60006002 0 0 0 13 1.4375 A 0.60006002 0.60006002 0 0 0 12.875 1.46875 A 0.60006002 0.60006002 0 0 0 12.46875 1.78125 L 11.15625 4.09375 A 0.60006002 0.60006002 0 0 0 11.125 4.15625 A 0.60006002 0.60006002 0 0 0 11.03125 4.46875 C 10.552974 4.2607566 10.039364 4.1170886 9.5 4.0625 C 9.5093339 4.0634447 9.5219302 4.0302536 9.53125 4.03125 A 0.60006002 0.60006002 0 0 0 9.5625 3.90625 A 0.60006002 0.60006002 0 0 0 9.59375 3.75 A 0.60006002 0.60006002 0 0 0 9.59375 3.65625 L 9.59375 1 A 0.60006002 0.60006002 0 0 0 9.5625 0.8125 A 0.60006002 0.60006002 0 0 0 9.53125 0.71875 A 0.60006002 0.60006002 0 0 0 9.46875 0.59375 A 0.60006002 0.60006002 0 0 0 9.4375 0.5625 A 0.60006002 0.60006002 0 0 0 9.1875 0.40625 A 0.60006002 0.60006002 0 0 0 8.875 0.375 z M 17 7 C 14.737504 7 12.83014 8.299164 11.8125 10.15625 C 11.538511 10.104634 11.297563 10 11 10 C 8.5930601 10 6.6546239 11.756972 6.1875 14.03125 C 6.1200346 14.027435 6.0690263 14 6 14 C 3.8029372 14 2 15.802937 2 18 C 2 20.197063 3.8029372 22 6 22 L 21 22 C 23.749516 22 26 19.749516 26 17 C 26 14.94059 24.695055 13.229205 22.90625 12.46875 C 22.625337 9.4234645 20.115911 7 17 7 z M 17 9 C 19.221812 9 21 10.778188 21 13 C 21 12.862603 21.0048 12.90458 21 13.125 L 20.96875 13.90625 L 21.75 14.09375 C 23.049534 14.425018 24 15.59149 24 17 C 24 18.668484 22.668484 20 21 20 L 6 20 C 4.8850628 20 4 19.114937 4 18 C 4 16.885063 4.8850628 16 6 16 C 6.2215812 16 6.4493381 16.03968 6.6875 16.125 L 8.125 16.65625 L 8.03125 15.125 C 8.0272337 15.060739 8.0046875 15.029878 8 15 C 8 14.974333 7.9979991 14.976704 8 14.96875 C 7.9989102 14.963525 8.0010259 14.940793 8 14.9375 C 8.0340387 13.299552 9.3532292 12 11 12 C 11.33383 12 11.661736 12.0675 12 12.1875 L 12.9375 12.5 L 13.28125 11.59375 C 13.85162 10.078104 15.279102 9 17 9 z"/>
</svg>