<svg xmlns="http://www.w3.org/2000/svg" viewBox="0 0 26 26" enable-background="new 0 0 26 26" style="fill: ;">
    <path d="M 13 0 L 8 3 L 13 6 L 13 4 C 17.954545 4 22 8.0454545 22 13 C 22 17.954545 17.954545 22 13 22 C 8.0454545 22 4 17.954545 4 13 C 4 10.546914 4.883324 8.429176 6.5 6.8125 L 5.09375 5.40625 C 3.110426 7.389574 2 10.053086 2 13 C 2 19.045455 6.9545455 24 13 24 C 19.045455 24 24 19.045455 24 13 C 24 6.9545455 19.045455 2 13 2 L 13 0 z M 10.90625 6.5625 L 9.09375 7.4375 L 11.625 12.4375 C 11.556134 12.609661 11.5 12.803249 11.5 13 C 11.5 13.020506 11.499185 13.042194 11.5 13.0625 L 8.28125 16.28125 L 9.71875 17.71875 L 12.9375 14.5 C 12.957806 14.500815 12.979494 14.5 13 14.5 C 13.828427 14.5 14.5 13.828427 14.5 13 C 14.5 12.309644 14.04112 11.737133 13.40625 11.5625 L 10.90625 6.5625 z"/>
</svg>