<svg xmlns="http://www.w3.org/2000/svg" width="26" height="26" viewBox="0 0 26 26" style="fill: ;">
    <path d="M22.386,18.026c-1.548-1.324-3.119-2.126-4.648-0.804l-0.913,0.799c-0.668,0.58-1.91,3.29-6.712-2.234 c-4.801-5.517-1.944-6.376-1.275-6.951l0.918-0.8c1.521-1.325,0.947-2.993-0.15-4.71l-0.662-1.04 C7.842,0.573,6.642-0.552,5.117,0.771L4.293,1.491C3.619,1.982,1.735,3.578,1.278,6.61c-0.55,3.638,1.185,7.804,5.16,12.375 c3.97,4.573,7.857,6.87,11.539,6.83c3.06-0.033,4.908-1.675,5.486-2.272l0.827-0.721c1.521-1.322,0.576-2.668-0.973-3.995 L22.386,18.026z"/>
</svg>