<svg xmlns="http://www.w3.org/2000/svg" width="26" height="26" viewBox="0 0 26 26" style="fill: ;">
    <path d="M 24 0.1875 C 22.998708 0.1875 22.1875 0.99870777 22.1875 2 C 22.1875 2.192767 22.22552 2.3882253 22.28125 2.5625 L 19.53125 5.28125 C 19.364939 5.2309713 19.182718 5.1875 19 5.1875 C 18.499354 5.1875 18.046838 5.3906615 17.71875 5.71875 L 11.78125 3.78125 C 11.674105 2.882172 10.927921 2.1875 10 2.1875 C 8.9987078 2.1875 8.1875 2.9987078 8.1875 4 C 8.1875 4.9175635 8.865478 5.6608369 9.75 5.78125 L 12.78125 15.65625 C 12.67433 15.753571 12.581202 15.879806 12.5 16 L 7.71875 15.4375 C 7.4850008 14.706537 6.8085252 14.1875 6 14.1875 C 4.9987078 14.1875 4.1875 14.998708 4.1875 16 C 4.1875 16.406293 4.3367705 16.7602 4.5625 17.0625 L 2 22.1875 C 0.99870777 22.1875 0.1875 22.998708 0.1875 24 C 0.1875 25.001292 0.99870777 25.8125 2 25.8125 C 3.0012922 25.8125 3.8125 25.001292 3.8125 24 C 3.8125 23.585041 3.6720359 23.211808 3.4375 22.90625 L 6 17.8125 C 6.6104031 17.8125 7.140201 17.493618 7.46875 17.03125 L 12.3125 17.59375 C 12.557229 18.305509 13.205179 18.8125 14 18.8125 C 15.001292 18.8125 15.8125 18.001292 15.8125 17 C 15.8125 16.092795 15.151197 15.351984 14.28125 15.21875 L 11.25 5.3125 L 11.25 5.28125 L 11.28125 5.28125 L 17.21875 7.25 C 17.339163 8.134522 18.082437 8.8125 19 8.8125 C 20.001292 8.8125 20.8125 8.0012922 20.8125 7 C 20.8125 6.7834797 20.757121 6.5674998 20.6875 6.375 L 23.40625 3.6875 C 23.591144 3.7510733 23.793529 3.8125 24 3.8125 C 25.001292 3.8125 25.8125 3.0012922 25.8125 2 C 25.8125 0.99870777 25.001292 0.1875 24 0.1875 z"/>
</svg>