<svg xmlns="http://www.w3.org/2000/svg" width="26" height="26" viewBox="0 0 26 26" style="fill: ;">
    <path d="M 13 0 C 5.8382615 0 0 5.8382615 0 13 C 0 20.162611 5.838419 26 13 26 C 19.554958 26 25.000027 21.111803 25.875 14.78125 A 1.50015 1.50015 0 1 0 22.90625 14.375 C 22.233223 19.244447 18.071042 23 13 23 C 7.459581 23 3 18.541389 3 13 C 3 7.4597385 7.4597385 3 13 3 C 16.235557 3 19.108725 4.5345846 20.9375 6.90625 L 19.15625 8.6875 C 19.00525 8.8385 18.96725 9.07925 19.03125 9.28125 C 19.09125 9.48325 19.25975 9.61325 19.46875 9.65625 C 22.16575 10.18625 25.27625 9.9525 25.40625 9.9375 C 25.53825 9.9205 25.66 9.84 25.75 9.75 C 25.84 9.662 25.9195 9.5705 25.9375 9.4375 C 25.9535 9.3075 26.18825 6.16975 25.65625 3.46875 C 25.61525 3.26075 25.48225 3.09225 25.28125 3.03125 C 25.07725 2.96925 24.8375 3.00625 24.6875 3.15625 L 23.0625 4.78125 C 20.678728 1.8694004 17.047796 0 13 0 z"/>
</svg>