<svg xmlns="http://www.w3.org/2000/svg" width="26" height="26" viewBox="0 0 26 26" style="fill: ;">
    <path d="M23.633,5.028c-0.2-0.227-0.481-0.358-0.777-0.366c-2.295-0.06-5.199-2.514-7.119-3.477 c-1.186-0.593-1.968-0.984-2.557-1.087C13.12,0.09,13.06,0.084,13,0.084s-0.12,0.006-0.179,0.015 c-0.589,0.103-1.372,0.494-2.556,1.087C8.344,2.148,5.44,4.603,3.144,4.662C2.849,4.67,2.567,4.802,2.367,5.028 C2.165,5.254,2.061,5.555,2.076,5.862c0.494,10.023,4.088,16.226,10.396,19.831c0.164,0.093,0.346,0.141,0.528,0.141 s0.364-0.048,0.528-0.141c6.308-3.605,9.902-9.808,10.396-19.831C23.939,5.555,23.835,5.254,23.633,5.028z M17.708,13.211 c-0.287,0.787-1.887,4.454-6.47,3.633c-0.136,0.477-0.464,1.514-0.565,1.834c-0.019,0.062-0.049,0.066-0.086,0.008 c-0.391-0.585-2.644-3.984-2.688-4.054c-0.052-0.074,0.029-0.109,0.029-0.109s4.197-1.924,4.329-1.984 c0.135-0.063,0.099,0.088,0.099,0.088l-0.543,1.975c0,0,0.643,0.386,1.908,0.358c1.866-0.038,3.489-1.391,3.925-1.786 C17.717,13.104,17.743,13.119,17.708,13.211z M18.034,9.516c-0.119,0.06-3.651,1.643-4.371,2.003 c-0.135,0.069-0.099-0.062-0.099-0.062l0.561-2.033c0,0-0.652-0.392-1.936-0.366c-1.831,0.039-3.428,1.32-3.932,1.77 C8.15,10.921,8.115,10.911,8.16,10.79c0.331-0.879,1.977-4.461,6.545-3.642c0.133-0.46,0.441-1.433,0.559-1.806 c0.046-0.127,0.135-0.021,0.135-0.021l2.68,4.045C18.078,9.366,18.123,9.472,18.034,9.516z"/>
</svg>