<svg xmlns="http://www.w3.org/2000/svg" width="26" height="26" viewBox="0 0 26 26" style="fill: ;">
    <path style="text-indent:0;text-align:start;line-height:normal;text-transform:none;block-progression:tb;-inkscape-font-specification:Bitstream Vera Sans" d="M 6.8125 0 A 1.0001 1.0001 0 0 0 6.28125 0.28125 L 0.28125 6.28125 A 1.0001 1.0001 0 0 0 0 7 L 0 24 C 0 25.093063 0.9069372 26 2 26 L 24 26 C 25.093063 26 26 25.093063 26 24 L 26 2 C 26 0.9069372 25.093063 0 24 0 L 7 0 A 1.0001 1.0001 0 0 0 6.90625 0 A 1.0001 1.0001 0 0 0 6.8125 0 z M 7.4375 2 L 24 2 L 24 24 L 2 24 L 2 7.4375 L 7.4375 2 z M 8.8125 3 A 1.0001 1.0001 0 0 0 8.28125 3.28125 L 3.28125 8.28125 A 1.0001 1.0001 0 0 0 3 9 L 3 22 A 1.0001 1.0001 0 0 0 4 23 L 22 23 A 1.0001 1.0001 0 1 0 22 21 L 5 21 L 5 9.4375 L 9.4375 5 L 21 5 L 21 18 L 8 18 L 8 10.4375 L 10.4375 8 L 18 8 L 18 13 L 16 13 L 16 11.25 C 16 11.112 15.888 11 15.75 11 L 10.25 11 C 10.112 11 10 11.112 10 11.25 L 10 16.75 C 10 16.888 10.112 17 10.25 17 L 15.75 17 C 15.888 17 16 16.888 16 16.75 L 16 15 L 19 15 A 1.0001 1.0001 0 0 0 20 14 L 20 7 A 1.0001 1.0001 0 0 0 19 6 L 10 6 A 1.0001 1.0001 0 0 0 9.28125 6.28125 L 6.28125 9.28125 A 1.0001 1.0001 0 0 0 6 10 L 6 19 A 1.0001 1.0001 0 0 0 7 20 L 22 20 A 1.0001 1.0001 0 0 0 23 19 L 23 4 A 1.0001 1.0001 0 0 0 22 3 L 9 3 A 1.0001 1.0001 0 0 0 8.90625 3 A 1.0001 1.0001 0 0 0 8.8125 3 z" color="#000" overflow="visible" enable-background="accumulate" font-family="Bitstream Vera Sans"/>
</svg>