<svg xmlns="http://www.w3.org/2000/svg" width="26" height="26" viewBox="0 0 26 26" style="fill: ;">
    <path d="M 2.09375 4.09375 C 1.840375 4.09375 1.568 4.1815 1.375 4.375 C 0.989 4.762 0.988 5.39525 1.375 5.78125 L 8.21875 12.625 C 8.41275 12.819 8.65225 12.90625 8.90625 12.90625 C 9.15925 12.90625 9.432 12.818 9.625 12.625 C 10.012 12.237 10.012 11.60575 9.625 11.21875 L 2.78125 4.375 C 2.58775 4.1815 2.347125 4.09375 2.09375 4.09375 z M 23.90625 4.09375 C 23.652875 4.09375 23.41225 4.1815 23.21875 4.375 L 16.375 11.21875 C 15.988 11.60575 15.988 12.237 16.375 12.625 C 16.568 12.818 16.84075 12.90625 17.09375 12.90625 C 17.34775 12.90625 17.58725 12.819 17.78125 12.625 L 24.625 5.78125 C 25.012 5.39525 25.011 4.762 24.625 4.375 C 24.432 4.1815 24.159625 4.09375 23.90625 4.09375 z M 1 11 C 0.449 11 0 11.449 0 12 L 0 15 C 0 15.551 0.449 16 1 16 L 2 16 L 2 17 C 2 17.089 4 25 4 25 C 4.297 25.531 4.547 26 5 26 L 21 26 C 21.551 26 21.766 25.562 22 25 C 22 25 24 17.089 24 17 L 24 16 L 25 16 C 25.551 16 26 15.551 26 15 L 26 12 C 26 11.449 25.551 11 25 11 L 20.90625 11 L 18.34375 13.5625 C 17.95375 13.9535 17.426 14.1875 16.875 14.1875 C 16.325 14.1875 15.8275 13.9535 15.4375 13.5625 C 14.7385 12.8655 14.63825 11.798 15.15625 11 L 10.84375 11 C 11.36175 11.798 11.2615 12.8655 10.5625 13.5625 C 10.1725 13.9535 9.675 14.1875 9.125 14.1875 C 8.574 14.1875 8.04625 13.9535 7.65625 13.5625 L 5.09375 11 L 1 11 z M 9 16 C 9.551 16 10 16.449 10 17 L 10 23 C 10 23.551 9.551 24 9 24 C 8.449 24 8 23.551 8 23 L 8 17 C 8 16.449 8.449 16 9 16 z M 13 16 C 13.551 16 14 16.449 14 17 L 14 23 C 14 23.551 13.551 24 13 24 C 12.449 24 12 23.551 12 23 L 12 17 C 12 16.449 12.449 16 13 16 z M 17 16 C 17.551 16 18 16.449 18 17 L 18 23 C 18 23.551 17.551 24 17 24 C 16.449 24 16 23.551 16 23 L 16 17 C 16 16.449 16.449 16 17 16 z"/>
</svg>