<svg xmlns="http://www.w3.org/2000/svg" width="26" height="26" viewBox="0 0 26 26" style="fill: ;">
    <path d="M 19.8125 0 C 19.673875 0.006375 19.52775 0.0515 19.40625 0.125 C 19.16125 0.271 19 0.5305 19 0.8125 L 19 3 L 18 3 C 17.327515 3 16.520377 3.095634 15.78125 3.5 C 15.042123 3.9043663 14.479517 4.5083579 13.96875 5.1875 C 13.2026 6.2062132 12.263406 7.7986197 11.03125 9.875 A 2.0002 2.0002 0 0 0 10.78125 7.90625 C 9.7598072 6.2099254 9.1257638 5.143143 8.25 4.28125 C 7.3742362 3.419357 6.020855 3 5 3 L 2 3 A 2.0002 2.0002 0 0 0 1.8125 3 A 2.0021961 2.0021961 0 1 0 2 7 L 5 7 C 5.500145 7 5.1610138 6.884143 5.4375 7.15625 C 5.7139862 7.428357 6.3804428 8.3170746 7.375 9.96875 A 2.0002 2.0002 0 0 0 10.71875 10.375 C 10.388933 10.92982 10.177352 11.311596 9.78125 11.96875 C 7.6680919 15.474591 6.489336 17.507354 5.8125 18.40625 C 5.474082 18.855698 5.3239632 18.962472 5.3125 18.96875 C 5.3010368 18.975028 5.3288333 19 5 19 L 2 19 A 2.0002 2.0002 0 1 0 2 23 L 5 23 C 5.6711667 23 6.480682 22.90419 7.21875 22.5 C 7.956818 22.095809 8.520043 21.491427 9.03125 20.8125 C 10.053664 19.454646 11.128908 17.498409 13.21875 14.03125 C 15.332198 10.524928 16.480534 8.4922157 17.15625 7.59375 C 17.494108 7.1445171 17.676346 7.0373524 17.6875 7.03125 C 17.698654 7.0251476 17.668485 7 18 7 L 19 7 L 19 9.1875 C 19 9.4685 19.16025 9.729 19.40625 9.875 C 19.53725 9.956 19.69275 10 19.84375 10 C 19.97075 10 20.10175 9.96425 20.21875 9.90625 L 25.46875 5.71875 C 25.72275 5.47875 25.9375 5.308 25.9375 5 C 25.9385 4.694 25.75275 4.53325 25.46875 4.28125 L 20.21875 0.09375 C 20.09175 0.02875 19.951125 -0.006375 19.8125 0 z M 19.8125 16 C 19.673875 16.006375 19.52775 16.0515 19.40625 16.125 C 19.16125 16.271 19 16.5305 19 16.8125 L 19 19 L 18 19 C 17.549852 19 17.789293 19.07681 17.625 18.9375 C 17.460707 18.798186 16.960376 18.196234 16.21875 17 A 2.0002 2.0002 0 0 0 14.375 16.03125 A 2.0002 2.0002 0 0 0 12.8125 19.09375 C 13.610874 20.381516 14.184293 21.250564 15.03125 21.96875 C 15.878207 22.686936 17.087148 23 18 23 L 19 23 L 19 25.1875 C 19 25.4685 19.16025 25.729 19.40625 25.875 C 19.53725 25.956 19.69275 26 19.84375 26 C 19.97075 26 20.10175 25.96425 20.21875 25.90625 L 25.46875 21.71875 C 25.72275 21.47875 25.9375 21.308 25.9375 21 C 25.9385 20.694 25.75275 20.53325 25.46875 20.28125 L 20.21875 16.09375 C 20.09175 16.02875 19.951125 15.993625 19.8125 16 z"/>
</svg>