<svg xmlns="http://www.w3.org/2000/svg" width="26" height="26" viewBox="0 0 26 26" style="fill: ;">
    <path d="M 13 0 C 11.896 0 11 0.896 11 2 L 11 12 C 11 13.104 11.896 14 13 14 C 14.104 14 15 13.104 15 12 L 15 2 C 15 0.896 14.104 0 13 0 z M 5.84375 2.59375 A 1.50015 1.50015 0 0 0 5.0625 2.9375 C 2.0900283 5.2828775 0.1875 8.9275936 0.1875 13 C 0.1875 20.058499 5.9404703 25.8125 13 25.8125 C 20.05953 25.8125 25.8125 20.058339 25.8125 13 C 25.8125 8.9270388 23.911347 5.2830694 20.9375 2.9375 A 1.5007322 1.5007322 0 1 0 19.0625 5.28125 C 21.342653 7.0796806 22.8125 9.8629612 22.8125 13 C 22.8125 18.437661 18.43847 22.8125 13 22.8125 C 7.5615297 22.8125 3.1875 18.437501 3.1875 13 C 3.1875 9.8624064 4.6579717 7.0798725 6.9375 5.28125 A 1.50015 1.50015 0 0 0 5.84375 2.59375 z"/>
</svg>