<svg xmlns="http://www.w3.org/2000/svg" width="26" height="26" viewBox="0 0 26 26" style="fill: ;">
    <path style="text-indent:0;text-align:start;line-height:normal;text-transform:none;block-progression:tb;-inkscape-font-specification:Bitstream Vera Sans" d="M 20.34375 0 C 19.026969 -0.00041966271 17.742398 0.52923265 16.6875 1.4375 C 16.6808 1.44326 16.66292 1.4317 16.65625 1.4375 A 1.0001 1.0001 0 0 0 16.34375 1.65625 L 3.375 14.65625 C 3.0216362 15.009614 2.8589622 15.513764 2.84375 15.875 C 2.828538 16.236236 2.904311 16.509619 2.9375 16.75 L 3.1875 18.4375 L 1.1875 20.4375 L 2.28125 25.90625 L 6.46875 21.71875 L 8.15625 21.96875 C 8.360894 22.001273 8.6386601 22.07607 9 22.0625 C 9.3613399 22.04893 9.8564563 21.923495 10.25 21.53125 L 19.78125 12 C 20.24515 11.535397 20.97918 11.233454 21.8125 10.9375 C 22.64582 10.641546 23.590798 10.409202 24.34375 9.65625 C 26.541987 7.4580126 26.541987 3.8544874 24.34375 1.65625 C 23.245221 0.55772079 21.791373 0.00046136281 20.34375 0 z M 18.34375 2.59375 L 23.40625 7.625 C 23.268549 7.8359405 23.123417 8.0328328 22.9375 8.21875 C 22.716452 8.4397985 22.02643 8.7222045 21.15625 9.03125 C 20.28607 9.3402955 19.2311 9.7363534 18.375 10.59375 L 8.9375 20.0625 C 8.93195 20.062708 8.912596 20.062493 8.90625 20.0625 C 8.8157195 20.062603 8.6597203 20.03035 8.46875 20 A 1.0001 1.0001 0 0 0 8.4375 20 L 5.34375 19.53125 L 4.90625 16.46875 C 4.8737104 16.23307 4.8462598 16.08012 4.84375 16 L 17.625 3.1875 A 1.0001 1.0001 0 0 0 17.78125 3.0625 C 17.960598 2.8834477 18.142691 2.7269542 18.34375 2.59375 z M 16.90625 5.75 L 7.28125 15.34375 L 9.5625 17.625 L 19.15625 8 L 16.90625 5.75 z M 14.8125 9.3125 L 15.59375 10.0625 L 13.3125 12.34375 L 12.5625 11.59375 L 14.8125 9.3125 z" color="#000" overflow="visible" enable-background="accumulate" font-family="Bitstream Vera Sans"/>
</svg>