<svg xmlns="http://www.w3.org/2000/svg" width="26" height="26" viewBox="0 0 26 26" style="fill: ;">
    <path d="M 12.90625 -0.03125 A 1.0001 1.0001 0 0 0 12.78125 0 A 1.0001 1.0001 0 0 0 12 1 L 12 4 A 1.0001 1.0001 0 1 0 14 4 L 14 1 A 1.0001 1.0001 0 0 0 12.90625 -0.03125 z M 6.84375 1.59375 A 1.0001 1.0001 0 0 0 6.125 3.09375 L 7.625 5.71875 A 1.0077822 1.0077822 0 0 0 9.375 4.71875 L 7.875 2.09375 A 1.0001 1.0001 0 0 0 6.84375 1.59375 z M 18.8125 1.59375 A 1.0001 1.0001 0 0 0 18.125 2.09375 L 16.625 4.71875 A 1.0077822 1.0077822 0 0 0 18.375 5.71875 L 19.875 3.09375 A 1.0001 1.0001 0 0 0 18.90625 1.59375 A 1.0001 1.0001 0 0 0 18.8125 1.59375 z M 23.34375 5.96875 A 1.0001 1.0001 0 0 0 23.25 6 A 1.0001 1.0001 0 0 0 22.90625 6.125 L 20.28125 7.625 A 1.0077822 1.0077822 0 0 0 21.28125 9.375 L 23.90625 7.875 A 1.0001 1.0001 0 0 0 23.34375 5.96875 z M 2.4375 6 A 1.0001 1.0001 0 0 0 2.09375 7.875 L 4.71875 9.375 A 1.0077822 1.0077822 0 0 0 5.71875 7.625 L 3.09375 6.125 A 1.0001 1.0001 0 0 0 2.4375 6 z M 13 6 C 9.134 6 6 9.134 6 13 C 6 16.866 9.134 20 13 20 C 16.866 20 20 16.866 20 13 C 20 9.134 16.866 6 13 6 z M 13 8 C 15.757 8 18 10.243 18 13 C 18 15.757 15.757 18 13 18 C 10.243 18 8 15.757 8 13 C 8 10.243 10.243 8 13 8 z M 0.71875 12 A 1.0043849 1.0043849 0 0 0 1 14 L 4 14 A 1.0001 1.0001 0 1 0 4 12 L 1 12 A 1.0001 1.0001 0 0 0 0.90625 12 A 1.001098 1.001098 0 0 0 0.8125 12 A 1.0043849 1.0043849 0 0 0 0.71875 12 z M 21.71875 12 A 1.0043849 1.0043849 0 0 0 22 14 L 25 14 A 1.0001 1.0001 0 1 0 25 12 L 22 12 A 1.0001 1.0001 0 0 0 21.90625 12 A 1.001098 1.001098 0 0 0 21.8125 12 A 1.0043849 1.0043849 0 0 0 21.71875 12 z M 5.15625 16.46875 A 1.0001 1.0001 0 0 0 5.0625 16.5 A 1.0001 1.0001 0 0 0 4.71875 16.625 L 2.09375 18.125 A 1.0077822 1.0077822 0 0 0 3.09375 19.875 L 5.71875 18.375 A 1.0001 1.0001 0 0 0 5.15625 16.46875 z M 20.625 16.5 A 1.0001 1.0001 0 0 0 20.28125 18.375 L 22.90625 19.875 A 1.0077822 1.0077822 0 0 0 23.90625 18.125 L 21.28125 16.625 A 1.0001 1.0001 0 0 0 20.625 16.5 z M 8.3125 19.78125 A 1.0001 1.0001 0 0 0 7.625 20.28125 L 6.125 22.90625 A 1.0077822 1.0077822 0 0 0 7.875 23.90625 L 9.375 21.28125 A 1.0001 1.0001 0 0 0 8.40625 19.78125 A 1.0001 1.0001 0 0 0 8.3125 19.78125 z M 17.34375 19.78125 A 1.0001 1.0001 0 0 0 16.625 21.28125 L 18.125 23.90625 A 1.0077822 1.0077822 0 0 0 19.875 22.90625 L 18.375 20.28125 A 1.0001 1.0001 0 0 0 17.34375 19.78125 z M 12.90625 20.96875 A 1.0001 1.0001 0 0 0 12.78125 21 A 1.0001 1.0001 0 0 0 12 22 L 12 25 A 1.0001 1.0001 0 1 0 14 25 L 14 22 A 1.0001 1.0001 0 0 0 12.90625 20.96875 z"/>
</svg>