<svg xmlns="http://www.w3.org/2000/svg" width="26" height="26" viewBox="0 0 26 26" style="fill: ;">
    <path d="M23.633,5.028c-0.2-0.227-0.481-0.358-0.777-0.366c-2.295-0.06-5.199-2.514-7.119-3.477 c-1.186-0.593-1.969-0.984-2.557-1.087C13.119,0.09,13.06,0.084,13,0.084s-0.119,0.006-0.18,0.015 c-0.588,0.103-1.371,0.494-2.556,1.087C8.344,2.148,5.44,4.603,3.145,4.662C2.849,4.67,2.567,4.802,2.367,5.028 C2.165,5.254,2.061,5.555,2.076,5.862c0.493,10.023,4.088,16.226,10.396,19.831c0.164,0.093,0.346,0.141,0.527,0.141 s0.363-0.048,0.528-0.141c6.308-3.605,9.902-9.808,10.396-19.831C23.939,5.555,23.835,5.254,23.633,5.028z M18.063,15.277 c0,1.36-2.604,1.67-5.048,1.67c-2.44,0-5.077-0.31-5.077-1.67c0-0.268,0-0.104,0-0.374c0-0.999,1.8-2.011,3.333-2.564 c0.111-0.041,0.641-0.329,0.345-1.106c-0.76-0.775-1.334-2.034-1.334-3.271c0-1.896,1.254-2.889,2.719-2.889 s2.726,0.993,2.726,2.889c0,1.232-0.577,2.485-1.332,3.264h0.003c-0.289,0.881,0.174,1.09,0.248,1.114 c1.61,0.532,3.418,1.536,3.418,2.564C18.063,15.173,18.063,15.01,18.063,15.277z"/>
</svg>