<svg xmlns="http://www.w3.org/2000/svg" width="26" height="26" viewBox="0 0 26 26" style="fill: ;">
    <path d="M 12.03125 2.0625 C 11.709746 2.064498 11.35525 2.207625 11.03125 2.53125 L 4.4375 9 L 1 9 C 0.449 9 0 9.449 0 10 L 0 16 C 0 16.551 0.449 17 1 17 L 4.4375 17 L 11 23.4375 C 12 24.4375 13 23.9255 13 22.5625 L 13 3.28125 C 13 2.49 12.56709 2.0591699 12.03125 2.0625 z M 19.28125 3.0625 A 1.0001 1.0001 0 0 0 19.0625 4.96875 C 21.999157 6.4505743 24 9.4758058 24 13 C 24 16.524194 21.999157 19.549426 19.0625 21.03125 A 1.0001 1.0001 0 1 0 19.9375 22.8125 C 23.528843 21.000324 26 17.287806 26 13 C 26 8.7121942 23.528843 4.9996757 19.9375 3.1875 A 1.0001 1.0001 0 0 0 19.375 3.0625 A 1.0001 1.0001 0 0 0 19.28125 3.0625 z M 17.125 5.8125 A 1.0001 1.0001 0 0 0 16.84375 7.71875 C 18.723031 8.7325164 20 10.706343 20 13 C 20 15.286543 18.744074 17.267051 16.875 18.28125 A 1.0001 1.0001 0 1 0 17.8125 20.03125 C 20.307426 18.677449 22 16.029457 22 13 C 22 9.9616569 20.287969 7.3209836 17.78125 5.96875 A 1.0001 1.0001 0 0 0 17.3125 5.8125 A 1.0001 1.0001 0 0 0 17.125 5.8125 z M 14.53125 9.09375 A 1.0001 1.0001 0 0 0 14.5 11.0625 C 15.356772 11.286497 16 12.061763 16 13 C 16 13.938237 15.356772 14.713503 14.5 14.9375 A 1.0004882 1.0004882 0 1 0 15 16.875 C 16.721228 16.424997 18 14.849763 18 13 C 18 11.150237 16.721228 9.5750029 15 9.125 A 1.0001 1.0001 0 0 0 14.625 9.09375 A 1.0001 1.0001 0 0 0 14.53125 9.09375 z"/>
</svg>