<svg xmlns="http://www.w3.org/2000/svg" width="26" height="26" viewBox="0 0 26 26" style="fill: ;">
    <path d="M 15.90625 3.96875 A 1.0001 1.0001 0 0 0 15.78125 4 A 1.0001 1.0001 0 0 0 15.28125 5.71875 L 16.5625 7 L 10.84375 7 C 10.399078 5.2756909 8.8631878 4 7 4 C 4.790861 4 3 5.790861 3 8 C 3 10.209139 4.790861 12 7 12 C 8.8631878 12 10.399078 10.724309 10.84375 9 L 16.5625 9 L 15.28125 10.28125 A 1.016466 1.016466 0 1 0 16.71875 11.71875 L 19.71875 8.71875 A 1.0001 1.0001 0 0 0 19.71875 7.28125 L 16.71875 4.28125 A 1.0001 1.0001 0 0 0 15.90625 3.96875 z M 19.90625 13.96875 A 1.0001 1.0001 0 0 0 19.78125 14 A 1.0001 1.0001 0 0 0 19.28125 15.71875 L 20.5625 17 L 14.84375 17 C 14.399078 15.275691 12.863188 14 11 14 C 8.790861 14 7 15.790861 7 18 C 7 20.209139 8.790861 22 11 22 C 12.863188 22 14.399078 20.724309 14.84375 19 L 20.5625 19 L 19.28125 20.28125 A 1.016466 1.016466 0 1 0 20.71875 21.71875 L 23.71875 18.71875 A 1.0001 1.0001 0 0 0 23.71875 17.28125 L 20.71875 14.28125 A 1.0001 1.0001 0 0 0 19.90625 13.96875 z"/>
</svg>