<svg xmlns="http://www.w3.org/2000/svg" width="26" height="26" viewBox="0 0 26 26" style="fill: ;">
    <path d="M 8 0 C 6.343 0 5 1.344 5 3 L 5 23 C 5 24.656 6.343 26 8 26 L 19 26 C 20.657 26 22 24.656 22 23 L 22 3 C 22 1.344 20.657 0 19 0 L 8 0 z M 11.5 1 L 15.5 1 C 15.776 1 16 1.224 16 1.5 C 16 1.776 15.776 2 15.5 2 L 11.5 2 C 11.224 2 11 1.776 11 1.5 C 11 1.224 11.224 1 11.5 1 z M 7.5 3 L 19.5 3 C 19.776 3 20 3.224 20 3.5 L 20 20.5 C 20 20.776 19.776 21 19.5 21 L 7.5 21 C 7.224 21 7 20.776 7 20.5 L 7 3.5 C 7 3.224 7.224 3 7.5 3 z M 11.65625 6.71875 C 11.61525 6.74775 11.594 6.83 11.625 6.875 L 12.15625 7.625 C 11.31925 8.013 10.73025 8.762 10.65625 9.625 L 16.34375 9.625 C 16.26975 8.762 15.68075 8.014 14.84375 7.625 L 15.375 6.875 C 15.406 6.83 15.416 6.74675 15.375 6.71875 C 15.334 6.69075 15.25075 6.705 15.21875 6.75 L 14.6875 7.5625 C 14.3255 7.4205 13.922 7.34375 13.5 7.34375 C 13.078 7.34375 12.6725 7.4205 12.3125 7.5625 L 11.78125 6.75 C 11.74925 6.705 11.69725 6.69175 11.65625 6.71875 z M 12.3125 8.1875 C 12.4855 8.1875 12.625 8.326 12.625 8.5 C 12.625 8.674 12.4855 8.84375 12.3125 8.84375 C 12.1395 8.84375 11.96875 8.675 11.96875 8.5 C 11.96875 8.327 12.1395 8.1875 12.3125 8.1875 z M 14.75 8.1875 C 14.924 8.1875 15.0625 8.326 15.0625 8.5 C 15.0625 8.674 14.924 8.84375 14.75 8.84375 C 14.577 8.84375 14.4375 8.675 14.4375 8.5 C 14.4375 8.327 14.576 8.1875 14.75 8.1875 z M 9.625 10 C 9.272 10 9 10.29825 9 10.65625 L 9 13.1875 C 9 13.5455 9.272 13.84375 9.625 13.84375 C 9.98 13.84375 10.28125 13.5455 10.28125 13.1875 L 10.28125 10.65625 C 10.28025 10.29825 9.98 10 9.625 10 z M 17.34375 10 C 16.98975 10 16.71875 10.29825 16.71875 10.65625 L 16.71875 13.1875 C 16.71875 13.5455 16.98975 13.84375 17.34375 13.84375 C 17.69775 13.84375 18 13.5455 18 13.1875 L 18 10.65625 C 18 10.29825 17.69775 10 17.34375 10 z M 10.65625 10.03125 L 10.65625 14.65625 C 10.65625 14.93225 10.88125 15.15625 11.15625 15.15625 L 11.71875 15.15625 L 11.71875 16.59375 C 11.71875 16.95175 12.021 17.21875 12.375 17.21875 C 12.729 17.21875 13 16.95175 13 16.59375 L 13 15.15625 L 14 15.15625 L 14 16.59375 C 14 16.95175 14.30325 17.21875 14.65625 17.21875 C 15.01025 17.21875 15.28125 16.95175 15.28125 16.59375 L 15.28125 15.15625 L 15.875 15.15625 C 16.151 15.15625 16.375 14.93225 16.375 14.65625 L 16.375 10.03125 L 10.65625 10.03125 z M 8.5 23 L 10.5 23 C 10.776 23 11 23.224 11 23.5 C 11 23.776 10.776 24 10.5 24 L 8.5 24 C 8.224 24 8 23.776 8 23.5 C 8 23.224 8.224 23 8.5 23 z M 12.5 23 L 14.5 23 C 14.776 23 15 23.224 15 23.5 L 15 24.5 C 15 24.776 14.776 25 14.5 25 L 12.5 25 C 12.224 25 12 24.776 12 24.5 L 12 23.5 C 12 23.224 12.224 23 12.5 23 z M 16.5 23 L 18.5 23 C 18.776 23 19 23.224 19 23.5 C 19 23.776 18.776 24 18.5 24 L 16.5 24 C 16.224 24 16 23.776 16 23.5 C 16 23.224 16.224 23 16.5 23 z"/>
</svg>