<svg xmlns="http://www.w3.org/2000/svg" width="26" height="26" viewBox="0 0 26 26" style="fill: ;">
    <path d="M 12.8125 0.09375 C 12.2235 0.19675 11.434 0.5945 10.25 1.1875 C 8.329 2.1495 5.45225 4.59725 3.15625 4.65625 C 2.86125 4.66425 2.575 4.80525 2.375 5.03125 C 2.173 5.25725 2.0475 5.568 2.0625 5.875 C 2.5565 15.898 6.16075 22.0825 12.46875 25.6875 C 12.63275 25.7805 12.818 25.84375 13 25.84375 C 13.182 25.84375 13.36725 25.7805 13.53125 25.6875 C 19.83925 22.0825 23.4435 15.898 23.9375 5.875 C 23.9525 5.568 23.827 5.25725 23.625 5.03125 C 23.425 4.80425 23.13975 4.66425 22.84375 4.65625 C 20.54875 4.59625 17.67 2.1505 15.75 1.1875 C 14.564 0.5945 13.7765 0.19675 13.1875 0.09375 C 13.1275 0.08575 13.06 0.09375 13 0.09375 C 12.94 0.09375 12.8715 0.08475 12.8125 0.09375 z M 8.5 7 L 17.5 7 C 18.328 7 19 7.672 19 8.5 L 19 15.5 C 19 16.328 18.328 17 17.5 17 L 8.5 17 C 7.672 17 7 16.328 7 15.5 L 7 8.5 C 7 7.672 7.672 7 8.5 7 z M 16 8 L 16 9 L 17 9 L 17 8 L 16 8 z M 8 10 L 8 15.5 C 8 15.775 8.225 16 8.5 16 L 17.5 16 C 17.775 16 18 15.775 18 15.5 L 18 10 L 8 10 z"/>
</svg>