<svg xmlns="http://www.w3.org/2000/svg" version="1" viewBox="0 0 26 26" enable-background="new 0 0 26 26" style="fill: ;">
    <path d="M23.6,5c-0.2-0.2-0.5-0.4-0.8-0.4c-2.3-0.1-5.2-2.5-7.1-3.5c-1.2-0.6-2-1-2.6-1.1c-0.1,0-0.1,0-0.2,0s-0.1,0-0.2,0 c-0.6,0.1-1.4,0.5-2.6,1.1c-1.9,1-4.8,3.4-7.1,3.5C2.8,4.7,2.6,4.8,2.4,5C2.2,5.3,2.1,5.6,2.1,5.9c0.5,10,4.1,16.2,10.4,19.8 c0.2,0.1,0.3,0.1,0.5,0.1s0.4,0,0.5-0.1c6.3-3.6,9.9-9.8,10.4-19.8C23.9,5.6,23.8,5.3,23.6,5z M19,15.5l-5-2.7V16l2,1.5V18l-3-0.5 L10,18v-0.5l2-1.5v-3.2l-5,2.7v-1.1l5-4.3V6c0-0.6,0.4-1,1-1s1,0.4,1,1v4.1l5,4.3V15.5z"/>
</svg>