<svg xmlns="http://www.w3.org/2000/svg" width="26" height="26" viewBox="0 0 26 26" style="fill: ;">
    <path d="M 17 0 C 17 0 16.220529 0.0394163 15.21875 0.46875 C 14.216971 0.8980837 12.859817 1.7026826 11.28125 3.28125 C 8.1241152 6.4383848 7.0625 9.6875 7.0625 9.6875 A 1.0001 1.0001 0 1 0 8.9375 10.3125 C 8.9375 10.3125 9.8758848 7.5616152 12.71875 4.71875 C 14.140183 3.2973174 15.283029 2.6019163 16.03125 2.28125 C 16.515224 2.0738324 16.52707 2.1117828 16.65625 2.09375 L 17.8125 3.25 C 16.251875 4.457125 14.15275 6.191 12.03125 8.3125 C 7.78825 12.5555 3.84375 17.90625 3.84375 17.90625 L 8.09375 22.15625 C 8.09375 22.15625 13.4455 18.21075 17.6875 13.96875 C 21.9295 9.72675 24.65625 5.59375 24.65625 5.59375 L 20.40625 1.34375 C 20.40625 1.34375 20.029589 1.6306586 19.46875 2.03125 L 17.71875 0.28125 A 1.0001 1.0001 0 0 0 17 0 z M 23.65625 0 C 23.01875 0.06975 22.269 0.38625 21.3125 0.84375 L 25.15625 4.6875 C 26.07125 2.7735 26.40075 1.71325 25.34375 0.65625 C 24.81525 0.12775 24.29375 -0.06975 23.65625 0 z M 3.15625 18.59375 C 1.830625 20.80375 1.4413965 22.636973 1.34375 23.6875 L 0.5 24.5 A 0.70710678 0.70710678 0 0 0 1.5 25.5 L 2.34375 24.65625 C 3.3982307 24.554624 5.2151459 24.158041 7.40625 22.84375 L 3.15625 18.59375 z"/>
</svg>