<svg xmlns="http://www.w3.org/2000/svg" width="26" height="26" viewBox="0 0 26 26" style="fill: ;">
    <path d="M 16.6875 0 C 16.488311 0.0077265625 16.294875 0.044375 16.09375 0.09375 L 2.5 3.40625 C 0.892 3.80025 -0.11375 5.42225 0.28125 7.03125 L 2.1875 14.8125 C 2.4265 15.7905 3.131 16.528 4 16.875 L 4 15 C 4 12.243 6.243 10 9 10 L 21.59375 10 L 19.71875 2.28125 C 19.374 0.873375 18.081826 -0.054085938 16.6875 0 z M 17.90625 4.3125 L 18.71875 7.71875 L 15.34375 8.53125 L 14.5 5.15625 L 17.90625 4.3125 z M 9 12 C 7.344 12 6 13.344 6 15 L 6 16 L 6 19 L 6 23 C 6 24.656 7.344 26 9 26 L 23 26 C 24.656 26 26 24.656 26 23 L 26 15 C 26 13.344 24.656 12 23 12 L 9 12 z M 9 13.59375 L 23 13.59375 C 23.771 13.59375 24.40625 14.229 24.40625 15 L 24.40625 16 L 7.59375 16 L 7.59375 15 C 7.59375 14.229 8.229 13.59375 9 13.59375 z M 7.59375 19 L 24.40625 19 L 24.40625 23 C 24.40625 23.771 23.771 24.40625 23 24.40625 L 9 24.40625 C 8.229 24.40625 7.59375 23.771 7.59375 23 L 7.59375 19 z"/>
</svg>