<svg xmlns="http://www.w3.org/2000/svg" width="26" height="26" viewBox="0 0 26 26" style="fill: ;">
    <path d="M 19.53125 1.53125 L 14.25 4.40625 L 5.5 9.1875 L 0.21875 12.09375 L 2.5 16.21875 L 2.5 13 C 2.5 12.172 3.172 11.5 4 11.5 L 4.8125 11.5 L 4.84375 11.375 L 16.4375 5.03125 L 17.3125 5.28125 C 17.3375 5.36125 17.36325 5.45425 17.40625 5.53125 C 17.75025 6.16125 18.52625 6.4065 19.15625 6.0625 C 19.23225 6.0205 19.28075 5.93 19.34375 5.875 L 20.25 6.15625 L 22.25 9.8125 L 22 10.71875 C 21.921 10.74275 21.827 10.73925 21.75 10.78125 C 21.457 10.94125 21.25925 11.209 21.15625 11.5 L 25 11.5 L 22.40625 6.78125 L 19.53125 1.53125 z M 18.4375 8.09375 C 17.846479 8.2146904 17.40625 8.7482258 17.40625 9.375 C 17.40625 10.091314 17.971186 10.6875 18.6875 10.6875 C 19.403813 10.6875 20 10.091314 20 9.375 C 20 8.6586866 19.403813 8.09375 18.6875 8.09375 C 18.597961 8.09375 18.521932 8.0764728 18.4375 8.09375 z M 13.5625 8.96875 C 12.836154 8.9468301 12.08825 9.109625 11.375 9.5 C 10.504 9.976 9.852 10.704 9.5 11.5 L 16.75 11.5 C 16.692 11.195 16.5915 10.906 16.4375 10.625 C 15.870625 9.59125 14.773076 9.0052832 13.5625 8.96875 z M 4 13 L 4 19 L 4 26 L 26 26 L 26 19 L 26 13 L 4 13 z M 8.40625 14.59375 L 21.59375 14.59375 L 22.25 15.25 C 22.233 15.333 22.1875 15.412 22.1875 15.5 C 22.1875 16.217 22.783 16.8125 23.5 16.8125 C 23.588 16.8125 23.667 16.766 23.75 16.75 L 24.40625 17.40625 L 24.40625 21.59375 L 23.75 22.25 C 23.667 22.233 23.588 22.1875 23.5 22.1875 C 22.783 22.1875 22.1875 22.783 22.1875 23.5 C 22.1875 23.588 22.233 23.667 22.25 23.75 L 21.59375 24.40625 L 8.40625 24.40625 L 7.75 23.75 C 7.767 23.667 7.8125 23.588 7.8125 23.5 C 7.8125 22.783 7.217 22.1875 6.5 22.1875 C 6.412 22.1875 6.333 22.234 6.25 22.25 L 5.59375 21.59375 L 5.59375 17.40625 L 6.25 16.75 C 6.333 16.767 6.412 16.8125 6.5 16.8125 C 7.217 16.8125 7.8125 16.217 7.8125 15.5 C 7.8125 15.412 7.767 15.333 7.75 15.25 L 8.40625 14.59375 z M 15 16.09375 C 12.83173 16.09375 11.0625 17.6145 11.0625 19.5 C 11.0625 21.3855 12.83173 22.90625 15 22.90625 C 17.16827 22.90625 18.9375 21.3855 18.9375 19.5 C 18.9375 17.6145 17.16827 16.09375 15 16.09375 z M 8.5 18.1875 C 7.7836867 18.1875 7.1875 18.783687 7.1875 19.5 C 7.1875 20.216313 7.7836867 20.8125 8.5 20.8125 C 9.2163133 20.8125 9.8125 20.216313 9.8125 19.5 C 9.8125 18.783687 9.2163133 18.1875 8.5 18.1875 z M 21.5 18.1875 C 20.783134 18.1875 20.1875 18.783134 20.1875 19.5 C 20.1875 20.216866 20.783134 20.8125 21.5 20.8125 C 22.216866 20.8125 22.8125 20.216866 22.8125 19.5 C 22.8125 18.783134 22.216866 18.1875 21.5 18.1875 z"/>
</svg>