<svg xmlns="http://www.w3.org/2000/svg" version="1" viewBox="0 0 26 26" enable-background="new 0 0 26 26" style="fill: ;">
    <path d="M19.5,12.4c0.2,0.3,0.4,0.6,0.5,1.1h-3.2c0-0.1,0-0.3,0.1-0.5c0.1-0.2,0.1-0.3,0.3-0.5c0.1-0.2,0.3-0.3,0.5-0.4 c0.2-0.1,0.5-0.2,0.8-0.2C18.9,12,19.3,12.1,19.5,12.4z M10.3,11.7c0.2-0.2,0.4-0.5,0.4-0.9c0-0.2,0-0.4-0.1-0.6 c-0.1-0.1-0.2-0.3-0.3-0.3c-0.1-0.1-0.3-0.1-0.5-0.2c-0.2,0-0.4,0-0.6,0h-2V12h2.2C9.7,12,10,11.9,10.3,11.7z M9.5,13.4H7.2v2.7h2.3 c0.2,0,0.4,0,0.6-0.1c0.2,0,0.4-0.1,0.5-0.2c0.1-0.1,0.3-0.2,0.4-0.4c0.1-0.2,0.1-0.4,0.1-0.6c0-0.5-0.1-0.9-0.4-1.1 C10.4,13.5,10,13.4,9.5,13.4z M26,4.9v16.2c0,2.7-2.2,4.9-4.9,4.9H4.9C2.2,26,0,23.8,0,21.1V4.9C0,2.2,2.2,0,4.9,0h16.2 C23.8,0,26,2.2,26,4.9z M16.4,9.6h4v-1h-4V9.6z M13.2,15c0-0.6-0.1-1.1-0.4-1.6c-0.3-0.4-0.7-0.7-1.3-0.9c0.4-0.2,0.8-0.5,1-0.8 c0.2-0.3,0.3-0.7,0.3-1.2c0-0.5-0.1-0.8-0.2-1.2c-0.2-0.3-0.4-0.6-0.6-0.7c-0.3-0.2-0.6-0.3-1-0.4C10.5,8,10.1,8,9.6,8H5v9.8h4.8 c0.4,0,0.9-0.1,1.3-0.2c0.4-0.1,0.8-0.3,1.1-0.5c0.3-0.2,0.6-0.5,0.8-0.9C13.1,15.9,13.2,15.5,13.2,15z M16.8,14.7h5.1 c0-0.6,0-1.1-0.1-1.6c-0.1-0.5-0.3-1-0.6-1.3c-0.3-0.4-0.7-0.7-1.1-0.9c-0.5-0.2-1-0.4-1.6-0.4c-0.5,0-1,0.1-1.5,0.3 c-0.4,0.2-0.8,0.5-1.2,0.8c-0.3,0.3-0.6,0.7-0.7,1.2c-0.2,0.5-0.3,1-0.3,1.5c0,0.5,0.1,1.1,0.3,1.5c0.2,0.5,0.4,0.9,0.7,1.2 c0.3,0.3,0.7,0.6,1.1,0.8c0.5,0.2,1,0.3,1.5,0.3c0.8,0,1.5-0.2,2.1-0.6c0.6-0.4,1-1,1.3-1.8h-1.7c-0.1,0.2-0.2,0.4-0.5,0.6 c-0.3,0.2-0.6,0.3-1,0.3c-0.5,0-1-0.1-1.3-0.4C17,15.8,16.8,15.3,16.8,14.7z"/>
</svg>