<svg xmlns="http://www.w3.org/2000/svg" viewBox="0 0 26 26" enable-background="new 0 0 26 26" style="fill: ;">
    <path style="text-indent:0;text-align:start;line-height:normal;text-transform:none;block-progression:tb;-inkscape-font-specification:Bitstream Vera Sans" d="M 9.875 0 A 1.0001 1.0001 0 0 0 9.46875 0.15625 C 9.46875 0.15625 8.2036776 0.95162841 6.84375 1.8125 C 5.4838224 2.6733716 3.970541 3.6205328 3.625 3.8125 A 1.0001 1.0001 0 0 0 3.5625 3.84375 C 2.3059255 4.6170266 2.0444852 5.8822655 2 6.59375 C 1.9974948 6.6262587 2 6.653685 2 6.6875 C 1.9889331 6.9542035 2 7.125 2 7.125 L 2 20.1875 C 2 22.0875 4.2125 23 6.3125 23 C 7.0125 23 7.7125 22.8875 8.3125 22.6875 C 8.7125 22.4875 9 22.0875 9 21.6875 L 9 11.1875 C 9 8.8875 9.5 7.80625 11 6.90625 C 11.4 6.70625 15.59375 3.8125 15.59375 3.8125 C 15.79375 3.6125 16 3.20625 16 2.90625 L 16 2.8125 C 16 2.4125 15.8 2.10625 15.5 1.90625 C 15.2 1.70625 14.8 1.70625 14.5 1.90625 C 14.4 2.00625 8.3 6.1125 7 6.8125 C 5.7 7.6125 4.4875 7.80625 4.1875 7.40625 C 4.0945 7.31325 4.0125643 7.0280886 4 6.75 C 3.9997476 6.7423121 4.0001218 6.7269685 4 6.71875 C 3.9997593 6.7082586 4 6.698 4 6.6875 C 4.0010676 6.4147334 4.0710492 5.9033928 4.625 5.5625 C 5.1872661 5.2486928 6.5816691 4.3582783 7.9375 3.5 C 8.5105264 3.1372585 8.582399 3.0984202 9.03125 2.8125 A 1.0001 1.0001 0 0 0 11 2.5 L 11 1 A 1.0001 1.0001 0 0 0 9.875 0 z M 17.875 3.5 A 1.0001 1.0001 0 0 0 17.4375 3.6875 C 17.4375 3.6875 12.402804 7.0752141 11.53125 7.65625 A 1.0001 1.0001 0 0 0 11.5 7.6875 C 10.775556 8.2308333 10.347222 8.8767358 10.15625 9.46875 C 10.021446 9.8866422 10.001484 10.229187 10 10.5 C 9.9993816 10.612839 10 10.740605 10 10.8125 A 1.0001 1.0001 0 0 0 10 10.90625 L 10 23 C 10 24.9 12.1875 26 14.1875 26 C 15.0875 26 15.9 25.80625 16.5 25.40625 C 17.7 24.70625 23.5 20.1875 23.5 20.1875 C 23.8 19.9875 24 19.70625 24 19.40625 L 24 6.40625 C 24 5.90625 23.80625 5.60625 23.40625 5.40625 C 23.10625 5.20625 22.6125 5.3 22.3125 5.5 C 20.7125 6.7 16.40625 10.0875 15.40625 10.6875 C 14.00625 11.4875 12.6875 11.6875 12.1875 11.1875 C 11.9875 10.9875 12 10.8 12 10.5 C 12.005871 10.328115 12.024571 10.180134 12.0625 10.0625 C 12.11887 9.8877636 12.232692 9.6735738 12.65625 9.34375 C 12.67625 9.328179 12.66605 9.328579 12.6875 9.3125 C 13.410099 8.830172 15.620857 7.3235662 17.0625 6.34375 A 1.0001 1.0001 0 0 0 19 6 L 19 4.5 A 1.0001 1.0001 0 0 0 17.875 3.5 z M 22 10.8125 L 22 12.8125 L 17 16.6875 L 17 14.6875 L 22 10.8125 z" color="#000" overflow="visible" enable-background="accumulate" font-family="Bitstream Vera Sans"/>
</svg>