<svg xmlns="http://www.w3.org/2000/svg" width="26" height="26" viewBox="0 0 26 26" style="fill: ;">
    <path style="text-indent:0;text-align:start;line-height:normal;text-transform:none;block-progression:tb;-inkscape-font-specification:Bitstream Vera Sans" d="M 13 0 C 12.201841 0 11.552402 0.52302989 11.28125 1 L 10 1 C 8.9057453 1 8 1.9057453 8 3 L 6 3 C 4.344 3 3 4.344 3 6 L 3 23 C 3 24.656 4.344 26 6 26 L 20 26 C 21.656 26 23 24.656 23 23 L 23 6 C 23 4.344 21.656 3 20 3 L 18 3 C 18 1.9057453 17.094255 1 16 1 L 14.71875 1 C 14.447598 0.52302989 13.798159 0 13 0 z M 10 3 L 12 3 L 12.96875 3 L 13.03125 3 L 14 3 L 16 3 L 16 5 L 10 5 L 10 3 z M 6 6 L 8.28125 6 C 8.6295946 6.5968551 9.2673024 7 10 7 L 16 7 C 16.732698 7 17.370405 6.5968551 17.71875 6 L 20 6 L 20 23 L 6 23 L 6 6 z M 8 10 L 8 12 L 18 12 L 18 10 L 8 10 z M 8 14 L 8 16 L 15 16 L 15 14 L 8 14 z M 8 18 L 8 20 L 18 20 L 18 18 L 8 18 z" color="#000" overflow="visible" enable-background="accumulate" font-family="Bitstream Vera Sans"/>
</svg>