<svg xmlns="http://www.w3.org/2000/svg" width="26" height="26" viewBox="0 0 26 26" style="fill: ;">
    <path d="M16.002,16.417c0,0-1.373-0.31-0.723-1.679c0.803-1.078,1.291-2.301,1.33-2.701 c0,0,1.236-0.973,1.308-2.434c0.077-1.457-0.271-1.525-0.271-1.525c0.52-1.589,0.688-7.553-3.141-6.841 c-0.638-1.251-4.638-2.232-6.503,1.101C7.073,4,6.727,6.269,7.453,8.12C7.426,8.258,7.196,7.985,7.112,8.841 c-0.081,0.825,0.291,2.008,0.695,2.556c0.176,0.231,0.457,0.4,0.654,0.486c0,0,0.242,1.47,1.389,2.855 c0.264,1.099-0.827,1.679-0.827,1.679c-3.613,0.695-6.934,2.701-6.934,4.871c0,0.16,0,1.681,0,1.681 c0,2.355,5.485,2.86,10.421,2.86c4.937,0,10.385-1.419,10.385-2.86c0,0,0-1.521,0-1.681 C22.895,19.118,19.613,17.112,16.002,16.417z M19,24h-5v-3h5V24z"/>
</svg>