<svg xmlns="http://www.w3.org/2000/svg" width="26" height="26" viewBox="0 0 26 26" style="fill: ;">
    <path style="text-indent:0;text-align:start;line-height:normal;text-transform:none;block-progression:tb;-inkscape-font-specification:Bitstream Vera Sans" d="M 23.90625 -0.03125 A 1.0001 1.0001 0 0 0 23.78125 0 A 1.0001 1.0001 0 0 0 23 1 C 23 1 22.9974 1.7228319 22.53125 2.46875 C 22.065051 3.2146681 21.233333 4 19 4 C 15.777778 4 13.903637 5.1475671 12.96875 6.40625 C 12.033863 7.6649329 12.03125 9 12.03125 9 A 1.0001 1.0001 0 1 0 14.03125 9 C 14.03125 9 14.01189 8.3350671 14.5625 7.59375 C 15.113113 6.8524329 16.222222 6 19 6 C 21.766667 6 23.434949 4.7853319 24.21875 3.53125 C 25.002551 2.2771681 25 1 25 1 A 1.0001 1.0001 0 0 0 23.90625 -0.03125 z M 6.96875 9.09375 C 4.22075 9.09375 0.21875 14.04625 0.21875 20.28125 C 0.21875 22.23625 1.70575 24.9375 3.34375 24.9375 C 6.61975 24.9375 7.24 19.90625 13 19.90625 C 18.76 19.90625 19.38025 24.9375 22.65625 24.9375 C 24.29425 24.9375 25.78125 22.23625 25.78125 20.28125 C 25.78125 14.04625 21.77925 9.09375 19.03125 9.09375 C 16.28325 9.09375 15.748 12.0625 13 12.0625 C 10.252 12.0625 9.71675 9.09375 6.96875 9.09375 z M 18.75 12.75 C 18.832209 12.73316 18.912875 12.75 19 12.75 C 19.697 12.75 20.25 13.301 20.25 14 C 20.25 14.699 19.697 15.25 19 15.25 C 18.303 15.25 17.75 14.698 17.75 14 C 17.75 13.38925 18.174537 12.867879 18.75 12.75 z M 6 13 L 8 13 L 8 15 L 10 15 L 10 17 L 8 17 L 8 19 L 6 19 L 6 17 L 4 17 L 4 15 L 6 15 L 6 13 z M 16.75 14.75 C 16.832346 14.733135 16.912625 14.75 17 14.75 C 17.699 14.75 18.25 15.302 18.25 16 C 18.25 16.698 17.698 17.25 17 17.25 C 16.302 17.25 15.75 16.697 15.75 16 C 15.75 15.390125 16.17358 14.868057 16.75 14.75 z M 20.75 14.75 C 20.832346 14.73316 20.912625 14.75 21 14.75 C 21.699 14.75 22.25 15.302 22.25 16 C 22.25 16.698 21.698 17.25 21 17.25 C 20.302 17.25 19.75 16.698 19.75 16 C 19.75 15.38925 20.17358 14.867879 20.75 14.75 z M 18.75 16.75 C 18.832277 16.733186 18.91275 16.75 19 16.75 C 19.698 16.75 20.25 17.301 20.25 18 C 20.25 18.699 19.697 19.25 19 19.25 C 18.303 19.25 17.75 18.699 17.75 18 C 17.75 17.388375 18.174059 16.867701 18.75 16.75 z" color="#000" overflow="visible" enable-background="accumulate" font-family="Bitstream Vera Sans"/>
</svg>