<svg xmlns="http://www.w3.org/2000/svg" viewBox="0 0 26 26" enable-background="new 0 0 26 26" style="fill: ;">
    <path style="text-indent:0;text-align:start;line-height:normal;text-transform:none;block-progression:tb;-inkscape-font-specification:Bitstream Vera Sans" d="M 22.4375 -0.0625 C 22.0625 -0.0625 21.70625 0.10625 21.40625 0.40625 L 20.6875 1.09375 L 24.90625 5.3125 L 25.59375 4.59375 C 26.19375 3.99375 26.19375 3.1 25.59375 2.5 L 23.5 0.40625 C 23.2 0.10625 22.8125 -0.0625 22.4375 -0.0625 z M 20 1.6875 L 18.90625 2.59375 L 23.40625 7.09375 L 24.40625 6.09375 L 20 1.6875 z M 18.3125 3.3125 L 9.28125 12.25 A 0.97509752 0.97509752 0 0 0 9.15625 12.375 L 9.09375 12.40625 A 0.97509752 0.97509752 0 0 0 8.875 12.84375 L 7.65625 17.125 A 0.97509752 0.97509752 0 0 0 8.875 18.34375 L 13.15625 17.125 A 0.97509752 0.97509752 0 0 0 13.8125 16.59375 L 22.6875 7.8125 L 21 6 L 21 6.09375 L 19.8125 4.90625 L 19.90625 4.90625 L 18.3125 3.3125 z M 0.8125 4 A 1.0001 1.0001 0 0 0 0 5 L 0 25 A 1.0001 1.0001 0 0 0 1 26 L 21 26 A 1.0001 1.0001 0 0 0 22 25 L 22 14 A 1.0001 1.0001 0 1 0 20 14 L 20 24 L 2 24 L 2 6 L 12 6 A 1.0001 1.0001 0 1 0 12 4 L 1 4 A 1.0001 1.0001 0 0 0 0.90625 4 A 1.0001 1.0001 0 0 0 0.8125 4 z M 10.625 13.8125 L 12 13.90625 L 12.09375 15.40625 L 10.71875 15.8125 L 10.1875 15.28125 L 10.625 13.8125 z" color="#000" overflow="visible" enable-background="accumulate" font-family="Bitstream Vera Sans"/>
</svg>