<svg xmlns="http://www.w3.org/2000/svg" viewBox="0 0 26 26" enable-background="new 0 0 26 26" style="fill: ;">
    <path style="text-indent:0;text-align:start;line-height:normal;text-transform:none;block-progression:tb;-inkscape-font-specification:Bitstream Vera Sans" d="M 0.8125 0 A 1.0001 1.0001 0 0 0 0 1 L 0 25 A 1.0001 1.0001 0 0 0 1 26 L 17 26 A 1.0001 1.0001 0 0 0 18 25 L 18 24 L 18 22 A 1.0001 1.0001 0 0 0 18 21.90625 L 18 20 L 16 18 L 16 21.84375 A 1.0001 1.0001 0 0 0 16 22 L 16 24 L 2 24 L 2 16 L 5 16 L 5 14 L 2 14 L 2 2 L 16 2 L 16 4 A 1.0001 1.0001 0 0 0 16 4.09375 L 16 10 L 17 11 L 18 10 L 18 4.15625 A 1.0001 1.0001 0 0 0 18 4 L 18 1 A 1.0001 1.0001 0 0 0 17 0 L 1 0 A 1.0001 1.0001 0 0 0 0.90625 0 A 1.0001 1.0001 0 0 0 0.8125 0 z M 6 6 L 14 14 L 13 14 L 13 16 L 16 16 L 20.15625 20.15625 C 20.073564 20.429012 20 20.701842 20 21 C 20 22.64501 21.35499 24 23 24 C 24.64501 24 26 22.64501 26 21 C 26 19.35499 24.64501 18 23 18 C 22.701842 18 22.429012 18.073564 22.15625 18.15625 L 18.9375 14.96875 L 22.125 11.84375 C 22.406027 11.932003 22.691561 12 23 12 C 24.64501 12 26 10.64501 26 9 C 26 7.3549901 24.645009 6 23 6 C 21.354991 6 20 7.3549901 20 9 C 20 9.2981581 20.073564 9.5709884 20.15625 9.84375 L 16.96875 13.03125 L 11.3125 7.40625 C 10.4125 6.50625 9.2 6 8 6 L 6 6 z M 23 8 C 23.564129 8 24 8.4358709 24 9 C 24 9.5641283 23.564128 10 23 10 C 22.435872 10 22 9.5641283 22 9 C 22 8.4358709 22.435871 8 23 8 z M 7 14 L 7 16 L 11 16 L 11 14 L 7 14 z M 23 20 C 23.564128 20 24 20.435872 24 21 C 24 21.564128 23.564128 22 23 22 C 22.435872 22 22 21.564128 22 21 C 22 20.435872 22.435872 20 23 20 z"/>
</svg>