<svg xmlns="http://www.w3.org/2000/svg" width="26" height="26" viewBox="0 0 26 26" style="fill: ;">
    <path style="text-indent:0;text-align:start;line-height:normal;text-transform:none;block-progression:tb;-inkscape-font-specification:Bitstream Vera Sans" d="M 11.5 -0.03125 C 9.5416406 -0.03125 7.96875 1.5955183 7.96875 3.5625 L 7.96875 4 L 4 4 C 3.449 4 3 4.449 3 5 L 3 6 L 2 6 L 2 8 L 4 8 L 4 23 C 4 24.645063 5.3549372 26 7 26 L 19 26 C 20.645063 26 22 24.645063 22 23 L 22 8 L 24 8 L 24 6 L 23 6 L 23 5 C 23 4.449 22.551 4 22 4 L 18.03125 4 L 18.03125 3.5625 C 18.03125 1.5955183 16.458359 -0.03125 14.5 -0.03125 L 11.5 -0.03125 z M 11.5 2.03125 L 14.5 2.03125 C 15.303641 2.03125 15.96875 2.6874817 15.96875 3.5625 L 15.96875 4 L 10.03125 4 L 10.03125 3.5625 C 10.03125 2.6874817 10.696359 2.03125 11.5 2.03125 z M 6 8 L 11.125 8 C 11.249098 8.0134778 11.372288 8.03125 11.5 8.03125 L 14.5 8.03125 C 14.627712 8.03125 14.750902 8.0134778 14.875 8 L 20 8 L 20 23 C 20 23.562937 19.562937 24 19 24 L 7 24 C 6.4370628 24 6 23.562937 6 23 L 6 8 z M 8 10 L 8 22 L 10 22 L 10 10 L 8 10 z M 12 10 L 12 22 L 14 22 L 14 10 L 12 10 z M 16 10 L 16 22 L 18 22 L 18 10 L 16 10 z" color="#000" overflow="visible" enable-background="accumulate" font-family="Bitstream Vera Sans"/>
</svg>