<svg xmlns="http://www.w3.org/2000/svg" width="26" height="26" viewBox="0 0 26 26" style="fill: ;">
    <path style="text-indent:0;text-align:start;line-height:normal;text-transform:none;block-progression:tb;-inkscape-font-specification:Bitstream Vera Sans" d="M 0 0 L 0 1 L 0 8 L 0 9 L 0 10 L 0 17 L 0 18 L 0 25 L 0 26 L 1 26 L 8 26 L 9 26 L 9 25 L 9 18 L 9 17 L 9 10 L 9 9 L 9 8 L 9 1 L 9 0 L 8 0 L 1 0 L 0 0 z M 2 2 L 7 2 L 7 5.75 L 6.09375 4.875 L 4.8125 5.5 L 3.21875 3.59375 L 2 4.65625 L 2 2 z M 5.8125 2.59375 C 5.490518 2.59375 5.21875 2.865518 5.21875 3.1875 C 5.21875 3.509482 5.490518 3.78125 5.8125 3.78125 C 6.134482 3.78125 6.40625 3.509482 6.40625 3.1875 C 6.40625 2.865518 6.134482 2.59375 5.8125 2.59375 z M 12 4 L 12 6 L 18 6 L 18 4 L 12 4 z M 20 4 L 20 6 L 26 6 L 26 4 L 20 4 z M 2 11 L 7 11 L 7 16 L 2 16 L 2 11 z M 5 11.8125 C 4.6446406 11.865516 4.3125 12.1875 4.3125 12.1875 C 4.3125 12.1875 4.27675 12.158 4.21875 12.125 C 4.01875 12.011 3.53475 11.78575 3.21875 12.09375 C 2.80875 12.49275 3.1875 13.1875 3.1875 13.1875 C 3.1875 13.1875 2.59225 13.6775 2.78125 14.1875 C 2.82725 14.3105 2.93025 14.41075 3.03125 14.46875 C 3.34725 14.64975 3.8125 14.5625 3.8125 14.5625 C 3.8125 14.5625 4.02175 15.0035 4.34375 15.1875 C 4.43575 15.2405 4.54825 15.256 4.65625 15.25 C 5.14225 15.223 5.3125 14.40625 5.3125 14.40625 C 5.3125 14.40625 6.12 14.3155 6.25 13.8125 C 6.365 13.3665 5.756 13.0135 5.625 12.9375 C 5.625 12.9375 5.78275 12.126 5.34375 11.875 C 5.234 11.81225 5.1184531 11.794828 5 11.8125 z M 12 12 L 12 14 L 18 14 L 18 12 L 12 12 z M 20 12 L 20 14 L 26 14 L 26 12 L 20 12 z M 4.78125 12.6875 C 4.8094004 12.680076 4.844125 12.669875 4.875 12.6875 C 5.123 12.8295 4.53125 13.375 4.53125 13.375 C 4.53125 13.375 5.293 13.2755 5.25 13.5625 C 5.208 13.8505 4.53125 13.46875 4.53125 13.46875 C 4.53125 13.46875 4.8485 14.17275 4.5625 14.21875 C 4.2765 14.26475 4.4375 13.46875 4.4375 13.46875 C 4.4375 13.46875 3.80875 14.006 3.71875 13.75 C 3.62875 13.496 4.375 13.375 4.375 13.375 C 4.375 13.375 3.7155 12.9975 3.9375 12.8125 C 4.1595 12.6275 4.46875 13.3125 4.46875 13.3125 C 4.46875 13.3125 4.5841973 12.739467 4.78125 12.6875 z M 2 19 L 7 19 L 7 24 L 2 24 L 2 19 z M 4.5 19.75 C 4.5 19.75 4.29475 20.38375 4.09375 20.46875 C 3.89275 20.55375 3.25 20.25 3.25 20.25 C 3.25 20.25 3.53675 20.88775 3.46875 21.09375 C 3.42075 21.24075 2.75 21.5 2.75 21.5 C 2.75 21.5 3.3915 21.73025 3.4375 21.90625 C 3.5045 22.16725 3.25 22.75 3.25 22.75 C 3.25 22.75 3.83925 22.42825 4.03125 22.53125 C 4.22425 22.63325 4.5 23.25 4.5 23.25 C 4.5 23.25 4.70525 22.61625 4.90625 22.53125 C 5.10725 22.44625 5.75 22.75 5.75 22.75 C 5.75 22.75 5.45925 22.11125 5.53125 21.90625 C 5.58525 21.74725 6.25 21.5 6.25 21.5 C 6.25 21.5 5.6155 21.25275 5.5625 21.09375 C 5.4775 20.83775 5.75 20.25 5.75 20.25 C 5.75 20.25 5.16075 20.57175 4.96875 20.46875 C 4.77675 20.36675 4.5 19.75 4.5 19.75 z M 12 20 L 12 22 L 18 22 L 18 20 L 12 20 z M 20 20 L 20 22 L 26 22 L 26 20 L 20 20 z M 4.5 20.6875 C 4.943 20.6875 5.3125 21.058 5.3125 21.5 C 5.3125 21.942 4.943 22.3125 4.5 22.3125 C 4.057 22.3125 3.6875 21.942 3.6875 21.5 C 3.6875 21.058 4.057 20.6875 4.5 20.6875 z"/>
</svg>