<svg xmlns="http://www.w3.org/2000/svg" width="26" height="26" viewBox="0 0 26 26" style="fill: ;">
    <path style="text-indent:0;text-align:start;line-height:normal;text-transform:none;block-progression:tb;-inkscape-font-specification:Bitstream Vera Sans" d="M 5 0 C 3.9081212 0 3 0.90812116 3 2 L 3 21 C 3 22.091879 3.9081212 23 5 23 L 7 23 L 7 26 L 10 24 L 13 26 L 13 18.84375 C 12.863 18.91975 12.7165 18.98925 12.5625 19.03125 C 12.3515 19.48725 11.96675 19.84925 11.46875 20.03125 C 11.25475 20.10725 11.0375 20.125 10.8125 20.125 C 10.5335 20.125 10.253 20.08875 10 19.96875 C 9.746 20.08775 9.4735 20.125 9.1875 20.125 C 8.9625 20.125 8.74425 20.10825 8.53125 20.03125 C 8.03825 19.85025 7.6505 19.48725 7.4375 19.03125 C 7.2835 18.98925 7.138 18.91975 7 18.84375 L 7 21 L 5 21 L 5 2 L 21 2 L 21 21 L 16 21 A 1.0001 1.0001 0 1 0 16 23 L 21 23 C 22.091879 23 23 22.091879 23 21 L 23 2 C 23 0.90812116 22.091879 0 21 0 L 5 0 z M 7.8125 5 A 1.001098 1.001098 0 0 0 8 7 L 18 7 A 1.0001 1.0001 0 1 0 18 5 L 8 5 A 1.0001 1.0001 0 0 0 7.90625 5 A 1.001098 1.001098 0 0 0 7.8125 5 z M 7.8125 9 A 1.001098 1.001098 0 0 0 8 11 L 15 11 A 1.0001 1.0001 0 1 0 15 9 L 8 9 A 1.0001 1.0001 0 0 0 7.90625 9 A 1.001098 1.001098 0 0 0 7.8125 9 z M 10 12.65625 C 9.591 12.65625 9.21875 12.9225 9.09375 13.3125 C 9.05275 13.3255 9.00775 13.32775 8.96875 13.34375 C 8.62275 13.13175 8.189 13.1765 7.875 13.4375 C 7.566 13.6965 7.45075 14.124 7.59375 14.5 C 7.56675 14.541 7.55625 14.582 7.53125 14.625 C 7.13125 14.687 6.82 15.00625 6.75 15.40625 C 6.681 15.79925 6.87375 16.178 7.21875 16.375 C 7.22575 16.438 7.20575 16.5015 7.21875 16.5625 C 6.97675 16.8655 6.929 17.286 7.125 17.625 C 7.319 17.962 7.70575 18.14975 8.09375 18.09375 C 8.14475 18.14075 8.195 18.17575 8.25 18.21875 C 8.26 18.60575 8.507 18.95875 8.875 19.09375 C 9.239 19.22675 9.65125 19.0995 9.90625 18.8125 C 9.94325 18.8145 9.962 18.84375 10 18.84375 C 10.041 18.84375 10.084 18.8135 10.125 18.8125 C 10.306 19.0115 10.5525 19.125 10.8125 19.125 C 10.9215 19.125 11.019 19.13175 11.125 19.09375 C 11.493 18.95875 11.742 18.60775 11.75 18.21875 C 11.803 18.17675 11.85525 18.14075 11.90625 18.09375 C 12.28825 18.15075 12.679 17.964 12.875 17.625 C 13.07 17.286 13.02425 16.8645 12.78125 16.5625 C 12.79525 16.5015 12.77225 16.436 12.78125 16.375 C 13.12725 16.18 13.32 15.80125 13.25 15.40625 C 13.18 15.00625 12.86875 14.686 12.46875 14.625 C 12.44475 14.581 12.43325 14.542 12.40625 14.5 C 12.55025 14.124 12.434 13.6965 12.125 13.4375 C 11.813 13.1755 11.37625 13.13175 11.03125 13.34375 C 10.99025 13.32775 10.94725 13.3255 10.90625 13.3125 C 10.78125 12.9225 10.409 12.65625 10 12.65625 z M 10 14.40625 C 10.886 14.40625 11.59375 15.114 11.59375 16 C 11.59375 16.888 10.887 17.59375 10 17.59375 C 9.113 17.59375 8.40625 16.887 8.40625 16 C 8.40625 15.113 9.114 14.40625 10 14.40625 z" color="#000" overflow="visible" enable-background="accumulate" font-family="Bitstream Vera Sans"/>
</svg>