<svg xmlns="http://www.w3.org/2000/svg" width="26" height="26" viewBox="0 0 26 26" style="fill: ;">
    <path d="M 10 1 C 8.3549372 1 7 2.3549372 7 4 L 7 5 L 7 6 L 9 6 L 9 5 L 9 4 C 9 3.4370628 9.4370628 3 10 3 L 16 3 C 16.562937 3 17 3.4370628 17 4 L 17 5 L 17 6 L 19 6 L 19 5 L 19 4 C 19 2.3549372 17.645063 1 16 1 L 10 1 z M 3 7 C 1.343 7 0 8.343 0 10 L 0 22 C 0 23.656 1.343 25 3 25 L 23 25 C 24.656 25 26 23.656 26 22 L 26 10 C 26 8.343 24.656 7 23 7 L 3 7 z M 13 9.90625 C 16.369 9.90625 19.09375 12.63 19.09375 16 C 19.09375 19.37 16.369 22.09375 13 22.09375 C 9.631 22.09375 6.90625 19.37 6.90625 16 C 6.90625 12.63 9.631 9.90625 13 9.90625 z M 12 13 L 12 15 L 10 15 L 10 17 L 12 17 L 12 19 L 14 19 L 14 17 L 16 17 L 16 15 L 14 15 L 14 13 L 12 13 z"/>
</svg>