<svg xmlns="http://www.w3.org/2000/svg" version="1" viewBox="0 0 26 26" enable-background="new 0 0 26 26" style="fill: ;">
    <path d="M 4 0 C 1.8 0 0 1.8 0 4 L 0 21 C 0 23.2 1.8 25 4 25 L 12.1875 25 L 12.1875 24.8125 L 12.6875 23 L 4 23 C 2.9 23 2 22.1 2 21 L 2 4 C 2 2.9 2.9 2 4 2 L 10.3125 2 C 11.0125 2.2 11 3.1 11 4 L 11 7 C 11 7.6 11.4 8 12 8 L 15 8 C 16 8 17 8 17 9 L 17 17 L 19 15 L 19 8 C 19 6.9 18.0125 5.8875 16.3125 4.1875 C 16.0125 3.9875 15.8 3.7 15.5 3.5 C 15.3 3.2 15.0125 2.9875 14.8125 2.6875 C 13.1125 0.9875 12.1 5.9211895e-16 11 0 L 4 0 z M 23.34375 14.09375 C 23.06875 14.09375 22.79375 14.20625 22.59375 14.40625 L 21.40625 15.59375 L 24.40625 18.59375 L 25.59375 17.40625 C 25.99375 17.00625 25.99375 16.40625 25.59375 15.90625 L 24.09375 14.40625 C 23.89375 14.20625 23.61875 14.09375 23.34375 14.09375 z M 20.3125 16.59375 L 15.59375 21.59375 C 15.49375 21.59375 15.40625 21.7125 15.40625 21.8125 L 14.3125 25.40625 C 14.2125 25.50625 14.30625 25.7125 14.40625 25.8125 C 14.50625 25.9125 14.5875 25.90625 14.6875 25.90625 L 14.8125 25.90625 L 18.40625 24.8125 C 18.50625 24.8125 18.49375 24.7875 18.59375 24.6875 L 23.5 19.8125 L 20.3125 16.59375 z M 16 22.09375 L 17.5 22.40625 L 17.8125 24 L 15.8125 24.5 L 15.40625 24.09375 L 16 22.09375 z"/>
</svg>