<svg xmlns="http://www.w3.org/2000/svg" width="26" height="26" viewBox="0 0 26 26" style="fill: ;">
    <path d="M 16 5 C 15.449 5 15 5.449 15 6 L 15 10.875 L 7.90625 5.25 C 7.50325 5.047 7.009 5.0795 6.625 5.3125 C 6.239 5.5445 6 5.96225 6 6.40625 L 6 19.59375 C 6 20.03675 6.239 20.4545 6.625 20.6875 C 6.833 20.8135 7.0735 20.875 7.3125 20.875 C 7.5135 20.875 7.72125 20.842 7.90625 20.75 L 15 15.125 L 15 20 C 15 20.551 15.449 21 16 21 L 19 21 C 19.551 21 20 20.551 20 20 L 20 6 C 20 5.449 19.551 5 19 5 L 16 5 z"/>
</svg>