<svg xmlns="http://www.w3.org/2000/svg" width="26" height="26" viewBox="0 0 26 26" style="fill: ;">
    <path d="M24.469,0.993c-0.027-0.532-0.466-0.95-0.999-0.95h-2.849c-0.518,0-0.949,0.395-0.996,0.91L18,19.268V12h-2 V9c0-0.369-0.203-0.707-0.528-0.882c-0.324-0.174-0.72-0.154-1.026,0.05L8.697,12H8V9c0-0.369-0.203-0.707-0.528-0.882 c-0.324-0.174-0.721-0.154-1.026,0.05l-6,4C0.167,12.354,0,12.666,0,13v12c0,0.553,0.447,1,1,1h24c0.008,0,0.016,0,0.02,0 c0.553,0,0.949-0.352,0.949-0.904C25.969,25.01,24.469,0.993,24.469,0.993z M5,14v3H3v-3H5z M10,14v3H8v-3H10z M15,14v3h-2v-3H15z M5,19v3H3v-3H5z M10,19v3H8v-3H10z M15,19v3h-2v-3H15z"/>
</svg>