<svg xmlns="http://www.w3.org/2000/svg" width="26" height="26" viewBox="0 0 26 26" style="fill: ;">
    <path style="text-indent:0;text-align:start;line-height:normal;text-transform:none;block-progression:tb;-inkscape-font-specification:Bitstream Vera Sans" d="M 10.875 0 A 1.0001 1.0001 0 0 0 10.28125 0.28125 L 5.5625 5 L 3 5 C 2.449 5 2 5.449 2 6 L 2 8 C 2 8.551 2.449 9 3 9 L 3.25 9 L 5.53125 22.71875 A 0.99809983 0.99809983 0 0 0 5.53125 22.78125 C 5.6942499 23.569388 5.9998236 24.322056 6.5625 24.9375 C 7.1251764 25.552944 7.9829938 26 8.9375 26 L 17.0625 26 C 18.010827 26 18.866762 25.583738 19.4375 24.96875 C 20.008238 24.353762 20.319745 23.563655 20.46875 22.75 A 0.99809983 0.99809983 0 0 0 20.46875 22.71875 L 22.78125 9 L 23 9 C 23.551 9 24 8.551 24 8 L 24 6 C 24 5.449 23.551 5 23 5 L 21.4375 5 L 18.625 1.5 A 0.81258125 0.81258125 0 0 0 17.90625 1.1875 A 0.81258125 0.81258125 0 0 0 17.5625 1.3125 L 14.6875 3.25 L 11.71875 0.28125 A 1.0001 1.0001 0 0 0 10.875 0 z M 11 2.4375 L 13.5625 5 L 8.4375 5 L 11 2.4375 z M 17.84375 3.09375 L 19.375 5 L 16.4375 5 L 15.84375 4.40625 L 17.84375 3.09375 z M 5.25 9 L 5.9375 9 L 7.125 10.1875 L 5.6875 11.59375 L 5.25 9 z M 7.34375 9 L 8.28125 9 L 7.8125 9.46875 L 7.34375 9 z M 9.65625 9 L 11.34375 9 L 12.25 9.90625 L 10.25 11.90625 L 8.5 10.15625 L 9.65625 9 z M 12.78125 9 L 13.125 9 L 12.96875 9.1875 L 12.78125 9 z M 14.5625 9 L 16.25 9 L 17.40625 10.15625 L 15.65625 11.90625 L 13.65625 9.875 L 14.5625 9 z M 17.625 9 L 18.5625 9 L 18.09375 9.46875 L 17.625 9 z M 19.96875 9 L 20.78125 9 L 20.34375 11.6875 L 18.8125 10.15625 L 19.96875 9 z M 12.9375 10.59375 L 14.96875 12.59375 L 12.9375 14.59375 L 10.9375 12.59375 L 12.9375 10.59375 z M 7.8125 10.875 L 9.53125 12.59375 L 7.53125 14.59375 L 5.90625 12.96875 L 5.875 12.8125 L 7.8125 10.875 z M 18.09375 10.875 L 20.09375 12.875 L 18.375 14.625 L 16.375 12.59375 L 18.09375 10.875 z M 10.25 13.3125 L 12.25 15.3125 L 10.25 17.3125 L 8.25 15.3125 L 10.25 13.3125 z M 15.65625 13.3125 L 17.6875 15.3125 L 15.6875 17.3125 L 13.65625 15.3125 L 15.65625 13.3125 z M 19.84375 14.5625 L 19.625 15.875 L 19.0625 15.3125 L 19.84375 14.5625 z M 6.1875 14.65625 L 6.84375 15.3125 L 6.375 15.78125 L 6.1875 14.65625 z M 7.53125 16 L 9.53125 18 L 7.53125 20.03125 L 6.96875 19.46875 L 6.5625 16.96875 L 7.53125 16 z M 12.9375 16 L 14.96875 18.03125 L 12.96875 20.03125 L 10.9375 18 L 12.9375 16 z M 18.375 16 L 19.4375 17.0625 L 19.03125 19.34375 L 18.375 20 L 16.375 18 L 18.375 16 z M 10.25 18.71875 L 12.25 20.71875 L 10.25 22.75 L 8.25 20.75 L 10.25 18.71875 z M 15.65625 18.71875 L 17.65625 20.71875 L 15.65625 22.71875 L 13.65625 20.71875 L 15.65625 18.71875 z M 7.5625 21.4375 L 9.5625 23.4375 L 9 24 L 8.9375 24 C 8.5460062 24 8.3155736 23.870556 8.0625 23.59375 C 7.8146708 23.32268 7.5751308 22.896423 7.46875 22.40625 L 7.46875 22.375 L 7.34375 21.625 L 7.5625 21.4375 z M 12.96875 21.4375 L 14.96875 23.4375 L 14.40625 24 L 11.5 24 L 10.9375 23.4375 L 12.96875 21.4375 z M 18.375 21.4375 L 18.65625 21.71875 L 18.53125 22.375 C 18.52935 22.38562 18.53335 22.39569 18.53125 22.40625 C 18.43631 22.895189 18.214945 23.328467 17.96875 23.59375 C 17.717238 23.864762 17.460173 24 17.0625 24 L 16.9375 24 L 16.375 23.4375 L 18.375 21.4375 z"/>
</svg>