<svg xmlns="http://www.w3.org/2000/svg" width="26" height="26" viewBox="0 0 26 26" style="fill: ;">
    <path style="text-indent:0;text-align:start;line-height:normal;text-transform:none;block-progression:tb;-inkscape-font-specification:Bitstream Vera Sans" d="M 13 0 C 9.686 0 7 2.687 7 6 C 7 9.314 12.21875 17.543 12.21875 22 L 13.78125 22 C 13.78125 17.558 19 9.044 19 6 C 19 2.687 16.314 0 13 0 z M 13 3 C 14.657 3 16 4.344 16 6 C 16 7.657 14.657 9 13 9 C 11.343 9 10 7.656 10 6 C 10 4.344 11.343 3 13 3 z M 6.84375 17.28125 A 1.0001 1.0001 0 0 0 6.78125 17.3125 C 4.9356779 17.637122 3.3721737 18.081315 2.1875 18.6875 C 1.5951632 18.990592 1.0837676 19.349771 0.6875 19.78125 C 0.29123243 20.212729 0 20.774268 0 21.40625 C 0 22.353703 0.62752534 23.094873 1.375 23.625 C 2.1224747 24.155127 3.0658991 24.560388 4.21875 24.90625 C 6.5244518 25.597974 9.6054176 26 13 26 C 16.394582 26 19.475548 25.597974 21.78125 24.90625 C 22.934101 24.560388 23.877525 24.155127 24.625 23.625 C 25.372475 23.094873 26 22.353703 26 21.40625 C 26 20.772144 25.710887 20.182343 25.3125 19.75 C 24.914113 19.317657 24.4081 18.991013 23.8125 18.6875 C 22.6213 18.080475 21.043102 17.636025 19.1875 17.3125 A 1.0001 1.0001 0 1 0 18.84375 19.28125 C 20.567148 19.581725 21.9992 20.006525 22.90625 20.46875 C 23.359775 20.699862 23.678981 20.946187 23.84375 21.125 C 24.008519 21.303813 24 21.375856 24 21.40625 C 24 21.452797 23.935807 21.668752 23.46875 22 C 23.001693 22.331248 22.206274 22.694362 21.1875 23 C 19.149952 23.611276 16.232418 24 13 24 C 9.7675824 24 6.8500482 23.611276 4.8125 23 C 3.7937259 22.694362 2.9983066 22.331248 2.53125 22 C 2.0641934 21.668752 2 21.452797 2 21.40625 C 2 21.376232 1.9929863 21.302771 2.15625 21.125 C 2.3195137 20.947229 2.6434618 20.699158 3.09375 20.46875 C 3.9943263 20.007935 5.4115721 19.582628 7.125 19.28125 A 1.0098393 1.0098393 0 1 0 6.84375 17.28125 z" color="#000" overflow="visible" enable-background="accumulate" font-family="Bitstream Vera Sans"/>
</svg>