<svg xmlns="http://www.w3.org/2000/svg" width="26" height="26" viewBox="0 0 26 26" style="fill: ;">
    <path d="M 23.59375 0 C 23.33775 0 23.0705 0.08575 22.875 0.28125 L 22.46875 0.71875 L 22.28125 0.5625 C 22.07625 0.3575 21.7675 0.3575 21.5625 0.5625 C 21.3575 0.7685 21.3575 1.07525 21.5625 1.28125 L 21.71875 1.46875 L 21.46875 1.71875 L 21.28125 1.5625 C 21.07625 1.3575 20.7675 1.3575 20.5625 1.5625 C 20.3575 1.7685 20.3575 2.07525 20.5625 2.28125 L 20.71875 2.46875 L 20.53125 2.65625 C 20.27225 2.91525 20.19625 3.26275 20.28125 3.59375 L 15.90625 7.96875 C 15.002733 7.1794323 13.637378 6.25 12.15625 6.25 C 11.49925 6.25 10.82425 6.44925 10.15625 6.90625 C 8.67425 7.91925 8.95825 9.45375 8.03125 10.34375 C 6.99025 11.34475 4.14825 10.53825 1.53125 13.15625 C -1.08575 15.77225 0.07425 19.39075 3.40625 22.59375 C 5.40425 24.67175 7.55425 25.90625 9.53125 25.90625 C 10.72225 25.90625 11.85875 25.45375 12.84375 24.46875 C 15.46075 21.85175 14.65525 19.01075 15.65625 17.96875 C 16.54625 17.04375 18.111 17.358 19.125 15.875 C 20.612414 13.702381 19.177304 11.403573 18.03125 10.09375 L 22.40625 5.71875 C 22.73625 5.80275 23.08475 5.72775 23.34375 5.46875 L 23.53125 5.28125 L 23.71875 5.4375 C 23.82175 5.5405 23.9275 5.59375 24.0625 5.59375 C 24.1975 5.59375 24.3355 5.5395 24.4375 5.4375 C 24.6425 5.2315 24.6425 4.92475 24.4375 4.71875 L 24.28125 4.53125 L 24.53125 4.28125 L 24.71875 4.4375 C 24.82175 4.5405 24.9275 4.59375 25.0625 4.59375 C 25.1975 4.59375 25.3355 4.5395 25.4375 4.4375 C 25.6425 4.2315 25.6425 3.92475 25.4375 3.71875 L 25.28125 3.53125 L 25.71875 3.125 C 26.10975 2.734 26.10975 2.10775 25.71875 1.71875 L 24.28125 0.28125 C 24.08675 0.08575 23.84975 0 23.59375 0 z M 23.53125 1.1875 C 23.608 1.1875 23.6915 1.1915 23.75 1.25 C 23.867 1.367 23.867 1.5705 23.75 1.6875 L 21.75 3.6875 C 21.692 3.7465 21.60925 3.78125 21.53125 3.78125 C 21.45425 3.78125 21.3715 3.7465 21.3125 3.6875 C 21.1955 3.5705 21.1955 3.367 21.3125 3.25 L 23.3125 1.25 C 23.371 1.1915 23.4545 1.1875 23.53125 1.1875 z M 24.53125 2.1875 C 24.608 2.1875 24.6915 2.1915 24.75 2.25 C 24.867 2.367 24.868 2.5705 24.75 2.6875 L 22.75 4.6875 C 22.691 4.7465 22.60825 4.78125 22.53125 4.78125 C 22.45425 4.78125 22.3715 4.7465 22.3125 4.6875 C 22.1955 4.5705 22.1955 4.367 22.3125 4.25 L 24.3125 2.25 C 24.371 2.1915 24.4545 2.1875 24.53125 2.1875 z M 12.15625 7.65625 C 13.115408 7.65625 14.130319 8.3084899 14.90625 8.96875 L 11.5625 12.3125 C 11.488093 12.305441 11.420005 12.28125 11.34375 12.28125 C 10.038149 12.28125 8.96875 13.350649 8.96875 14.65625 C 8.96875 15.961851 10.038149 17.03125 11.34375 17.03125 C 12.649351 17.03125 13.71875 15.961851 13.71875 14.65625 C 13.71875 14.579995 13.694559 14.511907 13.6875 14.4375 L 17.0625 11.0625 C 17.930103 12.068962 18.909688 13.686838 17.96875 15.0625 C 17.66275 15.5095 17.27775 15.67325 16.59375 15.90625 C 15.99175 16.11125 15.239 16.361 14.625 17 C 13.951 17.701 13.801 18.62275 13.625 19.59375 C 13.403 20.81275 13.15375 22.191 11.84375 23.5 C 11.15575 24.188 10.39825 24.53125 9.53125 24.53125 C 8.01425 24.53125 6.19425 23.485 4.40625 21.625 C 4.39325 21.611 4.389 21.60675 4.375 21.59375 C 2.53 19.82175 1.48375 18.01 1.46875 16.5 C 1.45975 15.619 1.803 14.85525 2.5 14.15625 C 3.81 12.84525 5.18825 12.596 6.40625 12.375 C 7.37725 12.199 8.3 12.01775 9 11.34375 C 9.634 10.73575 9.88475 10.00125 10.09375 9.40625 C 10.33375 8.72425 10.4835 8.3725 10.9375 8.0625 C 11.3265 7.7965 11.72825 7.65625 12.15625 7.65625 z M 5.5625 16.28125 C 5.485 16.28125 5.40275 16.3155 5.34375 16.375 L 4.71875 17 C 4.59975 17.118 4.59975 17.3185 4.71875 17.4375 L 8.5625 21.28125 C 8.6795 21.39825 8.882 21.39825 9 21.28125 L 9.625 20.65625 C 9.743 20.53825 9.743 20.33775 9.625 20.21875 L 5.78125 16.375 C 5.72225 16.3155 5.64 16.28125 5.5625 16.28125 z"/>
</svg>