<svg xmlns="http://www.w3.org/2000/svg" width="26" height="26" viewBox="0 0 26 26" style="fill: ;">
    <path d="M 14.8125 7.53125 A 0.95009499 0.95009499 0 0 0 14.0625 8.5 L 14.0625 8.5625 L 5 8.0625 C 4.476 8.0625 4.0625 8.476 4.0625 9 C 4.0625 9.524 4.476 9.9375 5 9.9375 L 14.0625 9.4375 L 14.0625 11.53125 C 13.322791 11.864904 12.733405 12.372023 12.28125 13 L 2.5 13 C 2 13 1.8815 13.8435 2.4375 13.9375 C 2.5899622 13.963162 7.998403 15.283368 11.1875 16.0625 C 11.129871 16.508836 11.09375 16.961435 11.09375 17.4375 C 11.09375 20.9625 14.17275 20.96875 17.96875 20.96875 C 21.76475 20.96875 24.8125 20.9635 24.8125 17.4375 C 24.8125 13.9155 20.20325 11.0625 16.40625 11.0625 C 16.244333 11.0625 16.091222 11.083524 15.9375 11.09375 L 15.9375 9.4375 L 25 9.9375 C 25.524 9.9375 25.9375 9.524 25.9375 9 C 25.9375 8.476 25.524 8.0625 25 8.0625 L 15.9375 8.5625 L 15.9375 8.5 A 0.95009499 0.95009499 0 0 0 14.90625 7.53125 A 0.95009499 0.95009499 0 0 0 14.8125 7.53125 z M 2.5 11.1875 C 1.223 11.1875 0.1875 12.222 0.1875 13.5 C 0.1875 14.778 1.222 15.8125 2.5 15.8125 C 3.245 15.8125 3.8895 15.45325 4.3125 14.90625 L 3.09375 14.5625 C 2.91575 14.6615 2.717 14.75 2.5 14.75 C 1.814 14.75 1.25 14.185 1.25 13.5 C 1.25 12.815 1.815 12.25 2.5 12.25 C 2.832 12.25 3.12175 12.38075 3.34375 12.59375 L 4.625 12.59375 C 4.275 11.76175 3.46 11.1875 2.5 11.1875 z M 18.125 13.0625 C 19.905 13.0625 22.96875 14.7245 22.96875 16.8125 C 22.96875 17.5945 22.15925 17.96875 19.40625 17.96875 C 17.60025 17.96875 17.09375 17.1285 17.09375 16.0625 C 17.09375 14.4495 17.292 13.0625 18.125 13.0625 z M 24.8125 21.03125 A 0.95009499 0.95009499 0 0 0 24.125 21.625 C 24.13584 21.61408 24.15974 21.60783 24.0625 21.65625 C 23.784663 21.794581 22.911995 22.0625 21 22.0625 L 10 22.0625 A 0.95009499 0.95009499 0 1 0 10 23.9375 L 21 23.9375 C 23.071005 23.9375 24.179837 23.705419 24.90625 23.34375 C 25.269456 23.162915 25.547142 22.939555 25.71875 22.6875 C 25.80455 22.561472 25.870761 22.430208 25.90625 22.3125 C 25.94174 22.194792 25.9375 22.03125 25.9375 22.03125 A 0.95009499 0.95009499 0 0 0 24.90625 21.03125 A 0.95009499 0.95009499 0 0 0 24.8125 21.03125 z M 902 1469 L 902 1471 L 928 1471 L 928 1469 L 902 1469 z M 906 1474 L 906 1476 L 924 1476 L 924 1474 L 906 1474 z M 902 1479 L 902 1481 L 928 1481 L 928 1479 L 902 1479 z M 906 1484 L 906 1486 L 924 1486 L 924 1484 L 906 1484 z M 902 1489 L 902 1491 L 928 1491 L 928 1489 L 902 1489 z"/>
</svg>