<svg xmlns="http://www.w3.org/2000/svg" width="26" height="26" viewBox="0 0 26 26" style="fill: ;">
    <path d="M 8 1 C 6.8954305 1 6 1.8954305 6 3 C 6 3.1829443 6.0164918 3.3628978 6.0625 3.53125 L 1.96875 11 C 0.87876102 11.016893 0 11.905989 0 13 C 0 14.094011 0.87876102 14.983107 1.96875 15 L 6.0625 22.46875 C 6.0164918 22.637102 6 22.817056 6 23 C 6 24.104569 6.8954305 25 8 25 C 8.7396043 25 9.3727074 24.596896 9.71875 24 L 16.28125 24 C 16.627293 24.596896 17.260396 25 18 25 C 19.104569 25 20 24.104569 20 23 C 20 22.817056 19.983508 22.637102 19.9375 22.46875 L 24.03125 15 C 25.121239 14.983107 26 14.094011 26 13 C 26 11.905989 25.121239 11.016893 24.03125 11 L 19.9375 3.53125 C 19.983508 3.3628978 20 3.1829443 20 3 C 20 1.8954305 19.104569 1 18 1 C 17.260396 1 16.627293 1.4031044 16.28125 2 L 9.71875 2 C 9.3727074 1.4031044 8.7396043 1 8 1 z M 9.71875 4 L 16.28125 4 C 16.627293 4.5968956 17.260396 5 18 5 C 18.148426 5 18.298291 4.9994217 18.4375 4.96875 L 22.3125 11.96875 C 22.128564 12.271258 22 12.620085 22 13 C 22 13.379915 22.128564 13.728742 22.3125 14.03125 L 18.4375 21.03125 C 18.298291 21.000578 18.148426 21 18 21 C 17.260396 21 16.627293 21.403104 16.28125 22 L 9.71875 22 C 9.3727074 21.403104 8.7396043 21 8 21 C 7.8515735 21 7.7017086 21.000578 7.5625 21.03125 L 3.6875 14.03125 C 3.8714357 13.728742 4 13.379915 4 13 C 4 12.620085 3.8714357 12.271258 3.6875 11.96875 L 7.5625 4.96875 C 7.7017086 4.9994217 7.8515735 5 8 5 C 8.7396043 5 9.3727074 4.5968956 9.71875 4 z"/>
</svg>