<svg xmlns="http://www.w3.org/2000/svg" viewBox="0 0 26 26" enable-background="new 0 0 26 26" style="fill: ;">
    <path d="M 0 4 L 0 5 L 2 5 L 8 5 L 8 6 L 2 6 L 2 7 L 0 7 L 0 8 L 2 8 L 7 8 L 7 9 L 2 9 L 2 10 L 0 10 L 0 11 L 2 11 L 6 11 L 6 12 L 2 12 L 2 13 L 0 13 L 0 14 L 2 14 L 5 14 L 5 15 L 2 15 L 2 19 C 2 19.6 2.4 20 3 20 L 4 20 C 4.2 18.3 5.7 16.90625 7.5 16.90625 C 9.3 16.90625 10.8 18.2 11 20 L 14 20 C 14.6 20 15 19.6 15 19 L 15 5 C 15 4.4 14.6 4 14 4 L 8 4 L 2 4 L 0 4 z M 17 8 C 16.4 8 16 8.4 16 9 L 16 19 C 16 19.5 16.4 20 17 20 C 17.2 18.3 18.7 16.90625 20.5 16.90625 C 22.3 16.90625 23.8 18.2 24 20 L 25 20 C 25.6 20 26 19.6 26 19 L 26 14 C 26 13.1 25.1875 12 25.1875 12 L 23 9 C 22.5 8.4 22.2 8 21.5 8 L 17 8 z M 19 10 L 21.40625 10 C 21.60625 10 21.8125 10.1875 21.8125 10.1875 L 23.90625 13.09375 C 24.10625 13.39375 24.3125 13.70625 24.3125 13.90625 L 19 13.90625 L 19 10 z M 7.5 18.1875 C 6.2297451 18.1875 5.1875 19.229745 5.1875 20.5 C 5.1875 21.770255 6.2297451 22.8125 7.5 22.8125 C 8.7702549 22.8125 9.8125 21.770255 9.8125 20.5 C 9.8125 19.229745 8.7702549 18.1875 7.5 18.1875 z M 20.5 18.1875 C 19.229745 18.1875 18.1875 19.229745 18.1875 20.5 C 18.1875 21.770255 19.229745 22.8125 20.5 22.8125 C 21.770255 22.8125 22.8125 21.770255 22.8125 20.5 C 22.8125 19.229745 21.770255 18.1875 20.5 18.1875 z"/>
</svg>