<svg xmlns="http://www.w3.org/2000/svg" width="26" height="26" viewBox="0 0 26 26" style="fill: ;">
    <path d="M 8 0 C 6.343 0 5 1.344 5 3 L 5 23 C 5 24.656 6.343 26 8 26 L 19 26 C 20.657 26 22 24.656 22 23 L 22 3 C 22 1.344 20.657 0 19 0 L 8 0 z M 12.5 1 L 14.5 1 C 14.776 1 15 1.224 15 1.5 C 15 1.776 14.776 2 14.5 2 L 12.5 2 C 12.224 2 12 1.776 12 1.5 C 12 1.224 12.224 1 12.5 1 z M 7.5 3 L 19.5 3 C 19.776 3 20 3.224 20 3.5 L 20 20.5 C 20 20.776 19.776 21 19.5 21 L 7.5 21 C 7.224 21 7 20.776 7 20.5 L 7 3.5 C 7 3.224 7.224 3 7.5 3 z M 14.9375 8 C 14.5255 8.027 14.06325 8.282 13.78125 8.625 C 13.52525 8.935 13.292 9.39375 13.375 9.84375 C 13.826 9.85575 14.2925 9.598 14.5625 9.25 C 14.8145 8.926 15.0065 8.468 14.9375 8 z M 12.15625 9.78125 C 11.56525 9.78125 10.92925 10.16725 10.53125 10.78125 C 9.96925 11.64325 10.06075 13.24 10.96875 14.625 C 11.29475 15.119 11.7445 15.6825 12.3125 15.6875 C 12.8165 15.6935 12.94 15.379 13.625 15.375 C 14.31 15.371 14.4325 15.6925 14.9375 15.6875 C 15.5045 15.6825 15.9875 15.08875 16.3125 14.59375 C 16.5445 14.23875 16.6315 14.05725 16.8125 13.65625 C 15.4975 13.15925 15.2615 11.2745 16.5625 10.5625 C 16.1655 10.0675 15.61875 9.78125 15.09375 9.78125 C 14.39875 9.78125 14.108 10.125 13.625 10.125 C 13.127 10.125 12.75825 9.78125 12.15625 9.78125 z M 13.5 22.21875 C 14.206 22.21875 14.78125 22.794 14.78125 23.5 C 14.78125 24.206 14.206 24.78125 13.5 24.78125 C 12.794 24.78125 12.21875 24.206 12.21875 23.5 C 12.21875 22.794 12.794 22.21875 13.5 22.21875 z"/>
</svg>