<svg xmlns="http://www.w3.org/2000/svg" width="26" height="26" viewBox="0 0 26 26" style="fill: ;">
    <path d="M 13 0.1875 C 5.924 0.1875 0.1875 5.924 0.1875 13 C 0.1875 20.076 5.924 25.8125 13 25.8125 C 20.076 25.8125 25.8125 20.076 25.8125 13 C 25.8125 5.924 20.076 0.1875 13 0.1875 z M 13 2.1875 C 18.962 2.1875 23.8125 7.038 23.8125 13 C 23.8125 18.962 18.962 23.8125 13 23.8125 C 7.038 23.8125 2.1875 18.962 2.1875 13 C 2.1875 7.038 7.038 2.1875 13 2.1875 z M 9 9 C 7.896 9 6 10.375 6 11 C 6 11.625 7.896 11 9 11 C 10.104 11 11 11.703 11 11 C 11 10.297 10.104 9 9 9 z M 17 9 C 15.896 9 15 10.297 15 11 C 15 11.703 15.896 11 17 11 C 18.104 11 20 11.625 20 11 C 20 10.375 18.104 9 17 9 z M 6.15625 15 C 6.15625 18.227 8.461 21.84375 13 21.84375 C 17.539 21.84375 19.84375 18.227 19.84375 15 C 19.84375 15 17.641 16.15625 13 16.15625 C 8.359 16.15625 6.15625 15 6.15625 15 z"/>
</svg>