<svg xmlns="http://www.w3.org/2000/svg" width="26" height="26" viewBox="0 0 26 26" style="fill: ;">
    <path d="M 8 5.1875 C 3.6849991 5.1875 0.1875 8.6849991 0.1875 13 C 0.1875 17.315001 3.6849991 20.8125 8 20.8125 C 9.9036222 20.8125 11.644592 20.131405 13 19 C 14.355408 20.131405 16.096378 20.8125 18 20.8125 C 22.315 20.8125 25.8125 17.315 25.8125 13 C 25.8125 8.685 22.314 5.1875 18 5.1875 C 16.096819 5.1875 14.355488 5.8685953 13 7 C 11.644592 5.8685954 9.9036222 5.1875 8 5.1875 z M 18 7.1875 C 21.205 7.1875 23.8125 9.794 23.8125 13 C 23.8125 16.206 21.205 18.8125 18 18.8125 C 16.622457 18.8125 15.372079 18.303912 14.375 17.5 C 15.272621 16.227928 15.8125 14.675258 15.8125 13 C 15.8125 11.324742 15.272621 9.7720725 14.375 8.5 C 15.372079 7.6962987 16.622457 7.1875 18 7.1875 z"/>
</svg>