<svg xmlns="http://www.w3.org/2000/svg" width="26" height="26" viewBox="0 0 26 26" style="fill: ;">
    <path d="M 3 4 C 1.344 4 0 5.344 0 7 L 0 19 C 0 20.656 1.344 22 3 22 L 23 22 C 24.656 22 26 20.656 26 19 L 26 7 C 26 5.344 24.656 4 23 4 L 3 4 z M 3 6 L 23 6 C 23.551 6 24 6.449 24 7 L 24 7.5 L 13 13.4375 L 2 7.5 L 2 7 C 2 6.449 2.449 6 3 6 z M 2 7.78125 L 8.53125 12.875 L 2.125 19.4375 L 9.9375 13.875 L 13 15.84375 L 16.0625 13.875 L 23.875 19.4375 L 17.46875 12.875 L 24 7.78125 L 24 19 C 24 19.162317 23.944058 19.301757 23.875 19.4375 C 23.709633 19.762549 23.388683 20 23 20 L 3 20 C 2.6113169 20 2.2903669 19.762549 2.125 19.4375 C 2.0559416 19.301757 2 19.162317 2 19 L 2 7.78125 z"/>
</svg>