<svg xmlns="http://www.w3.org/2000/svg" width="26" height="26" viewBox="0 0 26 26" style="fill: ;">
    <path style="text-indent:0;text-align:start;line-height:normal;text-transform:none;block-progression:tb;-inkscape-font-specification:Bitstream Vera Sans" d="M 3.5 2 A 1.0001 1.0001 0 0 0 3 3.71875 L 23 23.71875 A 1.0001 1.0001 0 1 0 24.40625 22.3125 L 17 14.90625 L 17 3.3125 C 17 2.0465 15.89525 1.72975 15.03125 2.59375 L 9.8125 7.71875 L 4.40625 2.3125 A 1.0001 1.0001 0 0 0 3.59375 2 A 1.0001 1.0001 0 0 0 3.5 2 z M 5 9.0625 C 4.449 9.0625 4 9.5115 4 10.0625 L 4 16.0625 C 4 16.6135 4.449 17.0625 5 17.0625 L 8.4375 17.0625 L 15 23.46875 C 16 24.46875 17 23.95675 17 22.59375 L 17 20.03125 L 6.03125 9.0625 L 5 9.0625 z" color="#000" overflow="visible" enable-background="accumulate" font-family="Bitstream Vera Sans"/>
</svg>