<svg xmlns="http://www.w3.org/2000/svg" viewBox="0 0 26 26" enable-background="new 0 0 26 26" style="fill: ;">
    <path style="text-indent:0;text-align:start;line-height:normal;text-transform:none;block-progression:tb;-inkscape-font-specification:Bitstream Vera Sans" d="M 12.875 2 A 1.0001 1.0001 0 0 0 12.28125 2.3125 L 5.6875 9 L 1 9 C 0.4 9 0 9.4 0 10 L 0 12 C 0 12.6 0.4 13 1 13 L 1.09375 13 L 3.8125 22.3125 C 3.9125 22.7125 4.3125 23 4.8125 23 L 21.3125 23 C 21.7125 23 22.1125 22.7125 22.3125 22.3125 L 25 13 C 25.6 13 26 12.6 26 12 L 26 10 C 26 9.4 25.6 9 25 9 L 20.40625 9 L 13.71875 2.28125 A 1.0001 1.0001 0 0 0 12.875 2 z M 13 4.4375 L 17.59375 9 L 8.5 9 L 13 4.4375 z M 17.5625 11.78125 C 17.7625 11.78125 17.94375 11.85 18.09375 12 L 18.8125 12.6875 C 19.1125 12.9875 19.1125 13.5125 18.8125 13.8125 L 12.8125 19.8125 C 12.5125 20.1125 11.9875 20.1125 11.6875 19.8125 L 8.3125 16.40625 C 8.0125 16.10625 8.0125 15.6125 8.3125 15.3125 L 9 14.59375 C 9.3 14.29375 9.79375 14.29375 10.09375 14.59375 L 12.3125 16.8125 L 17 12 C 17.15 11.85 17.3625 11.78125 17.5625 11.78125 z" color="#000" overflow="visible" enable-background="accumulate" font-family="Bitstream Vera Sans"/>
</svg>