<svg xmlns="http://www.w3.org/2000/svg" width="26" height="26" viewBox="0 0 26 26" style="fill: ;">
    <path d="M 6 0 C 4.343 0 3 1.344 3 3 L 3 18 C 3 19.656 4.343 21 6 21 L 6 21.40625 C 6 22.231486 5.7974791 22.916566 5.46875 23.34375 C 5.1400209 23.770934 4.7251508 24 4 24 C 3.2748492 24 2.8599791 23.770934 2.53125 23.34375 C 2.2025209 22.916566 2 22.231486 2 21.40625 L 2 16.59375 A 1.0001 1.0001 0 0 0 0.78125 15.59375 A 1.0001 1.0001 0 0 0 0 16.59375 L 0 21.40625 C 0 22.570014 0.29497906 23.686934 0.96875 24.5625 C 1.6425209 25.438066 2.7351508 26 4 26 C 5.2648492 26 6.3574791 25.438066 7.03125 24.5625 C 7.7050209 23.686934 8 22.570014 8 21.40625 L 8 21 C 9.657 21 11 19.656 11 18 L 11 3 C 11 1.344 9.657 0 8 0 L 6 0 z M 15 0 C 13.343 0 12 1.344 12 3 L 12 18 C 12 19.656 13.343 21 15 21 L 22 21 C 23.657 21 25.90625 19.687 25.90625 10.5 C 25.90625 1.313 23.657 0 22 0 L 15 0 z M 15.5 3 L 22.5 3 C 22.776 3 23 3.224 23 3.5 L 23 6.5 C 23 6.776 22.776 7 22.5 7 L 15.5 7 C 15.224 7 15 6.776 15 6.5 L 15 3.5 C 15 3.224 15.224 3 15.5 3 z M 15.5 9 L 16.5 9 C 16.776 9 17 9.224 17 9.5 L 17 10.5 C 17 10.776 16.776 11 16.5 11 L 15.5 11 C 15.224 11 15 10.776 15 10.5 L 15 9.5 C 15 9.224 15.224 9 15.5 9 z M 18.5 9 L 19.5 9 C 19.776 9 20 9.224 20 9.5 L 20 10.5 C 20 10.776 19.776 11 19.5 11 L 18.5 11 C 18.224 11 18 10.776 18 10.5 L 18 9.5 C 18 9.224 18.224 9 18.5 9 z M 21.5 9 L 22.5 9 C 22.776 9 23 9.224 23 9.5 L 23 10.5 C 23 10.776 22.776 11 22.5 11 L 21.5 11 C 21.224 11 21 10.776 21 10.5 L 21 9.5 C 21 9.224 21.224 9 21.5 9 z M 15.5 12 L 16.5 12 C 16.776 12 17 12.224 17 12.5 L 17 13.5 C 17 13.776 16.776 14 16.5 14 L 15.5 14 C 15.224 14 15 13.776 15 13.5 L 15 12.5 C 15 12.224 15.224 12 15.5 12 z M 18.5 12 L 19.5 12 C 19.776 12 20 12.224 20 12.5 L 20 13.5 C 20 13.776 19.776 14 19.5 14 L 18.5 14 C 18.224 14 18 13.776 18 13.5 L 18 12.5 C 18 12.224 18.224 12 18.5 12 z M 21.5 12 L 22.5 12 C 22.776 12 23 12.224 23 12.5 L 23 13.5 C 23 13.776 22.776 14 22.5 14 L 21.5 14 C 21.224 14 21 13.776 21 13.5 L 21 12.5 C 21 12.224 21.224 12 21.5 12 z M 15.5 15 L 16.5 15 C 16.776 15 17 15.224 17 15.5 L 17 16.5 C 17 16.776 16.776 17 16.5 17 L 15.5 17 C 15.224 17 15 16.776 15 16.5 L 15 15.5 C 15 15.224 15.224 15 15.5 15 z M 18.5 15 L 19.5 15 C 19.776 15 20 15.224 20 15.5 L 20 16.5 C 20 16.776 19.776 17 19.5 17 L 18.5 17 C 18.224 17 18 16.776 18 16.5 L 18 15.5 C 18 15.224 18.224 15 18.5 15 z M 21.5 15 L 22.5 15 C 22.776 15 23 15.224 23 15.5 L 23 16.5 C 23 16.776 22.776 17 22.5 17 L 21.5 17 C 21.224 17 21 16.776 21 16.5 L 21 15.5 C 21 15.224 21.224 15 21.5 15 z"/>
</svg>