<svg xmlns="http://www.w3.org/2000/svg" viewBox="0 0 26 26" enable-background="new 0 0 26 26" style="fill: ;">
    <path style="text-indent:0;text-align:start;line-height:normal;text-transform:none;block-progression:tb;-inkscape-font-specification:Bitstream Vera Sans" d="M 13 0 C 9.1545455 0 6 3.1545455 6 7 L 6 8 L 5 8 C 3.9 8 3 8.9 3 10 L 3 22 C 3 23.1 3.9 24 5 24 L 21 24 C 22.1 24 23 23.1 23 22 L 23 10 C 23 8.9 22.1 8 21 8 L 20 8 L 20 7 C 20 3.1545455 16.845455 0 13 0 z M 13 2 C 15.754545 2 18 4.2454545 18 7 L 18 8 L 8 8 L 8 7 C 8 4.2454545 10.245455 2 13 2 z M 13 11 C 15.8 11 18 13.2 18 16 C 18 18.8 15.8 21 13 21 C 10.2 21 8 18.8 8 16 C 8 13.2 10.2 11 13 11 z M 13 13 C 11.3 13 10 14.3 10 16 C 10 17.7 11.3 19 13 19 C 14.7 19 16 17.7 16 16 C 16 15.7 15.90625 15.39375 15.90625 15.09375 C 15.60625 15.59375 15.1 16 14.5 16 C 13.7 16 13 15.3 13 14.5 C 13 13.9 13.40625 13.39375 13.90625 13.09375 C 13.60625 13.09375 13.3 13 13 13 z" color="#000" overflow="visible" enable-background="accumulate" font-family="Bitstream Vera Sans"/>
</svg>