<svg xmlns="http://www.w3.org/2000/svg" width="26" height="26" viewBox="0 0 26 26" style="fill: ;">
    <path d="M 0 0 L 0 9 L 9 9 L 9 0 L 0 0 z M 11 0 L 11 2 L 13 2 L 13 0 L 11 0 z M 13 2 L 13 4 L 11 4 L 11 6 L 11 8 L 13 8 L 13 6 L 15 6 L 15 4 L 15 2 L 13 2 z M 13 8 L 13 10 L 13 11 L 12 11 L 10 11 L 8 11 L 7 11 L 6 11 L 4 11 L 4 13 L 2 13 L 2 15 L 4 15 L 6 15 L 6 13 L 7 13 L 8 13 L 8 15 L 10 15 L 12 15 L 13 15 L 13 13 L 14 13 L 15 13 L 15 15 L 16 15 L 17 15 L 18 15 L 18 13 L 20 13 L 20 11 L 18 11 L 17 11 L 15 11 L 15 9 L 15 8 L 13 8 z M 20 13 L 20 15 L 22 15 L 24 15 L 26 15 L 26 13 L 24 13 L 24 11 L 22 11 L 22 13 L 20 13 z M 2 13 L 2 11 L 0 11 L 0 13 L 2 13 z M 17 0 L 17 9 L 26 9 L 26 0 L 17 0 z M 2 2 L 7 2 L 7 7 L 2 7 L 2 2 z M 19 2 L 24 2 L 24 7 L 19 7 L 19 2 z M 3 3 L 3 6 L 6 6 L 6 3 L 3 3 z M 20 3 L 20 6 L 23 6 L 23 3 L 20 3 z M 11 16 L 11 18 L 13 18 L 13 16 L 11 16 z M 13 18 L 13 20 L 11 20 L 11 22 L 11 24 L 13 24 L 13 22 L 15 22 L 17 22 L 17 20 L 19 20 L 19 18 L 21 18 L 21 20 L 19 20 L 19 22 L 17 22 L 17 24 L 17 26 L 19 26 L 19 24 L 21 24 L 21 22 L 22 22 L 22 24 L 21 24 L 21 26 L 23 26 L 23 24 L 24 24 L 24 22 L 26 22 L 26 20 L 26 18 L 24 18 L 24 16 L 22 16 L 21 16 L 19 16 L 17 16 L 17 18 L 15 18 L 13 18 z M 24 24 L 24 26 L 26 26 L 26 24 L 24 24 z M 13 24 L 13 26 L 15 26 L 15 24 L 13 24 z M 0 17 L 0 26 L 9 26 L 9 17 L 0 17 z M 2 19 L 7 19 L 7 24 L 2 24 L 2 19 z M 3 20 L 3 23 L 6 23 L 6 20 L 3 20 z"/>
</svg>