<svg xmlns="http://www.w3.org/2000/svg" width="26" height="26" viewBox="0 0 26 26" style="fill: ;">
    <path d="M 23.5 0.0625 C 22.705815 0.0625 22.0625 0.70581455 22.0625 1.5 L 4.65625 6.3125 C 4.456302 6.2365865 4.2265698 6.1875 4 6.1875 C 2.9987078 6.1875 2.1875 6.9987078 2.1875 8 C 2.1875 8.0414328 2.1847644 8.0842605 2.1875 8.125 C 0.93261358 8.483907 0 9.63035 0 11 L 0 22 C 0 23.656 1.344 25 3 25 L 23 25 C 24.656 25 26 23.656 26 22 L 26 11 C 26 9.344 24.656 8 23 8 L 5.8125 8 C 5.8125 7.7225193 5.7364332 7.4538716 5.625 7.21875 L 22.28125 2.21875 C 22.530281 2.6470314 22.968889 2.9375 23.5 2.9375 C 24.294185 2.9375 24.9375 2.2941855 24.9375 1.5 C 24.9375 0.70581455 24.294185 0.0625 23.5 0.0625 z M 17.5 10.8125 C 20.636 10.8125 23.1875 13.367 23.1875 16.5 C 23.1875 19.633 20.636 22.1875 17.5 22.1875 C 14.366 22.1875 11.8125 19.633 11.8125 16.5 C 11.8125 13.367 14.366 10.8125 17.5 10.8125 z M 4.5 10.90625 C 5.377 10.90625 6.09375 11.623 6.09375 12.5 C 6.09375 13.377 5.377 14.09375 4.5 14.09375 C 3.622 14.09375 2.90625 13.377 2.90625 12.5 C 2.90625 11.623 3.622 10.90625 4.5 10.90625 z M 17.5 12.1875 C 16.563 12.1875 15.707 12.493 15 13 L 20 13 C 19.293 12.493 18.438 12.1875 17.5 12.1875 z M 14 14 C 13.781 14.307 13.60175 14.642 13.46875 15 L 21.53125 15 C 21.39725 14.642 21.218 14.307 21 14 L 14 14 z M 4.5 15.90625 C 5.377 15.90625 6.09375 16.623 6.09375 17.5 C 6.09375 18.377 5.377 19.09375 4.5 19.09375 C 3.622 19.09375 2.90625 18.377 2.90625 17.5 C 2.90625 16.623 3.622 15.90625 4.5 15.90625 z M 13.25 16 C 13.23 16.166 13.1875 16.328 13.1875 16.5 C 13.1875 16.672 13.23 16.834 13.25 17 L 21.75 17 C 21.77 16.834 21.8125 16.672 21.8125 16.5 C 21.8125 16.328 21.769 16.166 21.75 16 L 13.25 16 z M 13.46875 18 C 13.60275 18.358 13.781 18.693 14 19 L 21 19 C 21.219 18.693 21.39825 18.358 21.53125 18 L 13.46875 18 z M 15 20 C 15.707 20.507 16.563 20.8125 17.5 20.8125 C 18.438 20.8125 19.293 20.507 20 20 L 15 20 z"/>
</svg>