<svg xmlns="http://www.w3.org/2000/svg" viewBox="0 0 26 26" enable-background="new 0 0 26 26" style="fill: ;">
    <path style="text-indent:0;text-align:start;line-height:normal;text-transform:none;block-progression:tb;-inkscape-font-specification:Bitstream Vera Sans" d="M 4 0 L 4 1 L 4 6 L 4 19 C 4 19.554545 3.5545455 20 3 20 C 2.4454545 20 2 19.554545 2 19 L 2 7 L 3 7 L 3 5 L 1 5 L 0 5 L 0 6 L 0 19 C 0 20.645455 1.3545455 22 3 22 L 13 22 C 12.8 21.4 12.6875 20.7 12.6875 20 L 5.8125 20 C 5.9267333 19.684213 6 19.353087 6 19 L 6 6 L 6 2 L 22 2 L 22 13 C 22.7 13.2 23.4 13.5 24 14 L 24 0 L 23 0 L 5 0 L 4 0 z M 8 4 L 8 8 L 20 8 L 20 4 L 8 4 z M 8 10 L 8 12 L 13 12 L 13 10 L 8 10 z M 15 10 L 15 12 L 20 12 L 20 10 L 15 10 z M 8 13 L 8 15 L 13 15 L 13 13 L 8 13 z M 20 14 C 16.67619 14 14 16.67619 14 20 C 14 23.32381 16.67619 26 20 26 L 20 24 C 17.72381 24 16 22.27619 16 20 C 16 17.72381 17.72381 16 20 16 C 22.27619 16 24 17.72381 24 20 C 24 20.868011 23.7534 21.670644 23.3125 22.3125 L 22 21 L 21.5 25.5 L 26 25 L 24.75 23.75 C 25.581063 22.705888 26 21.376789 26 20 C 26 16.67619 23.32381 14 20 14 z M 8 16 L 8 18 L 13 18 L 13 16 L 8 16 z"/>
</svg>