<svg xmlns="http://www.w3.org/2000/svg" width="26" height="26" viewBox="0 0 26 26" style="fill: ;">
    <path d="M 16.15625 0 C 16.02925 0 15.89825 0.03575 15.78125 0.09375 L 11.53125 4.28125 C 11.27725 4.52125 11.0625 4.692 11.0625 5 C 11.0625 5.307 11.24725 5.46675 11.53125 5.71875 L 15.78125 9.90625 C 16.03525 10.03625 16.35075 10.022 16.59375 9.875 C 16.83875 9.729 17 9.4695 17 9.1875 L 17 7 L 19 7 C 20.681623 7 22 8.3183765 22 10 L 22 16 C 22 17.681623 20.681623 19 19 19 A 2.0002 2.0002 0 1 0 19 23 C 22.842377 23 26 19.842377 26 16 L 26 10 C 26 6.1576235 22.842377 3 19 3 L 17 3 L 17 0.8125 C 17 0.5315 16.83975 0.271 16.59375 0.125 C 16.46275 0.045 16.30725 0 16.15625 0 z M 7 3 C 3.1576235 3 0 6.1576235 0 10 L 0 16 C 0 19.842377 3.1576235 23 7 23 L 9 23 L 9 25.1875 C 9 25.4685 9.16025 25.729 9.40625 25.875 C 9.53725 25.956 9.69275 26 9.84375 26 C 9.97075 26 10.10175 25.96425 10.21875 25.90625 L 14.46875 21.71875 C 14.72275 21.47875 14.9375 21.308 14.9375 21 C 14.9385 20.694 14.75275 20.53325 14.46875 20.28125 L 10.21875 16.09375 C 9.96475 15.96375 9.64925 15.978 9.40625 16.125 C 9.16125 16.271 9 16.5305 9 16.8125 L 9 19 L 7 19 C 5.3183765 19 4 17.681623 4 16 L 4 10 C 4 8.3183765 5.3183765 7 7 7 A 2.0002 2.0002 0 1 0 7 3 z"/>
</svg>