<svg xmlns="http://www.w3.org/2000/svg" width="26" height="26" viewBox="0 0 26 26" style="fill: ;">
    <path d="M23.633,5.028c-0.2-0.227-0.481-0.358-0.777-0.366c-2.295-0.06-5.199-2.514-7.119-3.477 c-1.186-0.593-1.969-0.984-2.557-1.087C13.119,0.09,13.06,0.084,13,0.084s-0.119,0.006-0.18,0.015 c-0.588,0.103-1.371,0.494-2.556,1.087C8.344,2.148,5.44,4.603,3.145,4.662C2.849,4.67,2.567,4.802,2.367,5.028 C2.165,5.254,2.061,5.555,2.076,5.862c0.493,10.023,4.088,16.226,10.396,19.831c0.164,0.093,0.346,0.141,0.527,0.141 s0.363-0.048,0.528-0.141c6.308-3.605,9.902-9.808,10.396-19.831C23.939,5.555,23.835,5.254,23.633,5.028z M13,18.057 c-3.345,0-6.057-2.712-6.057-6.057S9.655,5.943,13,5.943S19.057,8.655,19.057,12S16.345,18.057,13,18.057z M15.48,8.509L9.509,14.48 c-0.5-0.702-0.802-1.555-0.802-2.48c0-2.366,1.926-4.293,4.293-4.293C13.926,7.707,14.777,8.008,15.48,8.509z M16.49,9.52 c0.501,0.702,0.803,1.555,0.803,2.48c0,2.366-1.926,4.293-4.293,4.293c-0.926,0-1.778-0.302-2.48-0.802L16.49,9.52z"/>
</svg>