<svg xmlns="http://www.w3.org/2000/svg" width="26" height="26" viewBox="0 0 26 26" style="fill: ;">
    <path d="M 12.6875 5.125 C 12.4865 5.125 12.27875 5.158 12.09375 5.25 L 3.78125 11.84375 C 3.38125 12.21975 3.0625 12.515 3.0625 13 C 3.0625 13.485 3.33325 13.76025 3.78125 14.15625 L 12.09375 20.75 C 12.49675 20.953 12.991 20.9205 13.375 20.6875 C 13.761 20.4555 14 20.03775 14 19.59375 L 14 15.90625 L 20.09375 20.75 C 20.49675 20.953 20.991 20.9205 21.375 20.6875 C 21.761 20.4555 22 20.03775 22 19.59375 L 22 6.40625 C 22 5.96325 21.761 5.5455 21.375 5.3125 C 21.167 5.1865 20.9265 5.125 20.6875 5.125 C 20.4865 5.125 20.27875 5.158 20.09375 5.25 L 14 10.09375 L 14 6.40625 C 14 5.96325 13.761 5.5455 13.375 5.3125 C 13.167 5.1865 12.9265 5.125 12.6875 5.125 z"/>
</svg>