<svg xmlns="http://www.w3.org/2000/svg" width="26" height="26" viewBox="0 0 26 26" style="fill: ;">
    <path d="M 10 0.1875 C 4.58 0.1875 0.1875 4.58 0.1875 10 C 0.1875 15.42 4.58 19.8125 10 19.8125 C 12.28995 19.8125 14.393062 19.001996 16.0625 17.6875 L 16.9375 18.5625 C 16.571328 19.252523 16.699291 20.136791 17.28125 20.71875 L 21.875 25.34375 C 22.588 26.05775 23.75475 26.05775 24.46875 25.34375 L 25.34375 24.46875 C 26.05675 23.75475 26.05675 22.588 25.34375 21.875 L 20.71875 17.28125 C 20.134554 16.697054 19.254632 16.595625 18.5625 16.96875 L 17.6875 16.09375 C 19.011378 14.421193 19.8125 12.298983 19.8125 10 C 19.8125 4.58 15.42 0.1875 10 0.1875 z M 10 2 C 14.418 2 18 5.582 18 10 C 18 14.418 14.418 18 10 18 C 5.582 18 2 14.418 2 10 C 2 5.582 5.582 2 10 2 z M 4.9375 7.46875 C 4.4205 8.30475 4.125 9.28975 4.125 10.34375 C 4.125 13.37075 6.56775 15.8125 9.59375 15.8125 C 10.76275 15.8125 11.859 15.4355 12.75 14.8125 C 12.511 14.8385 12.245 14.84375 12 14.84375 C 8.086 14.84375 4.9375 11.69625 4.9375 7.78125 C 4.9375 7.67725 4.9325 7.57275 4.9375 7.46875 z"/>
</svg>