<svg xmlns="http://www.w3.org/2000/svg" width="26" height="26" viewBox="0 0 26 26" style="fill: ;">
    <path d="M23.633,5.028c-0.2-0.227-0.481-0.358-0.777-0.366c-2.295-0.06-5.199-2.514-7.119-3.477 c-1.186-0.593-1.969-0.984-2.557-1.087C13.119,0.09,13.06,0.084,13,0.084s-0.119,0.006-0.18,0.015 c-0.588,0.103-1.371,0.494-2.556,1.087C8.344,2.148,5.44,4.602,3.145,4.662C2.849,4.67,2.567,4.802,2.367,5.028 C2.165,5.254,2.061,5.555,2.076,5.862c0.493,10.023,4.088,16.226,10.396,19.831c0.164,0.093,0.346,0.141,0.527,0.141 s0.363-0.048,0.528-0.141c6.308-3.605,9.902-9.808,10.396-19.831C23.939,5.555,23.835,5.254,23.633,5.028z M18.617,8.97 l-5.323,7.855c-0.191,0.282-0.491,0.469-0.788,0.469c-0.298,0-0.629-0.163-0.838-0.372l-3.752-3.753 c-0.255-0.256-0.255-0.671,0-0.926l0.927-0.929c0.256-0.254,0.672-0.254,0.926,0l2.44,2.44l4.239-6.257 c0.202-0.298,0.611-0.375,0.91-0.173l1.085,0.736C18.741,8.263,18.819,8.671,18.617,8.97z"/>
</svg>