<svg xmlns="http://www.w3.org/2000/svg" viewBox="0 0 26 26" enable-background="new 0 0 26 26" style="fill: ;">
    <path style="text-indent:0;text-align:start;line-height:normal;text-transform:none;block-progression:tb;-inkscape-font-specification:Bitstream Vera Sans" d="M 13 0 C 10.79359 0 9.3169988 0.99198407 8.65625 2.28125 C 7.9955012 3.5705159 8 4.9833333 8 6 A 1.0001 1.0001 0 1 0 10 6 C 10 5.0166667 10.073249 3.9294841 10.4375 3.21875 C 10.801751 2.5080159 11.30641 2 13 2 C 14.685043 2 15.193853 2.5216977 15.5625 3.25 C 15.931147 3.9783023 16 5.0675439 16 6 A 1.0001 1.0001 0 1 0 18 6 C 18 5.0324561 18.000103 3.6404477 17.34375 2.34375 C 16.687397 1.0470523 15.214957 0 13 0 z M 4.1875 8 C 3.7875 8 3.4125 8.3125 3.3125 8.8125 L 0.1875 24.6875 C 0.0875 25.3875 0.4 26 1 26 L 25 26 C 25.6 26 25.9125 25.3875 25.8125 24.6875 L 22.6875 8.8125 C 22.5875 8.3125 22.2125 8 21.8125 8 L 4.1875 8 z M 8.5 9 C 9.3 9 10 9.7 10 10.5 C 10 11.3 9.3 12 8.5 12 C 7.7 12 7 11.3 7 10.5 C 7 9.7 7.7 9 8.5 9 z M 17.5 9 C 18.3 9 19 9.7 19 10.5 C 19 11.3 18.3 12 17.5 12 C 16.7 12 16 11.3 16 10.5 C 16 9.7 16.7 9 17.5 9 z" color="#000" overflow="visible" enable-background="accumulate" font-family="Bitstream Vera Sans"/>
</svg>