<svg xmlns="http://www.w3.org/2000/svg" width="26" height="26" viewBox="0 0 26 26" style="fill: ;">
    <path style="text-indent:0;text-align:start;line-height:normal;text-transform:none;block-progression:tb;-inkscape-font-specification:Bitstream Vera Sans" d="M 15.5 0 C 13.209212 0 11.312176 1.2932828 10.15625 3.09375 C 9.9387269 3.0638933 9.7348776 3 9.5 3 C 6.9976718 3 4.9996927 4.7349842 4.34375 7.03125 C 1.9458479 7.1189899 0 9.08181 0 11.5 C 0 13.973438 2.026562 16 4.5 16 L 20.5 16 C 23.525577 16 26 13.525577 26 10.5 C 26 7.9247562 24.178422 5.8375159 21.78125 5.25 C 21.183249 2.2789104 18.639965 0 15.5 0 z M 15.5 2 C 17.872717 2 19.779357 3.8080139 19.96875 6.125 L 20.0625 6.96875 L 20.875 7.03125 C 22.63817 7.2195194 24 8.6847471 24 10.5 C 24 12.444423 22.444423 14 20.5 14 L 4.5 14 C 3.107438 14 2 12.892562 2 11.5 C 2 10.107438 3.107438 9 4.5 9 C 4.590743 9 4.6995918 9.00381 4.875 9.03125 L 5.9375 9.21875 L 6.03125 8.15625 C 6.2078976 6.3788313 7.6759298 5 9.5 5 C 9.7605785 5 10.030168 5.026528 10.3125 5.09375 L 11.09375 5.28125 L 11.4375 4.5625 C 12.16167 3.0470611 13.701132 2 15.5 2 z M 19.1875 16.84375 A 0.51755173 0.51755173 0 0 0 19 17.75 L 20.21875 18.96875 L 18.5 18.96875 A 0.51755173 0.51755173 0 0 0 18.4375 18.96875 A 0.53216832 0.53216832 0 1 0 18.5 20.03125 L 20.21875 20.03125 L 19 21.25 A 0.53033009 0.53033009 0 1 0 19.75 22 L 20.96875 20.78125 L 20.96875 22.5 A 0.53125 0.53125 0 0 0 22.03125 22.5 L 22.03125 20.78125 L 23.25 22 A 0.53033009 0.53033009 0 1 0 24 21.25 L 22.78125 20.03125 L 24.5 20.03125 A 0.53125 0.53125 0 0 0 24.5 18.96875 L 22.78125 18.96875 L 24 17.75 A 0.51755173 0.51755173 0 0 0 23.625 16.84375 A 0.51755173 0.51755173 0 0 0 23.25 17 L 22.03125 18.21875 L 22.03125 17.5 A 0.51755173 0.51755173 0 0 0 21.4375 16.96875 A 0.51755173 0.51755173 0 0 0 21.375 16.96875 A 0.51755173 0.51755173 0 0 0 20.96875 17.5 L 20.96875 18.21875 L 19.75 17 A 0.51755173 0.51755173 0 0 0 19.3125 16.84375 A 0.51755173 0.51755173 0 0 0 19.25 16.84375 A 0.51755173 0.51755173 0 0 0 19.1875 16.84375 z M 5.3125 16.96875 A 0.51755173 0.51755173 0 0 0 4.96875 17.5 L 4.96875 19.21875 L 3.75 18 A 0.51755173 0.51755173 0 0 0 3.3125 17.84375 A 0.51755173 0.51755173 0 0 0 3.25 17.84375 A 0.51755173 0.51755173 0 0 0 3 18.75 L 4.21875 19.96875 L 2.5 19.96875 A 0.51755173 0.51755173 0 0 0 2.4375 19.96875 A 0.53216832 0.53216832 0 1 0 2.5 21.03125 L 4.21875 21.03125 L 3 22.25 A 0.53033009 0.53033009 0 1 0 3.75 23 L 4.96875 21.78125 L 4.96875 23.5 A 0.53125 0.53125 0 0 0 6.03125 23.5 L 6.03125 21.78125 L 7.25 23 A 0.53033009 0.53033009 0 1 0 8 22.25 L 6.78125 21.03125 L 8.5 21.03125 A 0.53125 0.53125 0 0 0 8.5 19.96875 L 6.78125 19.96875 L 8 18.75 A 0.51755173 0.51755173 0 0 0 7.625 17.84375 A 0.51755173 0.51755173 0 0 0 7.25 18 L 6.03125 19.21875 L 6.03125 17.5 A 0.51755173 0.51755173 0 0 0 5.4375 16.96875 A 0.51755173 0.51755173 0 0 0 5.375 16.96875 A 0.51755173 0.51755173 0 0 0 5.3125 16.96875 z M 13.3125 18.96875 A 0.51755173 0.51755173 0 0 0 12.96875 19.5 L 12.96875 21.21875 L 11.75 20 A 0.51755173 0.51755173 0 0 0 11.3125 19.84375 A 0.51755173 0.51755173 0 0 0 11 20.75 L 12.21875 21.96875 L 10.5 21.96875 A 0.51755173 0.51755173 0 0 0 10.4375 21.96875 A 0.53216832 0.53216832 0 1 0 10.5 23.03125 L 12.21875 23.03125 L 11 24.25 A 0.53033009 0.53033009 0 1 0 11.75 25 L 12.96875 23.78125 L 12.96875 25.5 A 0.53125 0.53125 0 0 0 14.03125 25.5 L 14.03125 23.78125 L 15.25 25 A 0.53033009 0.53033009 0 1 0 16 24.25 L 14.78125 23.03125 L 16.5 23.03125 A 0.53125 0.53125 0 0 0 16.5 21.96875 L 14.78125 21.96875 L 16 20.75 A 0.51755173 0.51755173 0 0 0 15.625 19.84375 A 0.51755173 0.51755173 0 0 0 15.25 20 L 14.03125 21.21875 L 14.03125 19.5 A 0.51755173 0.51755173 0 0 0 13.4375 18.96875 A 0.51755173 0.51755173 0 0 0 13.375 18.96875 A 0.51755173 0.51755173 0 0 0 13.3125 18.96875 z"/>
</svg>