<svg xmlns="http://www.w3.org/2000/svg" width="26" height="26" viewBox="0 0 26 26" style="fill: ;">
    <path d="M 12.03125 1.0625 C 11.709746 1.064498 11.35525 1.207625 11.03125 1.53125 L 5.3125 8 L 1 8 C 0.449 8 0 8.449 0 9 L 0 17 C 0 17.551 0.449 18 1 18 L 5.3125 18 L 11 24.4375 C 12 25.4375 13 24.9255 13 23.5625 L 13 2.28125 C 13 1.49 12.56709 1.0591699 12.03125 1.0625 z M 19.28125 3.0625 A 1.0001 1.0001 0 0 0 19.0625 4.96875 C 21.999157 6.4505743 24 9.4758058 24 13 C 24 16.524194 21.999157 19.549426 19.0625 21.03125 A 1.0001 1.0001 0 1 0 19.9375 22.8125 C 23.528843 21.000324 26 17.287806 26 13 C 26 8.7121942 23.528843 4.9996757 19.9375 3.1875 A 1.0001 1.0001 0 0 0 19.375 3.0625 A 1.0001 1.0001 0 0 0 19.28125 3.0625 z M 16.90625 6.9375 A 1.0001 1.0001 0 0 0 16.5 8.8125 C 18.043428 9.7710227 19 11.2892 19 13 C 19 14.721677 18.028432 16.261457 16.46875 17.21875 A 1.0001 1.0001 0 1 0 17.53125 18.90625 C 19.601568 17.635543 21 15.476323 21 13 C 21 10.5388 19.613072 8.3672273 17.5625 7.09375 A 1.0001 1.0001 0 0 0 17 6.9375 A 1.0001 1.0001 0 0 0 16.90625 6.9375 z"/>
</svg>