<svg xmlns="http://www.w3.org/2000/svg" width="26" height="26" viewBox="0 0 26 26" style="fill: ;">
    <path style="text-indent:0;text-align:start;line-height:normal;text-transform:none;block-progression:tb;-inkscape-font-specification:Bitstream Vera Sans" d="M 8.8125 0 A 1.0001 1.0001 0 0 0 8 1 L 8 2 L 4.40625 2 C 3.60625 2 3 2.60625 3 3.40625 L 3 24.5 C 3 25.4 3.60625 26 4.40625 26 L 21.5 26 C 22.3 26 22.90625 25.39375 22.90625 24.59375 L 22.90625 3.40625 C 23.00625 2.60625 22.39375 2 21.59375 2 L 18 2 L 18 1 A 1.0001 1.0001 0 0 0 17 0 L 9 0 A 1.0001 1.0001 0 0 0 8.90625 0 A 1.0001 1.0001 0 0 0 8.8125 0 z M 10 2 L 16 2 L 16 4 L 10 4 L 10 2 z M 5 4 L 8 4 L 8 5 A 1.0001 1.0001 0 0 0 9 6 L 17 6 A 1.0001 1.0001 0 0 0 18 5 L 18 4 L 21 4 L 21 24 L 5 24 L 5 4 z M 7 9 L 7 13 L 11 13 L 11 9 L 7 9 z M 8 10 L 10 10 L 10 12 L 8 12 L 8 10 z M 13 10 L 13 12 L 19 12 L 19 10 L 13 10 z M 7 15 L 7 19 L 11 19 L 11 15 L 7 15 z M 13 16 L 13 18 L 19 18 L 19 16 L 13 16 z" color="#000" overflow="visible" enable-background="accumulate" font-family="Bitstream Vera Sans"/>
</svg>