<svg xmlns="http://www.w3.org/2000/svg" width="26" height="26" viewBox="0 0 26 26" style="fill: ;">
    <path d="M21.125,5H19.2l-1.304-2.301C17.67,2.3,17.18,2,16.5,2h-7C8.791,2,8.331,2.3,8.104,2.699L6.8,5H4.875 C2.182,5,0,7.182,0,9.875v8.25C0,20.818,2.182,23,4.875,23h16.25C23.818,23,26,20.818,26,18.125v-8.25C26,7.182,23.818,5,21.125,5z M13,21c-3.866,0-7-3.134-7-7H4l3-4l3,4H8c0,2.757,2.243,5,5,5c1.268,0,2.415-0.49,3.297-1.271l1.214,1.619 C16.292,20.377,14.72,21,13,21z M19,18l-3-4h2c0-2.757-2.243-5-5-5c-1.268,0-2.415,0.49-3.297,1.271L8.489,8.652 C9.708,7.623,11.28,7,13,7c3.866,0,7,3.134,7,7h2L19,18z"/>
</svg>