<svg xmlns="http://www.w3.org/2000/svg" width="26" height="26" viewBox="0 0 26 26" style="fill: ;">
    <path style="text-indent:0;text-align:start;line-height:normal;text-transform:none;block-progression:tb;-inkscape-font-specification:Bitstream Vera Sans" d="M 7 0 C 4.7897845 0 2.8777038 0.9168312 1.6875 2.40625 C 0.49729625 3.8956688 0 5.8261134 0 7.90625 L 0 11 L 3 11 L 3 7.90625 C 3 6.3263866 3.3887038 5.0853312 4.03125 4.28125 C 4.6737962 3.4771688 5.5412155 3 7 3 C 8.4626003 3 9.3282055 3.4508702 9.96875 4.25 C 10.609295 5.0491298 11 6.3104875 11 7.90625 L 11 9 L 14 9 L 14 7.90625 C 14 5.8140125 13.473455 3.8623702 12.28125 2.375 C 11.089045 0.88762977 9.2063997 0 7 0 z M 9 10 C 7.344 10 6 11.344 6 13 L 6 23 C 6 24.656 7.344 26 9 26 L 23 26 C 24.656 26 26 24.656 26 23 L 26 13 C 26 11.344 24.656 10 23 10 L 9 10 z M 16 15 C 17.104 15 18 15.896 18 17 C 18 17.738 17.596 18.37175 17 18.71875 L 17 21 C 17 21.551 16.551 22 16 22 C 15.449 22 15 21.551 15 21 L 15 18.71875 C 14.404 18.37175 14 17.739 14 17 C 14 15.896 14.896 15 16 15 z" color="#000" overflow="visible" enable-background="accumulate" font-family="Bitstream Vera Sans"/>
</svg>