<svg xmlns="http://www.w3.org/2000/svg" width="26" height="26" viewBox="0 0 26 26" style="fill: ;">
    <path d="M 10.84375 0.09375 C 9.23075 0.09375 8.09375 1.23575 8.09375 2.84375 C 8.09375 4.61375 9.49175 5.765 10.84375 6.875 C 11.285982 7.2378393 11.718477 7.6030279 12.125 8 L 5 8 C 3.684 8 2.5915 8.85125 2.1875 10.03125 C 2.1875 10.03125 2.391 12 5.5 12 C 8.39 12 8.497 10.53075 8.5 10.46875 C 8.514 10.20175 8.734 10 9 10 C 9.269 10.004 9.494 10.232 9.5 10.5 C 9.504 10.551 9.645 12 13 12 C 16.355 12 16.495 10.53075 16.5 10.46875 C 16.518 10.19875 16.75525 9.992 17.03125 10 C 17.30025 10.01 17.5 10.231 17.5 10.5 C 17.502 10.553 17.59 12 20.5 12 C 23.703 12 23.8125 10.03125 23.8125 10.03125 C 23.4085 8.85225 22.315 8 21 8 L 13.875 8 C 14.281587 7.6030279 14.713321 7.2378393 15.15625 6.875 C 16.50725 5.765 17.90625 4.61275 17.90625 2.84375 C 17.90525 1.23575 16.77025 0.09375 15.15625 0.09375 C 14.22625 0.09375 13.439 0.75975 13 1.21875 C 12.563 0.75975 11.77275 0.09375 10.84375 0.09375 z M 9.03125 11.71875 C 8.54225 12.35475 7.542 13 5.5 13 C 3.495 13 2.499 12.375 2 11.75 L 2 16 L 24 16 L 24 11.75 C 23.501 12.37 22.502 13 20.5 13 C 18.45 13 17.45575 12.35275 16.96875 11.71875 C 16.41475 12.35175 15.285 13 13 13 C 10.707 13 9.58225 12.35475 9.03125 11.71875 z M 3 17 C 1.684 17 0.5915 17.85125 0.1875 19.03125 C 0.1875 19.03125 0.391 21 3.5 21 C 6.39 21 7.497 19.53075 7.5 19.46875 C 7.514 19.20175 7.734 19 8 19 C 8.269 19.004 8.494 19.232 8.5 19.5 C 8.504 19.551 9.645 21 13 21 C 16.355 21 17.495 19.53075 17.5 19.46875 C 17.518 19.19875 17.75525 18.992 18.03125 19 C 18.30025 19.01 18.5 19.231 18.5 19.5 C 18.502 19.553 19.59 21 22.5 21 C 25.703 21 25.8125 19.03125 25.8125 19.03125 C 25.4085 17.85225 24.315 17 23 17 L 3 17 z M 8.03125 20.71875 C 7.54225 21.35475 5.542 22 3.5 22 C 1.495 22 0.499 21.375 0 20.75 L 0 24 C 0 25.656 1.344 26 3 26 L 23 26 C 24.656 26 26 25.656 26 24 L 26 20.75 C 25.501 21.37 24.502 22 22.5 22 C 20.45 22 18.45575 21.35275 17.96875 20.71875 C 17.41475 21.35175 15.285 22 13 22 C 10.707 22 8.58225 21.35475 8.03125 20.71875 z"/>
</svg>